<svg width="513" height="82" viewBox="0 0 513 82" fill="none" xmlns="http://www.w3.org/2000/svg">
<path d="M65.1404 57.5797C66.6251 56.9454 67.919 56.0763 69.0209 54.975C70.1222 53.8738 70.9906 52.585 71.6263 51.1126C72.2607 49.6395 72.5782 48.0643 72.5782 46.3881C72.5782 44.7107 72.2607 43.131 71.6263 41.6443C70.9906 40.1596 70.1222 38.8663 69.0209 37.7644C67.919 36.6632 66.6251 35.7941 65.1404 35.1597C63.655 34.5253 62.0746 34.2072 60.3978 34.2072H53.2834V58.5316H60.3978C62.0746 58.5316 63.655 58.2147 65.1404 57.5797ZM65.3919 34.5305C66.9484 35.2017 68.3077 36.1174 69.4697 37.2788C70.6317 38.4408 71.5474 39.8065 72.2186 41.3753C72.8886 42.9441 73.2248 44.615 73.2248 46.3881C73.2248 48.1619 72.8886 49.8251 72.2186 51.3809C71.5474 52.9381 70.6317 54.2986 69.4697 55.46C68.3077 56.6214 66.9484 57.5383 65.3919 58.2089C63.8348 58.8795 62.1703 59.2145 60.3978 59.2145H52.6005V33.5243H60.3978C62.1703 33.5243 63.8348 33.8599 65.3919 34.5305Z" fill="#ffffff"/>
<path d="M65.1404 57.5797C66.6251 56.9454 67.919 56.0763 69.0209 54.975C70.1222 53.8738 70.9906 52.585 71.6263 51.1126C72.2607 49.6395 72.5782 48.0643 72.5782 46.3881C72.5782 44.7107 72.2607 43.131 71.6263 41.6443C70.9906 40.1596 70.1222 38.8663 69.0209 37.7644C67.919 36.6632 66.6251 35.7941 65.1404 35.1597C63.655 34.5253 62.0746 34.2072 60.3978 34.2072H53.2834V58.5316H60.3978C62.0746 58.5316 63.655 58.2147 65.1404 57.5797ZM65.3919 34.5305C66.9484 35.2017 68.3077 36.1174 69.4697 37.2788C70.6317 38.4408 71.5474 39.8065 72.2186 41.3753C72.8886 42.9441 73.2248 44.615 73.2248 46.3881C73.2248 48.1619 72.8886 49.8251 72.2186 51.3809C71.5474 52.9381 70.6317 54.2986 69.4697 55.46C68.3077 56.6214 66.9484 57.5383 65.3919 58.2089C63.8348 58.8795 62.1703 59.2145 60.3978 59.2145H52.6005V33.5243H60.3978C62.1703 33.5243 63.8348 33.8599 65.3919 34.5305Z" stroke="#ffffff" stroke-width="0.323325" stroke-miterlimit="10"/>
<path d="M95.3215 49.9092L88.4948 34.387L81.6682 49.9092H95.3215ZM95.6093 50.627H81.381L77.5723 59.2145H76.8176L88.0997 33.5237H88.8544L100.172 59.2145H99.4174L95.6093 50.627Z" fill="#ffffff" stroke="#ffffff" stroke-width="0.323325" stroke-miterlimit="10"/>
<path d="M115.802 34.2072H106.82V59.2145H106.137V34.2072H97.1904V33.5237H115.802V34.2072Z" fill="#ffffff" stroke="#ffffff" stroke-width="0.323325" stroke-miterlimit="10"/>
<path d="M131.324 49.9092L124.496 34.387L117.67 49.9092H131.324ZM131.611 50.627H117.383L113.574 59.2145H112.82L124.102 33.5237H124.856L136.174 59.2145H135.42L131.611 50.627Z" fill="#ffffff" stroke="#ffffff" stroke-width="0.323325" stroke-miterlimit="10"/>
<path d="M151.803 34.2072H142.821V59.2145H142.138V34.2072H133.192V33.5237H151.803V34.2072Z" fill="#ffffff" stroke="#ffffff" stroke-width="0.323325" stroke-miterlimit="10"/>
<path d="M156.08 34.2072V46.0273H167.398V46.7108H156.08V58.531H171.566V59.2145H155.397V33.5237H171.566V34.2072H156.08Z" fill="#ffffff" stroke="#ffffff" stroke-width="0.323325" stroke-miterlimit="10"/>
<path d="M178.247 45.5617L175.84 47.9686V59.2145H175.158V33.5243H175.84V46.9986L189.314 33.5243H190.32L178.75 45.0948L192.871 59.2145H191.901L178.247 45.5617Z" fill="#ffffff" stroke="#ffffff" stroke-width="0.323325" stroke-miterlimit="10"/>
<path d="M217.016 33.5243V59.2151H216.298L197.146 34.7465V59.2151H196.464V33.5243H197.146L216.298 58.0298V33.5243H217.016Z" fill="#ffffff" stroke="#ffffff" stroke-width="0.323325" stroke-miterlimit="10"/>
<path d="M233.436 34.2072C231.759 34.2072 230.184 34.5247 228.711 35.1591C227.238 35.7941 225.951 36.6625 224.85 37.7638C223.747 38.8663 222.879 40.1596 222.244 41.6443C221.609 43.131 221.292 44.7101 221.292 46.3882C221.292 48.0643 221.609 49.6389 222.244 51.1126C222.879 52.585 223.747 53.8731 224.85 54.9744C225.951 56.0756 227.238 56.9447 228.711 57.5797C230.184 58.2148 231.759 58.531 233.436 58.531C235.113 58.531 236.688 58.2148 238.162 57.5797C239.635 56.9447 240.921 56.0756 242.023 54.9744C243.125 53.8731 243.993 52.585 244.629 51.1126C245.263 49.6389 245.581 48.0643 245.581 46.3882C245.581 44.7101 245.263 43.131 244.629 41.6443C243.993 40.1596 243.125 38.8663 242.023 37.7638C240.921 36.6625 239.635 35.7941 238.162 35.1591C236.688 34.5247 235.113 34.2072 233.436 34.2072ZM233.436 59.2145C231.663 59.2145 229.999 58.8789 228.442 58.2083C226.885 57.5377 225.526 56.6208 224.364 55.4594C223.202 54.298 222.286 52.9381 221.615 51.3809C220.945 49.8245 220.609 48.1613 220.609 46.3882C220.609 44.615 220.945 42.9441 221.615 41.3753C222.286 39.8065 223.202 38.4408 224.364 37.2788C225.526 36.1174 226.885 35.2011 228.442 34.5305C229.999 33.8599 231.663 33.5237 233.436 33.5237C235.208 33.5237 236.873 33.8599 238.431 34.5305C239.988 35.2011 241.346 36.1174 242.509 37.2788C243.67 38.4408 244.587 39.8065 245.257 41.3753C245.928 42.9441 246.263 44.615 246.263 46.3882C246.263 48.1613 245.928 49.8245 245.257 51.3809C244.587 52.9381 243.67 54.298 242.509 55.4594C241.346 56.6208 239.988 57.5377 238.431 58.2083C236.873 58.8789 235.208 59.2145 233.436 59.2145Z" fill="#ffffff"/>
<path d="M233.436 34.2072C231.759 34.2072 230.184 34.5247 228.711 35.1591C227.238 35.7941 225.951 36.6625 224.85 37.7638C223.747 38.8663 222.879 40.1596 222.244 41.6443C221.609 43.131 221.292 44.7101 221.292 46.3882C221.292 48.0643 221.609 49.6389 222.244 51.1126C222.879 52.585 223.747 53.8731 224.85 54.9744C225.951 56.0756 227.238 56.9447 228.711 57.5797C230.184 58.2148 231.759 58.531 233.436 58.531C235.113 58.531 236.688 58.2148 238.162 57.5797C239.635 56.9447 240.921 56.0756 242.023 54.9744C243.125 53.8731 243.993 52.585 244.629 51.1126C245.263 49.6389 245.581 48.0643 245.581 46.3882C245.581 44.7101 245.263 43.131 244.629 41.6443C243.993 40.1596 243.125 38.8663 242.023 37.7638C240.921 36.6625 239.635 35.7941 238.162 35.1591C236.688 34.5247 235.113 34.2072 233.436 34.2072ZM233.436 59.2145C231.663 59.2145 229.999 58.8789 228.442 58.2083C226.885 57.5377 225.526 56.6208 224.364 55.4594C223.202 54.298 222.286 52.9381 221.615 51.3809C220.945 49.8245 220.609 48.1613 220.609 46.3882C220.609 44.615 220.945 42.9441 221.615 41.3753C222.286 39.8065 223.202 38.4408 224.364 37.2788C225.526 36.1174 226.885 35.2011 228.442 34.5305C229.999 33.8599 231.663 33.5237 233.436 33.5237C235.208 33.5237 236.873 33.8599 238.431 34.5305C239.988 35.2011 241.346 36.1174 242.509 37.2788C243.67 38.4408 244.587 39.8065 245.257 41.3753C245.928 42.9441 246.263 44.615 246.263 46.3882C246.263 48.1613 245.928 49.8245 245.257 51.3809C244.587 52.9381 243.67 54.298 242.509 55.4594C241.346 56.6208 239.988 57.5377 238.431 58.2083C236.873 58.8789 235.208 59.2145 233.436 59.2145Z" stroke="#ffffff" stroke-width="0.323325" stroke-miterlimit="10"/>
<path d="M266.132 58.5316V59.2151H249.856V33.5243H250.538V58.5316H266.132Z" fill="#ffffff" stroke="#ffffff" stroke-width="0.323325" stroke-miterlimit="10"/>
<path d="M276.732 34.2072C275.054 34.2072 273.481 34.5247 272.006 35.1591C270.534 35.7941 269.247 36.6625 268.145 37.7638C267.042 38.8663 266.174 40.1596 265.539 41.6443C264.904 43.131 264.588 44.7101 264.588 46.3882C264.588 48.0643 264.904 49.6389 265.539 51.1126C266.174 52.585 267.042 53.8731 268.145 54.9744C269.247 56.0756 270.534 56.9447 272.006 57.5797C273.481 58.2148 275.054 58.531 276.732 58.531C278.409 58.531 279.982 58.2148 281.457 57.5797C282.931 56.9447 284.218 56.0756 285.319 54.9744C286.421 53.8731 287.289 52.585 287.925 51.1126C288.56 49.6389 288.877 48.0643 288.877 46.3882C288.877 44.7101 288.56 43.131 287.925 41.6443C287.289 40.1596 286.421 38.8663 285.319 37.7638C284.218 36.6625 282.931 35.7941 281.457 35.1591C279.982 34.5247 278.409 34.2072 276.732 34.2072ZM276.732 59.2145C274.959 59.2145 273.294 58.8789 271.738 58.2083C270.181 57.5377 268.822 56.6208 267.659 55.4594C266.498 54.298 265.581 52.9381 264.91 51.3809C264.24 49.8245 263.905 48.1613 263.905 46.3882C263.905 44.615 264.24 42.9441 264.91 41.3753C265.581 39.8065 266.498 38.4408 267.659 37.2788C268.822 36.1174 270.181 35.2011 271.738 34.5305C273.294 33.8599 274.959 33.5237 276.732 33.5237C278.505 33.5237 280.169 33.8599 281.727 34.5305C283.284 35.2011 284.641 36.1174 285.804 37.2788C286.965 38.4408 287.882 39.8065 288.553 41.3753C289.224 42.9441 289.56 44.615 289.56 46.3882C289.56 48.1613 289.224 49.8245 288.553 51.3809C287.882 52.9381 286.965 54.298 285.804 55.4594C284.641 56.6208 283.284 57.5377 281.727 58.2083C280.169 58.8789 278.505 59.2145 276.732 59.2145Z" fill="#ffffff"/>
<path d="M276.732 34.2072C275.054 34.2072 273.481 34.5247 272.006 35.1591C270.534 35.7941 269.247 36.6625 268.145 37.7638C267.042 38.8663 266.174 40.1596 265.539 41.6443C264.904 43.131 264.588 44.7101 264.588 46.3882C264.588 48.0643 264.904 49.6389 265.539 51.1126C266.174 52.585 267.042 53.8731 268.145 54.9744C269.247 56.0756 270.534 56.9447 272.006 57.5797C273.481 58.2148 275.054 58.531 276.732 58.531C278.409 58.531 279.982 58.2148 281.457 57.5797C282.931 56.9447 284.218 56.0756 285.319 54.9744C286.421 53.8731 287.289 52.585 287.925 51.1126C288.56 49.6389 288.877 48.0643 288.877 46.3882C288.877 44.7101 288.56 43.131 287.925 41.6443C287.289 40.1596 286.421 38.8663 285.319 37.7638C284.218 36.6625 282.931 35.7941 281.457 35.1591C279.982 34.5247 278.409 34.2072 276.732 34.2072ZM276.732 59.2145C274.959 59.2145 273.294 58.8789 271.738 58.2083C270.181 57.5377 268.822 56.6208 267.659 55.4594C266.498 54.298 265.581 52.9381 264.91 51.3809C264.24 49.8245 263.905 48.1613 263.905 46.3882C263.905 44.615 264.24 42.9441 264.91 41.3753C265.581 39.8065 266.498 38.4408 267.659 37.2788C268.822 36.1174 270.181 35.2011 271.738 34.5305C273.294 33.8599 274.959 33.5237 276.732 33.5237C278.505 33.5237 280.169 33.8599 281.727 34.5305C283.284 35.2011 284.641 36.1174 285.804 37.2788C286.965 38.4408 287.882 39.8065 288.553 41.3753C289.224 42.9441 289.56 44.615 289.56 46.3882C289.56 48.1613 289.224 49.8245 288.553 51.3809C287.882 52.9381 286.965 54.298 285.804 55.4594C284.641 56.6208 283.284 57.5377 281.727 58.2083C280.169 58.8789 278.505 59.2145 276.732 59.2145Z" stroke="#ffffff" stroke-width="0.323325" stroke-miterlimit="10"/>
<path d="M318.591 48.6863C318.327 50.1956 317.812 51.5917 317.046 52.8734C316.278 54.1551 315.337 55.2628 314.224 56.1965C313.109 57.1303 311.853 57.8668 310.452 58.4055C309.051 58.9442 307.559 59.2145 305.978 59.2145C304.205 59.2145 302.54 58.8795 300.984 58.2089C299.428 57.5377 298.068 56.6214 296.905 55.46C295.744 54.2986 294.827 52.9381 294.156 51.3809C293.486 49.8251 293.151 48.1613 293.151 46.3881C293.151 44.615 293.486 42.9441 294.156 41.3753C294.827 39.8065 295.744 38.4408 296.905 37.2788C298.068 36.1174 299.428 35.2011 300.984 34.5305C302.54 33.8599 304.205 33.5243 305.978 33.5243C307.559 33.5243 309.051 33.794 310.452 34.3333C311.853 34.8719 313.109 35.6143 314.224 36.561C315.337 37.507 316.278 38.6206 317.046 39.9022C317.812 41.1833 318.327 42.5664 318.591 44.0524H317.907C317.644 42.6641 317.146 41.363 316.417 40.1538C315.686 38.9439 314.794 37.9021 313.739 37.0279C312.686 36.1536 311.494 35.4643 310.164 34.9612C308.835 34.4587 307.44 34.2072 305.978 34.2072C304.3 34.2072 302.727 34.5253 301.253 35.1597C299.781 35.7941 298.493 36.6632 297.392 37.7644C296.289 38.8663 295.421 40.1596 294.786 41.6443C294.15 43.131 293.835 44.7107 293.835 46.3881C293.835 48.0643 294.15 49.6395 294.786 51.1126C295.421 52.585 296.289 53.8731 297.392 54.975C298.493 56.0763 299.781 56.9447 301.253 57.5797C302.727 58.2147 304.3 58.5316 305.978 58.5316C307.392 58.5316 308.74 58.304 310.02 57.8494C311.302 57.3948 312.458 56.7591 313.487 55.945C314.517 55.1309 315.403 54.1615 316.147 53.0338C316.888 51.9086 317.428 50.6877 317.764 49.3692H306.696V48.6863H318.591Z" fill="#ffffff" stroke="#ffffff" stroke-width="0.323325" stroke-miterlimit="10"/>
<path d="M333.983 46.136C334.89 46.2802 335.731 46.544 336.51 46.9262C337.286 47.3103 337.955 47.7901 338.518 48.3637C339.078 48.9385 339.522 49.5917 339.844 50.323C340.166 51.0531 340.328 51.8258 340.328 52.64C340.328 53.5498 340.125 54.4066 339.717 55.2085C339.313 56.011 338.75 56.7061 338.034 57.292C337.315 57.8798 336.478 58.3473 335.524 58.6939C334.566 59.0412 333.539 59.2151 332.439 59.2151H330.072C328.996 59.2151 327.981 59.0412 327.024 58.6939C326.067 58.3473 325.23 57.8798 324.514 57.292C323.797 56.7061 323.228 56.011 322.812 55.2085C322.392 54.4066 322.183 53.5498 322.183 52.64V52.4964H323.009V52.64C323.009 53.4541 323.195 54.2139 323.565 54.9214C323.937 55.6281 324.443 56.2502 325.089 56.7902C325.735 57.3288 326.48 57.7543 327.329 58.0641C328.178 58.3771 329.092 58.5316 330.072 58.5316H332.439C333.418 58.5316 334.338 58.3771 335.2 58.0641C336.059 57.7543 336.807 57.3288 337.44 56.7902C338.073 56.2502 338.576 55.6281 338.945 54.9214C339.317 54.2139 339.501 53.4541 339.501 52.64C339.501 51.8258 339.317 51.0583 338.945 50.3392C338.576 49.6208 338.073 48.9929 337.44 48.4542C336.807 47.9142 336.059 47.49 335.2 47.1777C334.338 46.8673 333.418 46.7115 332.439 46.7115C331.434 46.76 330.593 46.7412 329.912 46.6578C329.229 46.5731 328.674 46.4716 328.245 46.3519C327.743 46.2323 327.325 46.0881 326.989 45.9213C325.747 45.1783 324.773 44.3389 324.068 43.4045C323.362 42.4707 323.009 41.3818 323.009 40.1363C323.009 39.2252 323.219 38.3697 323.636 37.5672C324.055 36.764 324.621 36.0637 325.34 35.4649C326.056 34.8661 326.893 34.3934 327.851 34.0455C328.805 33.6989 329.821 33.5243 330.896 33.5243H331.614C332.665 33.5243 333.657 33.6866 334.589 34.01C335.522 34.3333 336.34 34.7762 337.045 35.3388C337.752 35.9021 338.324 36.5675 338.766 37.3331C339.209 38.1 339.454 38.9142 339.501 39.7761H338.676C338.628 39.0099 338.405 38.2856 338.011 37.6027C337.614 36.9199 337.106 36.3276 336.483 35.8245C335.86 35.3207 335.129 34.9263 334.293 34.6385C333.454 34.3507 332.567 34.2078 331.633 34.2078H330.914C329.932 34.2078 329.015 34.363 328.166 34.6741C327.315 34.9864 326.567 35.4112 325.919 35.9499C325.274 36.4886 324.763 37.1178 324.394 37.8362C324.022 38.5546 323.835 39.3215 323.835 40.1363C323.835 40.9498 324.022 41.7116 324.392 42.4164C324.763 43.1251 325.269 43.7479 325.915 44.2852C326.561 44.8252 327.306 45.2507 328.155 45.5617C329.005 45.8734 329.918 46.028 330.898 46.028H332.046C332.38 46.028 332.721 46.0344 333.068 46.0454C333.414 46.0584 333.72 46.0881 333.983 46.136Z" fill="#ffffff"/>
<path d="M333.983 46.136C334.89 46.2802 335.731 46.544 336.51 46.9262C337.286 47.3103 337.955 47.7901 338.518 48.3637C339.078 48.9385 339.522 49.5917 339.844 50.323C340.166 51.0531 340.328 51.8258 340.328 52.64C340.328 53.5498 340.125 54.4066 339.717 55.2085C339.313 56.011 338.75 56.7061 338.034 57.292C337.315 57.8798 336.478 58.3473 335.524 58.6939C334.566 59.0412 333.539 59.2151 332.439 59.2151H330.072C328.996 59.2151 327.981 59.0412 327.024 58.6939C326.067 58.3473 325.23 57.8798 324.514 57.292C323.797 56.7061 323.228 56.011 322.812 55.2085C322.392 54.4066 322.183 53.5498 322.183 52.64V52.4964H323.009V52.64C323.009 53.4541 323.195 54.2139 323.565 54.9214C323.937 55.6281 324.443 56.2502 325.089 56.7902C325.735 57.3288 326.48 57.7543 327.329 58.0641C328.178 58.3771 329.092 58.5316 330.072 58.5316H332.439C333.418 58.5316 334.338 58.3771 335.2 58.0641C336.059 57.7543 336.807 57.3288 337.44 56.7902C338.073 56.2502 338.576 55.6281 338.945 54.9214C339.317 54.2139 339.501 53.4541 339.501 52.64C339.501 51.8258 339.317 51.0583 338.945 50.3392C338.576 49.6208 338.073 48.9929 337.44 48.4542C336.807 47.9142 336.059 47.49 335.2 47.1777C334.338 46.8673 333.418 46.7115 332.439 46.7115C331.434 46.76 330.593 46.7412 329.912 46.6578C329.229 46.5731 328.674 46.4716 328.245 46.3519C327.743 46.2323 327.325 46.0881 326.989 45.9213C325.747 45.1783 324.773 44.3389 324.068 43.4045C323.362 42.4707 323.009 41.3818 323.009 40.1363C323.009 39.2252 323.219 38.3697 323.636 37.5672C324.055 36.764 324.621 36.0637 325.34 35.4649C326.056 34.8661 326.893 34.3934 327.851 34.0455C328.805 33.6989 329.821 33.5243 330.896 33.5243H331.614C332.665 33.5243 333.657 33.6866 334.589 34.01C335.522 34.3333 336.34 34.7762 337.045 35.3388C337.752 35.9021 338.324 36.5675 338.766 37.3331C339.209 38.1 339.454 38.9142 339.501 39.7761H338.676C338.628 39.0099 338.405 38.2856 338.011 37.6027C337.614 36.9199 337.106 36.3276 336.483 35.8245C335.86 35.3207 335.129 34.9263 334.293 34.6385C333.454 34.3507 332.567 34.2078 331.633 34.2078H330.914C329.932 34.2078 329.015 34.363 328.166 34.6741C327.315 34.9864 326.567 35.4112 325.919 35.9499C325.274 36.4886 324.763 37.1178 324.394 37.8362C324.022 38.5546 323.835 39.3215 323.835 40.1363C323.835 40.9498 324.022 41.7116 324.392 42.4164C324.763 43.1251 325.269 43.7479 325.915 44.2852C326.561 44.8252 327.306 45.2507 328.155 45.5617C329.005 45.8734 329.918 46.028 330.898 46.028H332.046C332.38 46.028 332.721 46.0344 333.068 46.0454C333.414 46.0584 333.72 46.0881 333.983 46.136Z" stroke="#ffffff" stroke-width="0.323325" stroke-miterlimit="10"/>
<path d="M344.64 34.2072V46.0273H355.957V46.7108H344.64V58.531H360.126V59.2145H343.956V33.5237H360.126V34.2072H344.64Z" fill="#ffffff" stroke="#ffffff" stroke-width="0.323325" stroke-miterlimit="10"/>
<path d="M366.807 45.5617L364.401 47.9686V59.2145H363.718V33.5243H364.401V46.9986L377.873 33.5243H378.88L367.309 45.0948L381.431 59.2145H380.46L366.807 45.5617Z" fill="#ffffff" stroke="#ffffff" stroke-width="0.323325" stroke-miterlimit="10"/>
<path d="M403.636 34.2072H394.652V59.2145H393.969V34.2072H385.023V33.5237H403.636V34.2072Z" fill="#ffffff" stroke="#ffffff" stroke-width="0.323325" stroke-miterlimit="10"/>
<path d="M412.69 34.2072V58.531H417.469V59.2145H407.228V58.531H412.007V34.2072H407.228V33.5237H417.469V34.2072H412.69Z" fill="#ffffff" stroke="#ffffff" stroke-width="0.323325" stroke-miterlimit="10"/>
<path d="M431.051 34.2072C429.374 34.2072 427.798 34.5247 426.325 35.1591C424.852 35.7941 423.565 36.6625 422.462 37.7638C421.362 38.8663 420.492 40.1596 419.858 41.6443C419.223 43.131 418.906 44.7101 418.906 46.3882C418.906 48.0643 419.223 49.6389 419.858 51.1126C420.492 52.585 421.362 53.8731 422.462 54.9744C423.565 56.0756 424.852 56.9447 426.325 57.5797C427.798 58.2148 429.374 58.531 431.051 58.531C432.727 58.531 434.302 58.2148 435.774 57.5797C437.249 56.9447 438.535 56.0756 439.638 54.9744C440.738 53.8731 441.608 52.585 442.241 51.1126C442.876 49.6389 443.194 48.0643 443.194 46.3882C443.194 44.7101 442.876 43.131 442.241 41.6443C441.608 40.1596 440.738 38.8663 439.638 37.7638C438.535 36.6625 437.249 35.7941 435.774 35.1591C434.302 34.5247 432.727 34.2072 431.051 34.2072ZM431.051 59.2145C429.278 59.2145 427.613 58.8789 426.056 58.2083C424.499 57.5377 423.139 56.6208 421.979 55.4594C420.816 54.298 419.9 52.9381 419.23 51.3809C418.559 49.8245 418.223 48.1613 418.223 46.3882C418.223 44.615 418.559 42.9441 419.23 41.3753C419.9 39.8065 420.816 38.4408 421.979 37.2788C423.139 36.1174 424.499 35.2011 426.056 34.5305C427.613 33.8599 429.278 33.5237 431.051 33.5237C432.822 33.5237 434.487 33.8599 436.044 34.5305C437.602 35.2011 438.961 36.1174 440.122 37.2788C441.284 38.4408 442.2 39.8065 442.871 41.3753C443.541 42.9441 443.877 44.615 443.877 46.3882C443.877 48.1613 443.541 49.8245 442.871 51.3809C442.2 52.9381 441.284 54.298 440.122 55.4594C438.961 56.6208 437.602 57.5377 436.044 58.2083C434.487 58.8789 432.822 59.2145 431.051 59.2145Z" fill="#ffffff"/>
<path d="M431.051 34.2072C429.374 34.2072 427.798 34.5247 426.325 35.1591C424.852 35.7941 423.565 36.6625 422.462 37.7638C421.362 38.8663 420.492 40.1596 419.858 41.6443C419.223 43.131 418.906 44.7101 418.906 46.3882C418.906 48.0643 419.223 49.6389 419.858 51.1126C420.492 52.585 421.362 53.8731 422.462 54.9744C423.565 56.0756 424.852 56.9447 426.325 57.5797C427.798 58.2148 429.374 58.531 431.051 58.531C432.727 58.531 434.302 58.2148 435.774 57.5797C437.249 56.9447 438.535 56.0756 439.638 54.9744C440.738 53.8731 441.608 52.585 442.241 51.1126C442.876 49.6389 443.194 48.0643 443.194 46.3882C443.194 44.7101 442.876 43.131 442.241 41.6443C441.608 40.1596 440.738 38.8663 439.638 37.7638C438.535 36.6625 437.249 35.7941 435.774 35.1591C434.302 34.5247 432.727 34.2072 431.051 34.2072ZM431.051 59.2145C429.278 59.2145 427.613 58.8789 426.056 58.2083C424.499 57.5377 423.139 56.6208 421.979 55.4594C420.816 54.298 419.9 52.9381 419.23 51.3809C418.559 49.8245 418.223 48.1613 418.223 46.3882C418.223 44.615 418.559 42.9441 419.23 41.3753C419.9 39.8065 420.816 38.4408 421.979 37.2788C423.139 36.1174 424.499 35.2011 426.056 34.5305C427.613 33.8599 429.278 33.5237 431.051 33.5237C432.822 33.5237 434.487 33.8599 436.044 34.5305C437.602 35.2011 438.961 36.1174 440.122 37.2788C441.284 38.4408 442.2 39.8065 442.871 41.3753C443.541 42.9441 443.877 44.615 443.877 46.3882C443.877 48.1613 443.541 49.8245 442.871 51.3809C442.2 52.9381 441.284 54.298 440.122 55.4594C438.961 56.6208 437.602 57.5377 436.044 58.2083C434.487 58.8789 432.822 59.2145 431.051 59.2145Z" stroke="#ffffff" stroke-width="0.323325" stroke-miterlimit="10"/>
<path d="M468.021 33.5243V59.2151H467.303L448.152 34.7465V59.2151H447.469V33.5243H448.152L467.303 58.0298V33.5243H468.021Z" fill="#ffffff" stroke="#ffffff" stroke-width="0.323325" stroke-miterlimit="10"/>
<path d="M472.298 34.2072V46.0273H483.617V46.7108H472.298V58.531H487.784V59.2145H471.615V33.5237H487.784V34.2072H472.298Z" fill="#ffffff" stroke="#ffffff" stroke-width="0.323325" stroke-miterlimit="10"/>
<path d="M511.928 33.5243V59.2151H511.209L492.059 34.7465V59.2151H491.376V33.5243H492.059L511.209 58.0298V33.5243H511.928Z" fill="#ffffff" stroke="#ffffff" stroke-width="0.323325" stroke-miterlimit="10"/>
<path d="M22.087 59.0263H15.1232V65.8064H22.087V59.0263Z" fill="#1F427C"/>
<path d="M37.2096 59.0263H30.2458V65.8064H37.2096V59.0263Z" fill="#70BE44"/>
<path d="M44.7702 59.0263H37.8097V65.8064H44.7702V59.0263Z" fill="#E53B8E"/>
<path d="M37.8097 51.6486H44.7703V58.4275H37.8097V51.6486Z" fill="#F7E718"/>
<path d="M37.8097 44.2697H44.7703V51.0498H37.8097V44.2697Z" fill="#754122"/>
<path d="M44.7702 22.1355H37.8097V28.915H44.7702V22.1355Z" fill="#754122"/>
<path d="M30.2458 44.2697H37.2096V51.0498H30.2458V44.2697Z" fill="#1F427C"/>
<path d="M22.6852 51.6486H29.647V58.4275H22.6852V51.6486Z" fill="#754122"/>
<path d="M29.647 29.5132H22.6851V36.292H29.647V29.5132Z" fill="#754122"/>
<path d="M44.7702 14.7572H37.8097V21.536H44.7702V14.7572Z" fill="#F7E718"/>
<path d="M52.3341 14.7572H45.3697V21.536H52.3341V14.7572Z" fill="#E53B8E"/>
<path d="M52.9329 7.37894H59.8948V14.1578H52.9329V7.37894Z" fill="#70BE44"/>
<path d="M15.1226 36.8914H22.0864V43.6716H15.1226V36.8914Z" fill="#1F427C"/>
<path d="M22.6852 36.8914H29.647V43.6716H22.6852V36.8914Z" fill="#70BE44"/>
<path d="M14.5244 59.0263H7.56195V65.8064H14.5244V59.0263Z" fill="#754122"/>
<path d="M14.5244 44.2697H7.56195V51.0498H14.5244V44.2697Z" fill="#F7E718"/>
<path d="M22.087 22.1355H15.1232V28.915H22.087V22.1355Z" fill="#F7E718"/>
<path d="M22.6852 14.7572H29.647V21.536H22.6852V14.7572Z" fill="#1F427C"/>
<path d="M6.96314 29.5132H0V36.292H6.96314V29.5132Z" fill="#E53B8E"/>
<path d="M44.7702 0H37.8097V6.78013H44.7702V0Z" fill="#754122"/>
<path d="M75.018 0H68.0549V6.78013H75.018V0Z" fill="#E53B8E"/>
<path d="M29.647 66.4059H22.6851V73.1841H29.647V66.4059Z" fill="#F7E718"/>
<path d="M6.96314 66.4059H0V73.1841H6.96314V66.4059Z" fill="#70BE44"/>
<path d="M37.2096 73.7835H30.2458V80.5643H37.2096V73.7835Z" fill="#1F427C"/>
<path d="M22.6852 44.2697H29.647V51.0498H22.6852V44.2697Z" fill="#E53B8E"/>
<path d="M44.7715 36.8914H37.8097V43.6716H44.7715V36.8914Z" fill="#E53B8E"/>
<path d="M15.1226 51.6486H22.0864V58.4275H15.1226V51.6486Z" fill="#70BE44"/>
<path d="M52.3341 66.4059H45.3697V73.1841H52.3341V66.4059Z" fill="#754122"/>
<path d="M332.513 80.9762V81.2594H325.772V70.6194H326.054V80.9762H332.513Z" fill="#ffffff" stroke="#ffffff" stroke-width="0.323325" stroke-miterlimit="10"/>
<path d="M336.262 70.902V80.9762H338.242V81.2601H334V80.9762H335.98V70.902H334V70.6194H338.242V70.902H336.262Z" fill="#ffffff" stroke="#ffffff" stroke-width="0.323325" stroke-miterlimit="10"/>
<path d="M348.244 70.6201V81.2601H347.945L340.014 71.1251V81.2601H339.73V70.6201H340.014L347.945 80.7686V70.6201H348.244Z" fill="#ffffff" stroke="#ffffff" stroke-width="0.323325" stroke-miterlimit="10"/>
<path d="M351.011 75.6058L350.013 76.6023V81.2601H349.731V70.6201H350.013V76.2007L355.594 70.6201H356.011L351.219 75.4118L357.068 81.2601H356.666L351.011 75.6058Z" fill="#ffffff" stroke="#ffffff" stroke-width="0.323325" stroke-miterlimit="10"/>
<path d="M364.642 69.1988C364.563 69.2738 364.523 69.3649 364.523 69.4742C364.523 69.5829 364.563 69.6773 364.642 69.7575C364.721 69.8357 364.817 69.8758 364.925 69.8758C365.034 69.8758 365.128 69.8357 365.207 69.7575C365.287 69.6773 365.327 69.5829 365.327 69.4742C365.327 69.3649 365.287 69.2738 365.207 69.1988C365.128 69.1244 365.034 69.0869 364.925 69.0869C364.817 69.0869 364.721 69.1244 364.642 69.1988ZM362.454 69.1988C362.374 69.2738 362.335 69.3649 362.335 69.4742C362.335 69.5829 362.374 69.6773 362.454 69.7575C362.533 69.8357 362.628 69.8758 362.737 69.8758C362.846 69.8758 362.94 69.8357 363.02 69.7575C363.099 69.6773 363.138 69.5829 363.138 69.4742C363.138 69.3649 363.099 69.2738 363.02 69.1988C362.94 69.1244 362.846 69.0869 362.737 69.0869C362.628 69.0869 362.533 69.1244 362.454 69.1988ZM361.911 71.2965C361.301 71.559 360.768 71.9199 360.312 72.3751C359.855 72.8323 359.495 73.3677 359.233 73.982C358.97 74.5989 358.838 75.2527 358.838 75.9478C358.838 76.6417 358.97 77.2942 359.233 77.904C359.495 78.5144 359.855 79.0479 360.312 79.5051C360.768 79.961 361.301 80.3205 361.911 80.5824C362.522 80.8462 363.173 80.9769 363.869 80.9769C364.563 80.9769 365.215 80.8462 365.825 80.5824C366.435 80.3205 366.969 79.961 367.425 79.5051C367.882 79.0479 368.241 78.5144 368.504 77.904C368.767 77.2942 368.899 76.6417 368.899 75.9478C368.899 75.2527 368.767 74.5989 368.504 73.982C368.241 73.3677 367.882 72.8323 367.425 72.3751C366.969 71.9199 366.435 71.559 365.825 71.2965C365.215 71.0339 364.563 70.9027 363.869 70.9027C363.173 70.9027 362.522 71.0339 361.911 71.2965ZM361.799 80.8443C361.155 80.5656 360.592 80.1854 360.11 79.7049C359.628 79.2244 359.25 78.6612 358.971 78.0165C358.695 77.3705 358.556 76.6812 358.556 75.9478C358.556 75.2139 358.695 74.522 358.971 73.8715C359.25 73.2229 359.628 72.6557 360.11 72.1753C360.592 71.6942 361.155 71.3139 361.799 71.0365C362.445 70.7578 363.135 70.6201 363.869 70.6201C364.602 70.6201 365.292 70.7578 365.937 71.0365C366.582 71.3139 367.144 71.6942 367.626 72.1753C368.107 72.6557 368.486 73.2229 368.764 73.8715C369.042 74.522 369.181 75.2139 369.181 75.9478C369.181 76.6812 369.042 77.3705 368.764 78.0165C368.486 78.6612 368.107 79.2244 367.626 79.7049C367.144 80.1854 366.582 80.5656 365.937 80.8443C365.292 81.1217 364.602 81.2601 363.869 81.2601C363.135 81.2601 362.445 81.1217 361.799 80.8443Z" fill="#ffffff"/>
<path d="M364.642 69.1988C364.563 69.2738 364.523 69.3649 364.523 69.4742C364.523 69.5829 364.563 69.6773 364.642 69.7575C364.721 69.8357 364.817 69.8758 364.925 69.8758C365.034 69.8758 365.128 69.8357 365.207 69.7575C365.287 69.6773 365.327 69.5829 365.327 69.4742C365.327 69.3649 365.287 69.2738 365.207 69.1988C365.128 69.1244 365.034 69.0869 364.925 69.0869C364.817 69.0869 364.721 69.1244 364.642 69.1988ZM362.454 69.1988C362.374 69.2738 362.335 69.3649 362.335 69.4742C362.335 69.5829 362.374 69.6773 362.454 69.7575C362.533 69.8357 362.628 69.8758 362.737 69.8758C362.846 69.8758 362.94 69.8357 363.02 69.7575C363.099 69.6773 363.138 69.5829 363.138 69.4742C363.138 69.3649 363.099 69.2738 363.02 69.1988C362.94 69.1244 362.846 69.0869 362.737 69.0869C362.628 69.0869 362.533 69.1244 362.454 69.1988ZM361.911 71.2965C361.301 71.559 360.768 71.9199 360.312 72.3751C359.855 72.8323 359.495 73.3677 359.233 73.982C358.97 74.5989 358.838 75.2527 358.838 75.9478C358.838 76.6417 358.97 77.2942 359.233 77.904C359.495 78.5144 359.855 79.0479 360.312 79.5051C360.768 79.961 361.301 80.3205 361.911 80.5824C362.522 80.8462 363.173 80.9769 363.869 80.9769C364.563 80.9769 365.215 80.8462 365.825 80.5824C366.435 80.3205 366.969 79.961 367.425 79.5051C367.882 79.0479 368.241 78.5144 368.504 77.904C368.767 77.2942 368.899 76.6417 368.899 75.9478C368.899 75.2527 368.767 74.5989 368.504 73.982C368.241 73.3677 367.882 72.8323 367.425 72.3751C366.969 71.9199 366.435 71.559 365.825 71.2965C365.215 71.0339 364.563 70.9027 363.869 70.9027C363.173 70.9027 362.522 71.0339 361.911 71.2965ZM361.799 80.8443C361.155 80.5656 360.592 80.1854 360.11 79.7049C359.628 79.2244 359.25 78.6612 358.971 78.0165C358.695 77.3705 358.556 76.6812 358.556 75.9478C358.556 75.2139 358.695 74.522 358.971 73.8715C359.25 73.2229 359.628 72.6557 360.11 72.1753C360.592 71.6942 361.155 71.3139 361.799 71.0365C362.445 70.7578 363.135 70.6201 363.869 70.6201C364.602 70.6201 365.292 70.7578 365.937 71.0365C366.582 71.3139 367.144 71.6942 367.626 72.1753C368.107 72.6557 368.486 73.2229 368.764 73.8715C369.042 74.522 369.181 75.2139 369.181 75.9478C369.181 76.6812 369.042 77.3705 368.764 78.0165C368.486 78.6612 368.107 79.2244 367.626 79.7049C367.144 80.1854 366.582 80.5656 365.937 80.8443C365.292 81.1217 364.602 81.2601 363.869 81.2601C363.135 81.2601 362.445 81.1217 361.799 80.8443Z" stroke="#ffffff" stroke-width="0.323325" stroke-miterlimit="10"/>
<path d="M370.952 75.7991H374.956C375.294 75.7991 375.608 75.7344 375.9 75.6058C376.193 75.4758 376.448 75.3005 376.667 75.0768C376.886 74.8544 377.059 74.5957 377.188 74.3034C377.317 74.0098 377.382 73.6956 377.382 73.3574C377.382 73.0211 377.317 72.7036 377.188 72.4055C377.059 72.1074 376.886 71.8481 376.667 71.6237C376.448 71.4012 376.193 71.2254 375.9 71.0967C375.608 70.9673 375.294 70.9027 374.956 70.9027H370.952V75.7991ZM370.669 81.2601V70.6201H374.956C375.332 70.6201 375.687 70.6919 376.02 70.8348C376.353 70.9803 376.64 71.1756 376.883 71.4232C377.125 71.6715 377.32 71.9619 377.462 72.2943C377.607 72.6266 377.678 72.9817 377.678 73.3574C377.678 73.7357 377.607 74.09 377.462 74.4224C377.32 74.7548 377.125 75.0419 376.883 75.285C376.64 75.5288 376.353 75.7222 376.02 75.8657C375.687 76.0093 375.332 76.0817 374.956 76.0817H370.952V81.2601H370.669Z" fill="#ffffff" stroke="#ffffff" stroke-width="0.323325" stroke-miterlimit="10"/>
<path d="M380.73 70.902V80.9762H382.709V81.2601H378.468V80.9762H380.447V70.902H378.468V70.6194H382.709V70.902H380.73Z" fill="#ffffff" stroke="#ffffff" stroke-width="0.323325" stroke-miterlimit="10"/>
<path d="M392.709 70.6201V81.2601H392.411L384.479 71.1251V81.2601H384.197V70.6201H384.479L392.411 80.7686V70.6201H392.709Z" fill="#ffffff" stroke="#ffffff" stroke-width="0.323325" stroke-miterlimit="10"/>
<path d="M404.734 76.8991C404.625 77.5244 404.411 78.1031 404.093 78.6327C403.776 79.1643 403.387 79.6234 402.926 80.0107C402.465 80.3974 401.944 80.7027 401.363 80.9251C400.783 81.1489 400.166 81.2601 399.511 81.2601C398.777 81.2601 398.086 81.1217 397.442 80.8443C396.797 80.5656 396.234 80.1853 395.752 79.7049C395.271 79.2244 394.892 78.6612 394.614 78.0165C394.337 77.3705 394.198 76.6811 394.198 75.9472C394.198 75.2139 394.337 74.522 394.614 73.8708C394.892 73.2222 395.271 72.6557 395.752 72.1746C396.234 71.6942 396.797 71.3139 397.442 71.0365C398.086 70.7578 398.777 70.6201 399.511 70.6201C400.166 70.6201 400.783 70.7307 401.363 70.9557C401.944 71.1769 402.465 71.4847 402.926 71.8765C403.387 72.2697 403.776 72.7301 404.093 73.2617C404.411 73.7919 404.625 74.3642 404.734 74.9798H404.452C404.342 74.4049 404.136 73.8663 403.833 73.3658C403.531 72.8653 403.161 72.4333 402.726 72.0699C402.289 71.709 401.795 71.4232 401.244 71.2144C400.694 71.0074 400.115 70.9027 399.511 70.9027C398.816 70.9027 398.164 71.0339 397.554 71.2965C396.943 71.559 396.41 71.9199 395.954 72.3751C395.498 72.8323 395.137 73.3677 394.874 73.982C394.612 74.5983 394.48 75.2527 394.48 75.9472C394.48 76.6417 394.612 77.2935 394.874 77.904C395.137 78.5144 395.498 79.0479 395.954 79.5044C396.41 79.9603 396.943 80.3205 397.554 80.5817C398.164 80.8462 398.816 80.9768 399.511 80.9768C400.096 80.9768 400.653 80.8831 401.185 80.6943C401.715 80.5061 402.194 80.2442 402.62 79.9053C403.047 79.5691 403.414 79.1662 403.722 78.7C404.029 78.2338 404.253 77.7274 404.392 77.1823H399.809V76.8991H404.734Z" fill="#ffffff" stroke="#ffffff" stroke-width="0.323325" stroke-miterlimit="10"/>
<path d="M411.109 75.8424C411.485 75.9026 411.834 76.0125 412.155 76.1703C412.477 76.3294 412.755 76.5279 412.987 76.7665C413.22 77.0038 413.403 77.2748 413.537 77.5774C413.67 77.8787 413.737 78.1988 413.737 78.537C413.737 78.914 413.654 79.2677 413.484 79.6001C413.316 79.9332 413.084 80.2209 412.787 80.4634C412.49 80.7065 412.144 80.8992 411.747 81.0441C411.351 81.1883 410.925 81.2601 410.47 81.2601H409.49C409.044 81.2601 408.623 81.1883 408.227 81.0441C407.831 80.8992 407.484 80.7065 407.188 80.4634C406.891 80.2209 406.655 79.9332 406.482 79.6001C406.308 79.2677 406.222 78.914 406.222 78.537V78.4769H406.565V78.537C406.565 78.8733 406.641 79.1889 406.794 79.4818C406.947 79.7747 407.159 80.0321 407.425 80.2558C407.693 80.4783 408.002 80.6542 408.353 80.7835C408.705 80.9122 409.084 80.9762 409.49 80.9762H410.47C410.876 80.9762 411.257 80.9122 411.613 80.7835C411.97 80.6542 412.279 80.4783 412.541 80.2558C412.803 80.0321 413.011 79.7747 413.165 79.4818C413.318 79.1889 413.395 78.8733 413.395 78.537C413.395 78.1988 413.318 77.8807 413.165 77.5839C413.011 77.2871 412.803 77.0258 412.541 76.8034C412.279 76.5796 411.97 76.4037 411.613 76.2744C411.257 76.1457 410.876 76.0811 410.47 76.0811C410.054 76.1017 409.704 76.0933 409.422 76.0584C409.14 76.0235 408.911 75.9815 408.732 75.9317C408.524 75.8825 408.351 75.8237 408.213 75.7526C407.699 75.446 407.294 75.0994 407.002 74.7121C406.71 74.3241 406.565 73.874 406.565 73.3567C406.565 72.981 406.65 72.626 406.824 72.2943C406.998 71.9619 407.232 71.6715 407.53 71.4232C407.827 71.1749 408.173 70.9796 408.569 70.8348C408.965 70.6912 409.386 70.6201 409.831 70.6201H410.128C410.563 70.6201 410.974 70.6867 411.36 70.8199C411.747 70.9551 412.086 71.1381 412.378 71.3702C412.669 71.6049 412.907 71.8791 413.09 72.1966C413.274 72.5148 413.375 72.8517 413.395 73.2086H413.053C413.033 72.8924 412.942 72.5911 412.777 72.3085C412.613 72.0266 412.403 71.7802 412.146 71.572C411.887 71.3637 411.584 71.1995 411.237 71.0805C410.89 70.9609 410.523 70.902 410.135 70.902H409.838C409.432 70.902 409.051 70.9673 408.7 71.096C408.348 71.2247 408.037 71.4012 407.77 71.6237C407.502 71.8474 407.291 72.1074 407.137 72.4055C406.983 72.7036 406.906 73.0211 406.906 73.3567C406.906 73.6956 406.983 74.0098 407.136 74.3028C407.29 74.595 407.501 74.8544 407.768 75.0762C408.035 75.3005 408.344 75.4758 408.696 75.6058C409.047 75.7344 409.425 75.7991 409.832 75.7991H410.307C410.446 75.7991 410.586 75.8011 410.73 75.8056C410.874 75.8108 411 75.8237 411.109 75.8424Z" fill="#ffffff"/>
<path d="M411.109 75.8424C411.485 75.9026 411.834 76.0125 412.155 76.1703C412.477 76.3294 412.755 76.5279 412.987 76.7665C413.22 77.0038 413.403 77.2748 413.537 77.5774C413.67 77.8787 413.737 78.1988 413.737 78.537C413.737 78.914 413.654 79.2677 413.484 79.6001C413.316 79.9332 413.084 80.2209 412.787 80.4634C412.49 80.7065 412.144 80.8992 411.747 81.0441C411.351 81.1883 410.925 81.2601 410.47 81.2601H409.49C409.044 81.2601 408.623 81.1883 408.227 81.0441C407.831 80.8992 407.484 80.7065 407.188 80.4634C406.891 80.2209 406.655 79.9332 406.482 79.6001C406.308 79.2677 406.222 78.914 406.222 78.537V78.4769H406.565V78.537C406.565 78.8733 406.641 79.1889 406.794 79.4818C406.947 79.7747 407.159 80.0321 407.425 80.2558C407.693 80.4783 408.002 80.6542 408.353 80.7835C408.705 80.9122 409.084 80.9762 409.49 80.9762H410.47C410.876 80.9762 411.257 80.9122 411.613 80.7835C411.97 80.6542 412.279 80.4783 412.541 80.2558C412.803 80.0321 413.011 79.7747 413.165 79.4818C413.318 79.1889 413.395 78.8733 413.395 78.537C413.395 78.1988 413.318 77.8807 413.165 77.5839C413.011 77.2871 412.803 77.0258 412.541 76.8034C412.279 76.5796 411.97 76.4037 411.613 76.2744C411.257 76.1457 410.876 76.0811 410.47 76.0811C410.054 76.1017 409.704 76.0933 409.422 76.0584C409.14 76.0235 408.911 75.9815 408.732 75.9317C408.524 75.8825 408.351 75.8237 408.213 75.7526C407.699 75.446 407.294 75.0994 407.002 74.7121C406.71 74.3241 406.565 73.874 406.565 73.3567C406.565 72.981 406.65 72.626 406.824 72.2943C406.998 71.9619 407.232 71.6715 407.53 71.4232C407.827 71.1749 408.173 70.9796 408.569 70.8348C408.965 70.6912 409.386 70.6201 409.831 70.6201H410.128C410.563 70.6201 410.974 70.6867 411.36 70.8199C411.747 70.9551 412.086 71.1381 412.378 71.3702C412.669 71.6049 412.907 71.8791 413.09 72.1966C413.274 72.5148 413.375 72.8517 413.395 73.2086H413.053C413.033 72.8924 412.942 72.5911 412.777 72.3085C412.613 72.0266 412.403 71.7802 412.146 71.572C411.887 71.3637 411.584 71.1995 411.237 71.0805C410.89 70.9609 410.523 70.902 410.135 70.902H409.838C409.432 70.902 409.051 70.9673 408.7 71.096C408.348 71.2247 408.037 71.4012 407.77 71.6237C407.502 71.8474 407.291 72.1074 407.137 72.4055C406.983 72.7036 406.906 73.0211 406.906 73.3567C406.906 73.6956 406.983 74.0098 407.136 74.3028C407.29 74.595 407.501 74.8544 407.768 75.0762C408.035 75.3005 408.344 75.4758 408.696 75.6058C409.047 75.7344 409.425 75.7991 409.832 75.7991H410.307C410.446 75.7991 410.586 75.8011 410.73 75.8056C410.874 75.8108 411 75.8237 411.109 75.8424Z" stroke="#ffffff" stroke-width="0.323325" stroke-miterlimit="10"/>
<path d="M428.499 70.6201V77.1668C428.499 77.7339 428.393 78.2641 428.18 78.7595C427.966 79.2555 427.674 79.6894 427.301 80.0625C426.929 80.435 426.495 80.7279 425.999 80.9406C425.503 81.1534 424.973 81.2601 424.407 81.2601C423.842 81.2601 423.311 81.1534 422.814 80.9406C422.317 80.7279 421.884 80.435 421.512 80.0625C421.14 79.6894 420.848 79.2555 420.634 78.7595C420.421 78.2641 420.315 77.7339 420.315 77.1668V70.6201H420.597V77.1668C420.597 77.6938 420.697 78.1859 420.895 78.6483C421.093 79.11 421.366 79.5141 421.714 79.862C422.061 80.2086 422.465 80.4815 422.927 80.68C423.388 80.8779 423.881 80.9768 424.407 80.9768C424.932 80.9768 425.426 80.8779 425.888 80.68C426.349 80.4815 426.754 80.2086 427.101 79.862C427.448 79.5141 427.72 79.11 427.92 78.6483C428.117 78.1859 428.217 77.6938 428.217 77.1668H428.202V70.6201H428.499Z" fill="#ffffff" stroke="#ffffff" stroke-width="0.323325" stroke-miterlimit="10"/>
<path d="M438.5 70.6201V81.2601H438.202L430.27 71.1251V81.2601H429.989V70.6201H430.27L438.202 80.7686V70.6201H438.5Z" fill="#ffffff" stroke="#ffffff" stroke-width="0.323325" stroke-miterlimit="10"/>
<path d="M442.25 70.902V80.9762H444.23V81.2601H439.988V80.9762H441.968V70.902H439.988V70.6194H444.23V70.902H442.25Z" fill="#ffffff" stroke="#ffffff" stroke-width="0.323325" stroke-miterlimit="10"/>
<path d="M446 70.6201L450.212 80.8876L454.349 70.6201H454.632L450.346 81.2601H450.063L445.718 70.6201H446Z" fill="#ffffff" stroke="#ffffff" stroke-width="0.323325" stroke-miterlimit="10"/>
<path d="M456.402 70.902V75.7985H461.09V76.0811H456.402V80.9762H462.816V81.2601H456.119V70.6194H462.816V70.902H456.402Z" fill="#ffffff" stroke="#ffffff" stroke-width="0.323325" stroke-miterlimit="10"/>
<path d="M464.588 75.7991H468.413C468.75 75.7991 469.065 75.7344 469.357 75.6058C469.65 75.4758 469.909 75.3005 470.131 75.0768C470.355 74.8544 470.53 74.5957 470.659 74.3034C470.789 74.0098 470.853 73.6956 470.853 73.3574C470.853 73.0211 470.789 72.7036 470.659 72.4055C470.53 72.1074 470.355 71.8481 470.131 71.6237C469.909 71.4012 469.65 71.2254 469.357 71.0967C469.065 70.9673 468.75 70.9027 468.413 70.9027H464.588V75.7991ZM465.317 76.0817L471.136 81.2601H470.734L464.915 76.0817H464.588V81.2601H464.305V70.6201H468.413C468.79 70.6201 469.143 70.6919 469.477 70.8348C469.809 70.9803 470.096 71.1756 470.34 71.4232C470.583 71.6715 470.776 71.9619 470.92 72.2943C471.064 72.6266 471.136 72.9817 471.136 73.3574C471.136 73.7357 471.064 74.09 470.92 74.4224C470.776 74.7548 470.583 75.0419 470.34 75.285C470.096 75.5288 469.809 75.7222 469.477 75.8657C469.143 76.0093 468.79 76.0817 468.413 76.0817H465.317Z" fill="#ffffff" stroke="#ffffff" stroke-width="0.323325" stroke-miterlimit="10"/>
<path d="M477.511 75.8424C477.887 75.9026 478.236 76.0125 478.557 76.1703C478.879 76.3294 479.157 76.5279 479.389 76.7665C479.622 77.0038 479.805 77.2748 479.939 77.5774C480.072 77.8787 480.14 78.1988 480.14 78.537C480.14 78.914 480.055 79.2677 479.886 79.6001C479.718 79.9332 479.486 80.2209 479.189 80.4634C478.892 80.7065 478.546 80.8992 478.149 81.0441C477.753 81.1883 477.327 81.2601 476.872 81.2601H475.892C475.446 81.2601 475.025 81.1883 474.629 81.0441C474.233 80.8992 473.886 80.7065 473.59 80.4634C473.293 80.2209 473.057 79.9332 472.883 79.6001C472.71 79.2677 472.624 78.914 472.624 78.537V78.4769H472.967V78.537C472.967 78.8733 473.043 79.1889 473.196 79.4818C473.349 79.7747 473.561 80.0321 473.827 80.2558C474.095 80.4783 474.404 80.6542 474.755 80.7835C475.107 80.9122 475.486 80.9762 475.892 80.9762H476.872C477.277 80.9762 477.659 80.9122 478.015 80.7835C478.372 80.6542 478.681 80.4783 478.943 80.2558C479.205 80.0321 479.413 79.7747 479.567 79.4818C479.72 79.1889 479.797 78.8733 479.797 78.537C479.797 78.1988 479.72 77.8807 479.567 77.5839C479.413 77.2871 479.205 77.0258 478.943 76.8034C478.681 76.5796 478.372 76.4037 478.015 76.2744C477.659 76.1457 477.277 76.0811 476.872 76.0811C476.456 76.1017 476.106 76.0933 475.824 76.0584C475.542 76.0235 475.313 75.9815 475.134 75.9317C474.926 75.8825 474.753 75.8237 474.615 75.7526C474.1 75.446 473.696 75.0994 473.404 74.7121C473.112 74.3241 472.967 73.874 472.967 73.3567C472.967 72.981 473.052 72.626 473.226 72.2943C473.4 71.9619 473.634 71.6715 473.932 71.4232C474.229 71.1749 474.574 70.9796 474.971 70.8348C475.367 70.6912 475.788 70.6201 476.233 70.6201H476.53C476.965 70.6201 477.376 70.6867 477.762 70.8199C478.149 70.9551 478.488 71.1381 478.78 71.3702C479.071 71.6049 479.309 71.8791 479.492 72.1966C479.676 72.5148 479.777 72.8517 479.797 73.2086H479.455C479.435 72.8924 479.344 72.5911 479.179 72.3085C479.015 72.0266 478.805 71.7802 478.548 71.572C478.289 71.3637 477.986 71.1995 477.639 71.0805C477.292 70.9609 476.925 70.902 476.537 70.902H476.24C475.834 70.902 475.453 70.9673 475.102 71.096C474.75 71.2247 474.439 71.4012 474.172 71.6237C473.904 71.8474 473.693 72.1074 473.539 72.4055C473.385 72.7036 473.308 73.0211 473.308 73.3567C473.308 73.6956 473.385 74.0098 473.538 74.3028C473.692 74.595 473.903 74.8544 474.17 75.0762C474.437 75.3005 474.746 75.4758 475.098 75.6058C475.449 75.7344 475.827 75.7991 476.234 75.7991H476.709C476.848 75.7991 476.988 75.8011 477.132 75.8056C477.276 75.8108 477.402 75.8237 477.511 75.8424Z" fill="#ffffff"/>
<path d="M477.511 75.8424C477.887 75.9026 478.236 76.0125 478.557 76.1703C478.879 76.3294 479.157 76.5279 479.389 76.7665C479.622 77.0038 479.805 77.2748 479.939 77.5774C480.072 77.8787 480.14 78.1988 480.14 78.537C480.14 78.914 480.055 79.2677 479.886 79.6001C479.718 79.9332 479.486 80.2209 479.189 80.4634C478.892 80.7065 478.546 80.8992 478.149 81.0441C477.753 81.1883 477.327 81.2601 476.872 81.2601H475.892C475.446 81.2601 475.025 81.1883 474.629 81.0441C474.233 80.8992 473.886 80.7065 473.59 80.4634C473.293 80.2209 473.057 79.9332 472.883 79.6001C472.71 79.2677 472.624 78.914 472.624 78.537V78.4769H472.967V78.537C472.967 78.8733 473.043 79.1889 473.196 79.4818C473.349 79.7747 473.561 80.0321 473.827 80.2558C474.095 80.4783 474.404 80.6542 474.755 80.7835C475.107 80.9122 475.486 80.9762 475.892 80.9762H476.872C477.277 80.9762 477.659 80.9122 478.015 80.7835C478.372 80.6542 478.681 80.4783 478.943 80.2558C479.205 80.0321 479.413 79.7747 479.567 79.4818C479.72 79.1889 479.797 78.8733 479.797 78.537C479.797 78.1988 479.72 77.8807 479.567 77.5839C479.413 77.2871 479.205 77.0258 478.943 76.8034C478.681 76.5796 478.372 76.4037 478.015 76.2744C477.659 76.1457 477.277 76.0811 476.872 76.0811C476.456 76.1017 476.106 76.0933 475.824 76.0584C475.542 76.0235 475.313 75.9815 475.134 75.9317C474.926 75.8825 474.753 75.8237 474.615 75.7526C474.1 75.446 473.696 75.0994 473.404 74.7121C473.112 74.3241 472.967 73.874 472.967 73.3567C472.967 72.981 473.052 72.626 473.226 72.2943C473.4 71.9619 473.634 71.6715 473.932 71.4232C474.229 71.1749 474.574 70.9796 474.971 70.8348C475.367 70.6912 475.788 70.6201 476.233 70.6201H476.53C476.965 70.6201 477.376 70.6867 477.762 70.8199C478.149 70.9551 478.488 71.1381 478.78 71.3702C479.071 71.6049 479.309 71.8791 479.492 72.1966C479.676 72.5148 479.777 72.8517 479.797 73.2086H479.455C479.435 72.8924 479.344 72.5911 479.179 72.3085C479.015 72.0266 478.805 71.7802 478.548 71.572C478.289 71.3637 477.986 71.1995 477.639 71.0805C477.292 70.9609 476.925 70.902 476.537 70.902H476.24C475.834 70.902 475.453 70.9673 475.102 71.096C474.75 71.2247 474.439 71.4012 474.172 71.6237C473.904 71.8474 473.693 72.1074 473.539 72.4055C473.385 72.7036 473.308 73.0211 473.308 73.3567C473.308 73.6956 473.385 74.0098 473.538 74.3028C473.692 74.595 473.903 74.8544 474.17 75.0762C474.437 75.3005 474.746 75.4758 475.098 75.6058C475.449 75.7344 475.827 75.7991 476.234 75.7991H476.709C476.848 75.7991 476.988 75.8011 477.132 75.8056C477.276 75.8108 477.402 75.8237 477.511 75.8424Z" stroke="#ffffff" stroke-width="0.323325" stroke-miterlimit="10"/>
<path d="M483.443 70.902V80.9762H485.423V81.2601H481.181V80.9762H483.16V70.902H481.181V70.6194H485.423V70.902H483.443Z" fill="#ffffff" stroke="#ffffff" stroke-width="0.323325" stroke-miterlimit="10"/>
<path d="M494.619 70.902H490.898V81.2601H490.616V70.902H486.91V70.6194H494.619V70.902Z" fill="#ffffff" stroke="#ffffff" stroke-width="0.323325" stroke-miterlimit="10"/>
<path d="M496.389 70.902V75.7985H501.077V76.0811H496.389V80.9762H502.803V81.2601H496.107V70.6194H502.803V70.902H496.389Z" fill="#ffffff" stroke="#ffffff" stroke-width="0.323325" stroke-miterlimit="10"/>
<path d="M512 70.902H508.279V81.2601H507.997V70.902H504.291V70.6194H512V70.902Z" fill="#ffffff" stroke="#ffffff" stroke-width="0.323325" stroke-miterlimit="10"/>
</svg>
