<?xml version="1.0" encoding="UTF-8" standalone="no"?>
<!-- Created with Inkscape (http://www.inkscape.org/) -->

<svg
   version="1.1"
   id="svg2"
   width="1133.8533"
   height="302.35999"
   viewBox="0 0 1133.8533 302.35999"
   sodipodi:docname="Color_black (3).ai"
   xmlns:inkscape="http://www.inkscape.org/namespaces/inkscape"
   xmlns:sodipodi="http://sodipodi.sourceforge.net/DTD/sodipodi-0.dtd"
   xmlns="http://www.w3.org/2000/svg"
   xmlns:svg="http://www.w3.org/2000/svg">
  <defs
     id="defs6">
    <clipPath
       clipPathUnits="userSpaceOnUse"
       id="clipPath18">
      <path
         d="M 0,226.77 H 850.39 V 0 H 0 Z"
         id="path16" />
    </clipPath>
  </defs>
  <sodipodi:namedview
     id="namedview4"
     pagecolor="#ffffff"
     bordercolor="#000000"
     borderopacity="0.25"
     inkscape:showpageshadow="2"
     inkscape:pageopacity="0.0"
     inkscape:pagecheckerboard="0"
     inkscape:deskcolor="#d1d1d1" />
  <g
     id="g8"
     inkscape:groupmode="layer"
     inkscape:label="Color_black (3)"
     transform="matrix(1.3333333,0,0,-1.3333333,0,302.36)">
    <path
       d="M 0,0 H 850.389 V 226.769 H 0 Z"
       style="fill:#000000;fill-opacity:1;fill-rule:nonzero;stroke:none"
       id="path10" />
    <g
       id="g12">
      <g
         id="g14"
         clip-path="url(#clipPath18)">
        <g
           id="g20"
           transform="translate(130.0898,86.8281)">
          <path
             d="m 0,0 c 2.296,0.981 4.297,2.325 6.001,4.028 1.703,1.703 3.046,3.696 4.029,5.973 0.981,2.278 1.472,4.714 1.472,7.306 0,2.594 -0.491,5.037 -1.472,7.336 -0.983,2.296 -2.326,4.296 -4.029,6 C 4.297,32.346 2.296,33.69 0,34.671 c -2.297,0.981 -4.741,1.473 -7.334,1.473 H -18.336 V -1.472 h 11.002 c 2.593,0 5.037,0.49 7.334,1.472 m 0.389,35.644 c 2.407,-1.038 4.509,-2.454 6.306,-4.25 1.797,-1.797 3.213,-3.909 4.251,-6.335 1.036,-2.426 1.556,-5.01 1.556,-7.752 0,-2.743 -0.52,-5.315 -1.556,-7.721 C 9.908,7.178 8.492,5.074 6.695,3.278 4.898,1.482 2.796,0.064 0.389,-0.973 -2.019,-2.01 -4.593,-2.528 -7.334,-2.528 h -12.002 -0.056 V 37.2 h 0.056 12.002 c 2.741,0 5.315,-0.519 7.723,-1.556"
             style="fill:#ffffff;fill-opacity:1;fill-rule:nonzero;stroke:none"
             id="path22" />
        </g>
        <g
           id="g24"
           transform="translate(130.0898,86.8281)">
          <path
             d="m 0,0 c 2.296,0.981 4.297,2.325 6.001,4.028 1.703,1.703 3.046,3.696 4.029,5.973 0.981,2.278 1.472,4.714 1.472,7.306 0,2.594 -0.491,5.037 -1.472,7.336 -0.983,2.296 -2.326,4.296 -4.029,6 C 4.297,32.346 2.296,33.69 0,34.671 c -2.297,0.981 -4.741,1.473 -7.334,1.473 H -18.336 V -1.472 h 11.002 c 2.593,0 5.037,0.49 7.334,1.472 z m 0.389,35.644 c 2.407,-1.038 4.509,-2.454 6.306,-4.25 1.797,-1.797 3.213,-3.909 4.251,-6.335 1.036,-2.426 1.556,-5.01 1.556,-7.752 0,-2.743 -0.52,-5.315 -1.556,-7.721 C 9.908,7.178 8.492,5.074 6.695,3.278 4.898,1.482 2.796,0.064 0.389,-0.973 -2.019,-2.01 -4.593,-2.528 -7.334,-2.528 h -12.002 -0.056 V 37.2 h 0.056 12.002 c 2.741,0 5.315,-0.519 7.723,-1.556 z"
             style="fill:none;stroke:#ffffff;stroke-width:0.5;stroke-linecap:butt;stroke-linejoin:miter;stroke-miterlimit:10;stroke-dasharray:none;stroke-opacity:1"
             id="path26" />
        </g>
        <g
           id="g28"
           transform="translate(176.7627,98.6895)">
          <path
             d="M 0,0 -10.557,24.004 -21.114,0 Z m 0.445,-1.11 h -22.003 l -5.89,-13.28 h -1.167 l 17.447,39.729 h 1.167 L 7.501,-14.39 H 6.334 Z"
             style="fill:#ffffff;fill-opacity:1;fill-rule:nonzero;stroke:none"
             id="path30" />
        </g>
        <g
           id="g32"
           transform="translate(176.7627,98.6895)">
          <path
             d="M 0,0 -10.557,24.004 -21.114,0 Z m 0.445,-1.11 h -22.003 l -5.89,-13.28 h -1.167 l 17.447,39.729 h 1.167 L 7.501,-14.39 H 6.334 Z"
             style="fill:none;stroke:#ffffff;stroke-width:0.5;stroke-linecap:butt;stroke-linejoin:miter;stroke-miterlimit:10;stroke-dasharray:none;stroke-opacity:1"
             id="path34" />
        </g>
        <g
           id="g36"
           transform="translate(208.4346,122.9717)">
          <path
             d="m 0,0 h -13.891 v -38.672 h -1.055 V 0 H -28.782 V 1.057 H 0 Z"
             style="fill:#ffffff;fill-opacity:1;fill-rule:nonzero;stroke:none"
             id="path38" />
        </g>
        <g
           id="g40"
           transform="translate(208.4346,122.9717)">
          <path
             d="m 0,0 h -13.891 v -38.672 h -1.055 V 0 H -28.782 V 1.057 H 0 Z"
             style="fill:none;stroke:#ffffff;stroke-width:0.5;stroke-linecap:butt;stroke-linejoin:miter;stroke-miterlimit:10;stroke-dasharray:none;stroke-opacity:1"
             id="path42" />
        </g>
        <g
           id="g44"
           transform="translate(232.4375,98.6895)">
          <path
             d="M 0,0 -10.558,24.004 -21.114,0 Z m 0.444,-1.11 h -22.003 l -5.889,-13.28 h -1.167 l 17.447,39.729 h 1.166 L 7.501,-14.39 H 6.334 Z"
             style="fill:#ffffff;fill-opacity:1;fill-rule:nonzero;stroke:none"
             id="path46" />
        </g>
        <g
           id="g48"
           transform="translate(232.4375,98.6895)">
          <path
             d="M 0,0 -10.558,24.004 -21.114,0 Z m 0.444,-1.11 h -22.003 l -5.889,-13.28 h -1.167 l 17.447,39.729 h 1.166 L 7.501,-14.39 H 6.334 Z"
             style="fill:none;stroke:#ffffff;stroke-width:0.5;stroke-linecap:butt;stroke-linejoin:miter;stroke-miterlimit:10;stroke-dasharray:none;stroke-opacity:1"
             id="path50" />
        </g>
        <g
           id="g52"
           transform="translate(264.1084,122.9717)">
          <path
             d="m 0,0 h -13.891 v -38.672 h -1.055 V 0 H -28.781 V 1.057 H 0 Z"
             style="fill:#ffffff;fill-opacity:1;fill-rule:nonzero;stroke:none"
             id="path54" />
        </g>
        <g
           id="g56"
           transform="translate(264.1084,122.9717)">
          <path
             d="m 0,0 h -13.891 v -38.672 h -1.055 V 0 H -28.781 V 1.057 H 0 Z"
             style="fill:none;stroke:#ffffff;stroke-width:0.5;stroke-linecap:butt;stroke-linejoin:miter;stroke-miterlimit:10;stroke-dasharray:none;stroke-opacity:1"
             id="path58" />
        </g>
        <g
           id="g60"
           transform="translate(270.7207,122.9717)">
          <path
             d="m 0,0 v -18.279 h 17.503 v -1.057 H 0 v -18.279 h 23.948 v -1.057 H -1.056 V 1.057 H 23.948 V 0 Z"
             style="fill:#ffffff;fill-opacity:1;fill-rule:nonzero;stroke:none"
             id="path62" />
        </g>
        <g
           id="g64"
           transform="translate(270.7207,122.9717)">
          <path
             d="m 0,0 v -18.279 h 17.503 v -1.057 H 0 v -18.279 h 23.948 v -1.057 H -1.056 V 1.057 H 23.948 V 0 Z"
             style="fill:none;stroke:#ffffff;stroke-width:0.5;stroke-linecap:butt;stroke-linejoin:miter;stroke-miterlimit:10;stroke-dasharray:none;stroke-opacity:1"
             id="path66" />
        </g>
        <g
           id="g68"
           transform="translate(305.002,105.4131)">
          <path
             d="m 0,0 -3.723,-3.722 v -17.391 h -1.055 v 39.728 h 1.055 V -2.222 L 17.114,18.615 H 18.67 L 0.778,0.722 22.615,-21.113 h -1.501 z"
             style="fill:#ffffff;fill-opacity:1;fill-rule:nonzero;stroke:none"
             id="path70" />
        </g>
        <g
           id="g72"
           transform="translate(305.002,105.4131)">
          <path
             d="m 0,0 -3.723,-3.722 v -17.391 h -1.055 v 39.728 h 1.055 V -2.222 L 17.114,18.615 H 18.67 L 0.778,0.722 22.615,-21.113 h -1.501 z"
             style="fill:none;stroke:#ffffff;stroke-width:0.5;stroke-linecap:butt;stroke-linejoin:miter;stroke-miterlimit:10;stroke-dasharray:none;stroke-opacity:1"
             id="path74" />
        </g>
        <g
           id="g76"
           transform="translate(364.9551,124.0283)">
          <path
             d="M 0,0 V -39.729 H -1.111 L -30.727,-1.89 v -37.839 h -1.055 V 0 h 1.055 L -1.111,-37.896 V 0 Z"
             style="fill:#ffffff;fill-opacity:1;fill-rule:nonzero;stroke:none"
             id="path78" />
        </g>
        <g
           id="g80"
           transform="translate(364.9551,124.0283)">
          <path
             d="M 0,0 V -39.729 H -1.111 L -30.727,-1.89 v -37.839 h -1.055 V 0 h 1.055 L -1.111,-37.896 V 0 Z"
             style="fill:none;stroke:#ffffff;stroke-width:0.5;stroke-linecap:butt;stroke-linejoin:miter;stroke-miterlimit:10;stroke-dasharray:none;stroke-opacity:1"
             id="path82" />
        </g>
        <g
           id="g84"
           transform="translate(390.3477,122.9717)">
          <path
             d="m 0,0 c -2.594,0 -5.029,-0.491 -7.307,-1.472 -2.278,-0.982 -4.269,-2.325 -5.972,-4.028 -1.705,-1.705 -3.048,-3.705 -4.029,-6.001 -0.982,-2.299 -1.473,-4.741 -1.473,-7.336 0,-2.592 0.491,-5.027 1.473,-7.306 0.981,-2.277 2.324,-4.269 4.029,-5.972 1.703,-1.703 3.694,-3.047 5.972,-4.029 2.278,-0.982 4.713,-1.471 7.307,-1.471 2.592,0 5.028,0.489 7.307,1.471 2.278,0.982 4.268,2.326 5.972,4.029 1.703,1.703 3.046,3.695 4.029,5.972 0.981,2.279 1.472,4.714 1.472,7.306 0,2.595 -0.491,5.037 -1.472,7.336 -0.983,2.296 -2.326,4.296 -4.029,6.001 -1.704,1.703 -3.694,3.046 -5.972,4.028 C 5.028,-0.491 2.592,0 0,0 m 0,-38.672 c -2.742,0 -5.316,0.519 -7.724,1.556 -2.408,1.037 -4.509,2.455 -6.306,4.251 -1.797,1.796 -3.214,3.899 -4.251,6.307 -1.036,2.407 -1.555,4.979 -1.555,7.721 0,2.742 0.519,5.326 1.555,7.752 1.037,2.426 2.454,4.538 4.251,6.335 1.797,1.796 3.898,3.213 6.306,4.25 2.408,1.037 4.982,1.557 7.724,1.557 2.74,0 5.314,-0.52 7.724,-1.557 2.407,-1.037 4.508,-2.454 6.306,-4.25 1.795,-1.797 3.213,-3.909 4.25,-6.335 1.037,-2.426 1.556,-5.01 1.556,-7.752 0,-2.742 -0.519,-5.314 -1.556,-7.721 -1.037,-2.408 -2.455,-4.511 -4.25,-6.307 -1.798,-1.796 -3.899,-3.214 -6.306,-4.251 C 5.314,-38.153 2.74,-38.672 0,-38.672"
             style="fill:#ffffff;fill-opacity:1;fill-rule:nonzero;stroke:none"
             id="path86" />
        </g>
        <g
           id="g88"
           transform="translate(390.3477,122.9717)">
          <path
             d="m 0,0 c -2.594,0 -5.029,-0.491 -7.307,-1.472 -2.278,-0.982 -4.269,-2.325 -5.972,-4.028 -1.705,-1.705 -3.048,-3.705 -4.029,-6.001 -0.982,-2.299 -1.473,-4.741 -1.473,-7.336 0,-2.592 0.491,-5.027 1.473,-7.306 0.981,-2.277 2.324,-4.269 4.029,-5.972 1.703,-1.703 3.694,-3.047 5.972,-4.029 2.278,-0.982 4.713,-1.471 7.307,-1.471 2.592,0 5.028,0.489 7.307,1.471 2.278,0.982 4.268,2.326 5.972,4.029 1.703,1.703 3.046,3.695 4.029,5.972 0.981,2.279 1.472,4.714 1.472,7.306 0,2.595 -0.491,5.037 -1.472,7.336 -0.983,2.296 -2.326,4.296 -4.029,6.001 -1.704,1.703 -3.694,3.046 -5.972,4.028 C 5.028,-0.491 2.592,0 0,0 Z m 0,-38.672 c -2.742,0 -5.316,0.519 -7.724,1.556 -2.408,1.037 -4.509,2.455 -6.306,4.251 -1.797,1.796 -3.214,3.899 -4.251,6.307 -1.036,2.407 -1.555,4.979 -1.555,7.721 0,2.742 0.519,5.326 1.555,7.752 1.037,2.426 2.454,4.538 4.251,6.335 1.797,1.796 3.898,3.213 6.306,4.25 2.408,1.037 4.982,1.557 7.724,1.557 2.74,0 5.314,-0.52 7.724,-1.557 2.407,-1.037 4.508,-2.454 6.306,-4.25 1.795,-1.797 3.213,-3.909 4.25,-6.335 1.037,-2.426 1.556,-5.01 1.556,-7.752 0,-2.742 -0.519,-5.314 -1.556,-7.721 -1.037,-2.408 -2.455,-4.511 -4.25,-6.307 -1.798,-1.796 -3.899,-3.214 -6.306,-4.251 C 5.314,-38.153 2.74,-38.672 0,-38.672 Z"
             style="fill:none;stroke:#ffffff;stroke-width:0.5;stroke-linecap:butt;stroke-linejoin:miter;stroke-miterlimit:10;stroke-dasharray:none;stroke-opacity:1"
             id="path90" />
        </g>
        <g
           id="g92"
           transform="translate(440.9102,85.3564)">
          <path
             d="m 0,0 v -1.057 h -25.171 v 39.729 h 1.056 V 0 Z"
             style="fill:#ffffff;fill-opacity:1;fill-rule:nonzero;stroke:none"
             id="path94" />
        </g>
        <g
           id="g96"
           transform="translate(440.9102,85.3564)">
          <path
             d="m 0,0 v -1.057 h -25.171 v 39.729 h 1.056 V 0 Z"
             style="fill:none;stroke:#ffffff;stroke-width:0.5;stroke-linecap:butt;stroke-linejoin:miter;stroke-miterlimit:10;stroke-dasharray:none;stroke-opacity:1"
             id="path98" />
        </g>
        <g
           id="g100"
           transform="translate(457.3008,122.9717)">
          <path
             d="m 0,0 c -2.594,0 -5.027,-0.491 -7.308,-1.472 -2.276,-0.982 -4.266,-2.325 -5.971,-4.028 -1.705,-1.705 -3.047,-3.705 -4.03,-6.001 -0.982,-2.299 -1.47,-4.741 -1.47,-7.336 0,-2.592 0.488,-5.027 1.47,-7.306 0.983,-2.277 2.325,-4.269 4.03,-5.972 1.705,-1.703 3.695,-3.047 5.971,-4.029 2.281,-0.982 4.714,-1.471 7.308,-1.471 2.594,0 5.027,0.489 7.308,1.471 2.279,0.982 4.269,2.326 5.971,4.029 1.705,1.703 3.047,3.695 4.03,5.972 0.982,2.279 1.473,4.714 1.473,7.306 0,2.595 -0.491,5.037 -1.473,7.336 -0.983,2.296 -2.325,4.296 -4.03,6.001 -1.702,1.703 -3.692,3.046 -5.971,4.028 C 5.027,-0.491 2.594,0 0,0 m 0,-38.672 c -2.742,0 -5.316,0.519 -7.722,1.556 -2.408,1.037 -4.51,2.455 -6.308,4.251 -1.795,1.796 -3.214,3.899 -4.251,6.307 -1.037,2.407 -1.554,4.979 -1.554,7.721 0,2.742 0.517,5.326 1.554,7.752 1.037,2.426 2.456,4.538 4.251,6.335 1.798,1.796 3.9,3.213 6.308,4.25 2.406,1.037 4.98,1.557 7.722,1.557 2.742,0 5.316,-0.52 7.725,-1.557 2.408,-1.037 4.507,-2.454 6.305,-4.25 1.795,-1.797 3.214,-3.909 4.251,-6.335 1.037,-2.426 1.557,-5.01 1.557,-7.752 0,-2.742 -0.52,-5.314 -1.557,-7.721 -1.037,-2.408 -2.456,-4.511 -4.251,-6.307 -1.798,-1.796 -3.897,-3.214 -6.305,-4.251 C 5.316,-38.153 2.742,-38.672 0,-38.672"
             style="fill:#ffffff;fill-opacity:1;fill-rule:nonzero;stroke:none"
             id="path102" />
        </g>
        <g
           id="g104"
           transform="translate(457.3008,122.9717)">
          <path
             d="m 0,0 c -2.594,0 -5.027,-0.491 -7.308,-1.472 -2.276,-0.982 -4.266,-2.325 -5.971,-4.028 -1.705,-1.705 -3.047,-3.705 -4.03,-6.001 -0.982,-2.299 -1.47,-4.741 -1.47,-7.336 0,-2.592 0.488,-5.027 1.47,-7.306 0.983,-2.277 2.325,-4.269 4.03,-5.972 1.705,-1.703 3.695,-3.047 5.971,-4.029 2.281,-0.982 4.714,-1.471 7.308,-1.471 2.594,0 5.027,0.489 7.308,1.471 2.279,0.982 4.269,2.326 5.971,4.029 1.705,1.703 3.047,3.695 4.03,5.972 0.982,2.279 1.473,4.714 1.473,7.306 0,2.595 -0.491,5.037 -1.473,7.336 -0.983,2.296 -2.325,4.296 -4.03,6.001 -1.702,1.703 -3.692,3.046 -5.971,4.028 C 5.027,-0.491 2.594,0 0,0 Z m 0,-38.672 c -2.742,0 -5.316,0.519 -7.722,1.556 -2.408,1.037 -4.51,2.455 -6.308,4.251 -1.795,1.796 -3.214,3.899 -4.251,6.307 -1.037,2.407 -1.554,4.979 -1.554,7.721 0,2.742 0.517,5.326 1.554,7.752 1.037,2.426 2.456,4.538 4.251,6.335 1.798,1.796 3.9,3.213 6.308,4.25 2.406,1.037 4.98,1.557 7.722,1.557 2.742,0 5.316,-0.52 7.725,-1.557 2.408,-1.037 4.507,-2.454 6.305,-4.25 1.795,-1.797 3.214,-3.909 4.251,-6.335 1.037,-2.426 1.557,-5.01 1.557,-7.752 0,-2.742 -0.52,-5.314 -1.557,-7.721 -1.037,-2.408 -2.456,-4.511 -4.251,-6.307 -1.798,-1.796 -3.897,-3.214 -6.305,-4.251 C 5.316,-38.153 2.742,-38.672 0,-38.672 Z"
             style="fill:none;stroke:#ffffff;stroke-width:0.5;stroke-linecap:butt;stroke-linejoin:miter;stroke-miterlimit:10;stroke-dasharray:none;stroke-opacity:1"
             id="path106" />
        </g>
        <g
           id="g108"
           transform="translate(522.0332,100.5811)">
          <path
             d="m 0,0 c -0.408,-2.334 -1.204,-4.493 -2.389,-6.475 -1.188,-1.982 -2.642,-3.695 -4.363,-5.139 -1.725,-1.444 -3.667,-2.583 -5.834,-3.416 -2.167,-0.833 -4.473,-1.251 -6.919,-1.251 -2.741,0 -5.316,0.518 -7.722,1.555 -2.407,1.038 -4.51,2.455 -6.308,4.251 -1.795,1.796 -3.214,3.9 -4.251,6.308 -1.037,2.406 -1.554,4.979 -1.554,7.721 0,2.742 0.517,5.326 1.554,7.752 1.037,2.426 2.456,4.538 4.251,6.335 1.798,1.796 3.901,3.213 6.308,4.25 2.406,1.037 4.981,1.556 7.722,1.556 2.446,0 4.752,-0.417 6.919,-1.251 2.167,-0.833 4.109,-1.981 5.834,-3.445 1.721,-1.463 3.175,-3.185 4.363,-5.167 C -1.204,11.603 -0.408,9.464 0,7.166 h -1.057 c -0.407,2.147 -1.177,4.159 -2.304,6.029 -1.131,1.871 -2.511,3.482 -4.142,4.834 -1.628,1.352 -3.471,2.418 -5.529,3.196 -2.055,0.777 -4.212,1.166 -6.473,1.166 -2.594,0 -5.027,-0.492 -7.307,-1.473 -2.276,-0.981 -4.267,-2.325 -5.971,-4.028 -1.705,-1.704 -3.047,-3.704 -4.03,-6 -0.983,-2.299 -1.47,-4.742 -1.47,-7.336 0,-2.592 0.487,-5.028 1.47,-7.306 0.983,-2.277 2.325,-4.269 4.03,-5.973 1.704,-1.703 3.695,-3.046 5.971,-4.028 2.28,-0.982 4.713,-1.472 7.307,-1.472 2.187,0 4.271,0.352 6.251,1.055 1.982,0.703 3.77,1.686 5.362,2.945 1.592,1.259 2.963,2.758 4.113,4.502 1.146,1.74 1.981,3.628 2.501,5.667 H -18.394 V 0 Z"
             style="fill:#ffffff;fill-opacity:1;fill-rule:nonzero;stroke:none"
             id="path110" />
        </g>
        <g
           id="g112"
           transform="translate(522.0332,100.5811)">
          <path
             d="m 0,0 c -0.408,-2.334 -1.204,-4.493 -2.389,-6.475 -1.188,-1.982 -2.642,-3.695 -4.363,-5.139 -1.725,-1.444 -3.667,-2.583 -5.834,-3.416 -2.167,-0.833 -4.473,-1.251 -6.919,-1.251 -2.741,0 -5.316,0.518 -7.722,1.555 -2.407,1.038 -4.51,2.455 -6.308,4.251 -1.795,1.796 -3.214,3.9 -4.251,6.308 -1.037,2.406 -1.554,4.979 -1.554,7.721 0,2.742 0.517,5.326 1.554,7.752 1.037,2.426 2.456,4.538 4.251,6.335 1.798,1.796 3.901,3.213 6.308,4.25 2.406,1.037 4.981,1.556 7.722,1.556 2.446,0 4.752,-0.417 6.919,-1.251 2.167,-0.833 4.109,-1.981 5.834,-3.445 1.721,-1.463 3.175,-3.185 4.363,-5.167 C -1.204,11.603 -0.408,9.464 0,7.166 h -1.057 c -0.407,2.147 -1.177,4.159 -2.304,6.029 -1.131,1.871 -2.511,3.482 -4.142,4.834 -1.628,1.352 -3.471,2.418 -5.529,3.196 -2.055,0.777 -4.212,1.166 -6.473,1.166 -2.594,0 -5.027,-0.492 -7.307,-1.473 -2.276,-0.981 -4.267,-2.325 -5.971,-4.028 -1.705,-1.704 -3.047,-3.704 -4.03,-6 -0.983,-2.299 -1.47,-4.742 -1.47,-7.336 0,-2.592 0.487,-5.028 1.47,-7.306 0.983,-2.277 2.325,-4.269 4.03,-5.973 1.704,-1.703 3.695,-3.046 5.971,-4.028 2.28,-0.982 4.713,-1.472 7.307,-1.472 2.187,0 4.271,0.352 6.251,1.055 1.982,0.703 3.77,1.686 5.362,2.945 1.592,1.259 2.963,2.758 4.113,4.502 1.146,1.74 1.981,3.628 2.501,5.667 H -18.394 V 0 Z"
             style="fill:none;stroke:#ffffff;stroke-width:0.5;stroke-linecap:butt;stroke-linejoin:miter;stroke-miterlimit:10;stroke-dasharray:none;stroke-opacity:1"
             id="path114" />
        </g>
        <g
           id="g116"
           transform="translate(545.8369,104.5254)">
          <path
             d="m 0,0 c 1.402,-0.223 2.703,-0.631 3.907,-1.222 1.2,-0.594 2.235,-1.336 3.105,-2.223 0.866,-0.889 1.553,-1.899 2.051,-3.03 0.498,-1.129 0.749,-2.324 0.749,-3.583 0,-1.407 -0.315,-2.732 -0.945,-3.972 -0.626,-1.241 -1.496,-2.316 -2.603,-3.222 -1.112,-0.909 -2.406,-1.632 -3.882,-2.168 -1.481,-0.537 -3.069,-0.806 -4.771,-0.806 h -3.66 c -1.663,0 -3.233,0.269 -4.714,0.806 -1.479,0.536 -2.773,1.259 -3.881,2.168 -1.108,0.906 -1.988,1.981 -2.632,3.222 -0.649,1.24 -0.973,2.565 -0.973,3.972 v 0.222 h 1.277 v -0.222 c 0,-1.259 0.289,-2.434 0.861,-3.528 0.575,-1.093 1.358,-2.055 2.356,-2.89 0.999,-0.833 2.151,-1.491 3.465,-1.97 1.312,-0.484 2.726,-0.723 4.241,-0.723 h 3.66 c 1.515,0 2.938,0.239 4.27,0.723 1.329,0.479 2.485,1.137 3.465,1.97 0.978,0.835 1.756,1.797 2.327,2.89 0.575,1.094 0.86,2.269 0.86,3.528 0,1.259 -0.285,2.446 -0.86,3.558 -0.571,1.111 -1.349,2.082 -2.327,2.915 -0.98,0.835 -2.136,1.491 -3.465,1.974 -1.332,0.48 -2.755,0.721 -4.27,0.721 -1.554,-0.075 -2.854,-0.046 -3.907,0.083 -1.057,0.131 -1.914,0.288 -2.578,0.473 -0.777,0.185 -1.423,0.408 -1.943,0.666 -1.92,1.149 -3.426,2.447 -4.517,3.892 -1.092,1.444 -1.638,3.128 -1.638,5.054 0,1.409 0.325,2.732 0.97,3.973 0.648,1.242 1.524,2.325 2.636,3.251 1.107,0.926 2.401,1.657 3.882,2.195 1.476,0.536 3.047,0.806 4.71,0.806 h 1.11 c 1.625,0 3.159,-0.251 4.601,-0.751 1.442,-0.5 2.707,-1.185 3.798,-2.055 1.092,-0.871 1.978,-1.9 2.661,-3.084 C 8.081,12.427 8.46,11.168 8.533,9.835 H 7.256 c -0.074,1.185 -0.418,2.305 -1.027,3.361 -0.614,1.056 -1.401,1.972 -2.364,2.75 -0.963,0.779 -2.094,1.389 -3.387,1.834 -1.297,0.445 -2.668,0.666 -4.113,0.666 h -1.111 c -1.519,0 -2.938,-0.24 -4.25,-0.721 -1.317,-0.483 -2.473,-1.14 -3.475,-1.973 -0.998,-0.833 -1.788,-1.806 -2.359,-2.917 -0.575,-1.111 -0.864,-2.297 -0.864,-3.557 0,-1.258 0.289,-2.436 0.861,-3.526 0.574,-1.096 1.357,-2.059 2.356,-2.89 0.998,-0.835 2.151,-1.493 3.464,-1.974 1.314,-0.482 2.726,-0.721 4.242,-0.721 h 1.775 c 0.517,0 1.044,-0.01 1.58,-0.027 C -0.88,0.12 -0.408,0.074 0,0"
             style="fill:#ffffff;fill-opacity:1;fill-rule:nonzero;stroke:none"
             id="path118" />
        </g>
        <g
           id="g120"
           transform="translate(545.8369,104.5254)">
          <path
             d="m 0,0 c 1.402,-0.223 2.703,-0.631 3.907,-1.222 1.2,-0.594 2.235,-1.336 3.105,-2.223 0.866,-0.889 1.553,-1.899 2.051,-3.03 0.498,-1.129 0.749,-2.324 0.749,-3.583 0,-1.407 -0.315,-2.732 -0.945,-3.972 -0.626,-1.241 -1.496,-2.316 -2.603,-3.222 -1.112,-0.909 -2.406,-1.632 -3.882,-2.168 -1.481,-0.537 -3.069,-0.806 -4.771,-0.806 h -3.66 c -1.663,0 -3.233,0.269 -4.714,0.806 -1.479,0.536 -2.773,1.259 -3.881,2.168 -1.108,0.906 -1.988,1.981 -2.632,3.222 -0.649,1.24 -0.973,2.565 -0.973,3.972 v 0.222 h 1.277 v -0.222 c 0,-1.259 0.289,-2.434 0.861,-3.528 0.575,-1.093 1.358,-2.055 2.356,-2.89 0.999,-0.833 2.151,-1.491 3.465,-1.97 1.312,-0.484 2.726,-0.723 4.241,-0.723 h 3.66 c 1.515,0 2.938,0.239 4.27,0.723 1.329,0.479 2.485,1.137 3.465,1.97 0.978,0.835 1.756,1.797 2.327,2.89 0.575,1.094 0.86,2.269 0.86,3.528 0,1.259 -0.285,2.446 -0.86,3.558 -0.571,1.111 -1.349,2.082 -2.327,2.915 -0.98,0.835 -2.136,1.491 -3.465,1.974 -1.332,0.48 -2.755,0.721 -4.27,0.721 -1.554,-0.075 -2.854,-0.046 -3.907,0.083 -1.057,0.131 -1.914,0.288 -2.578,0.473 -0.777,0.185 -1.423,0.408 -1.943,0.666 -1.92,1.149 -3.426,2.447 -4.517,3.892 -1.092,1.444 -1.638,3.128 -1.638,5.054 0,1.409 0.325,2.732 0.97,3.973 0.648,1.242 1.524,2.325 2.636,3.251 1.107,0.926 2.401,1.657 3.882,2.195 1.476,0.536 3.047,0.806 4.71,0.806 h 1.11 c 1.625,0 3.159,-0.251 4.601,-0.751 1.442,-0.5 2.707,-1.185 3.798,-2.055 1.092,-0.871 1.978,-1.9 2.661,-3.084 C 8.081,12.427 8.46,11.168 8.533,9.835 H 7.256 c -0.074,1.185 -0.418,2.305 -1.027,3.361 -0.614,1.056 -1.401,1.972 -2.364,2.75 -0.963,0.779 -2.094,1.389 -3.387,1.834 -1.297,0.445 -2.668,0.666 -4.113,0.666 h -1.111 c -1.519,0 -2.938,-0.24 -4.25,-0.721 -1.317,-0.483 -2.473,-1.14 -3.475,-1.973 -0.998,-0.833 -1.788,-1.806 -2.359,-2.917 -0.575,-1.111 -0.864,-2.297 -0.864,-3.557 0,-1.258 0.289,-2.436 0.861,-3.526 0.574,-1.096 1.357,-2.059 2.356,-2.89 0.998,-0.835 2.151,-1.493 3.464,-1.974 1.314,-0.482 2.726,-0.721 4.242,-0.721 h 1.775 c 0.517,0 1.044,-0.01 1.58,-0.027 C -0.88,0.12 -0.408,0.074 0,0 Z"
             style="fill:none;stroke:#ffffff;stroke-width:0.5;stroke-linecap:butt;stroke-linejoin:miter;stroke-miterlimit:10;stroke-dasharray:none;stroke-opacity:1"
             id="path122" />
        </g>
        <g
           id="g124"
           transform="translate(562.3164,122.9717)">
          <path
             d="m 0,0 v -18.279 h 17.501 v -1.057 H 0 v -18.279 h 23.948 v -1.057 H -1.057 V 1.057 H 23.948 V 0 Z"
             style="fill:#ffffff;fill-opacity:1;fill-rule:nonzero;stroke:none"
             id="path126" />
        </g>
        <g
           id="g128"
           transform="translate(562.3164,122.9717)">
          <path
             d="m 0,0 v -18.279 h 17.501 v -1.057 H 0 v -18.279 h 23.948 v -1.057 H -1.057 V 1.057 H 23.948 V 0 Z"
             style="fill:none;stroke:#ffffff;stroke-width:0.5;stroke-linecap:butt;stroke-linejoin:miter;stroke-miterlimit:10;stroke-dasharray:none;stroke-opacity:1"
             id="path130" />
        </g>
        <g
           id="g132"
           transform="translate(596.5967,105.4131)">
          <path
             d="m 0,0 -3.722,-3.722 v -17.391 h -1.056 v 39.728 h 1.056 V -2.222 l 20.834,20.837 h 1.557 L 0.776,0.722 22.615,-21.113 h -1.503 z"
             style="fill:#ffffff;fill-opacity:1;fill-rule:nonzero;stroke:none"
             id="path134" />
        </g>
        <g
           id="g136"
           transform="translate(596.5967,105.4131)">
          <path
             d="m 0,0 -3.722,-3.722 v -17.391 h -1.056 v 39.728 h 1.056 V -2.222 l 20.834,20.837 h 1.557 L 0.776,0.722 22.615,-21.113 h -1.503 z"
             style="fill:none;stroke:#ffffff;stroke-width:0.5;stroke-linecap:butt;stroke-linejoin:miter;stroke-miterlimit:10;stroke-dasharray:none;stroke-opacity:1"
             id="path138" />
        </g>
        <g
           id="g140"
           transform="translate(653.5488,122.9717)">
          <path
             d="m 0,0 h -13.892 v -38.672 h -1.056 V 0 H -28.783 V 1.057 H 0 Z"
             style="fill:#ffffff;fill-opacity:1;fill-rule:nonzero;stroke:none"
             id="path142" />
        </g>
        <g
           id="g144"
           transform="translate(653.5488,122.9717)">
          <path
             d="m 0,0 h -13.892 v -38.672 h -1.056 V 0 H -28.783 V 1.057 H 0 Z"
             style="fill:none;stroke:#ffffff;stroke-width:0.5;stroke-linecap:butt;stroke-linejoin:miter;stroke-miterlimit:10;stroke-dasharray:none;stroke-opacity:1"
             id="path146" />
        </g>
        <g
           id="g148"
           transform="translate(667.5508,122.9717)">
          <path
             d="m 0,0 v -37.615 h 7.391 v -1.057 H -8.447 v 1.057 h 7.39 V 0 h -7.39 V 1.057 H 7.391 V 0 Z"
             style="fill:#ffffff;fill-opacity:1;fill-rule:nonzero;stroke:none"
             id="path150" />
        </g>
        <g
           id="g152"
           transform="translate(667.5508,122.9717)">
          <path
             d="m 0,0 v -37.615 h 7.391 v -1.057 H -8.447 v 1.057 h 7.39 V 0 h -7.39 V 1.057 H 7.391 V 0 Z"
             style="fill:none;stroke:#ffffff;stroke-width:0.5;stroke-linecap:butt;stroke-linejoin:miter;stroke-miterlimit:10;stroke-dasharray:none;stroke-opacity:1"
             id="path154" />
        </g>
        <g
           id="g156"
           transform="translate(695.9453,122.9717)">
          <path
             d="m 0,0 c -2.594,0 -5.031,-0.491 -7.308,-1.472 -2.279,-0.982 -4.269,-2.325 -5.974,-4.028 -1.702,-1.705 -3.047,-3.705 -4.027,-6.001 -0.982,-2.299 -1.473,-4.741 -1.473,-7.336 0,-2.592 0.491,-5.027 1.473,-7.306 0.98,-2.277 2.325,-4.269 4.027,-5.972 1.705,-1.703 3.695,-3.047 5.974,-4.029 2.277,-0.982 4.714,-1.471 7.308,-1.471 2.591,0 5.027,0.489 7.304,1.471 2.28,0.982 4.27,2.326 5.975,4.029 1.701,1.703 3.047,3.695 4.026,5.972 0.982,2.279 1.474,4.714 1.474,7.306 0,2.595 -0.492,5.037 -1.474,7.336 -0.979,2.296 -2.325,4.296 -4.026,6.001 -1.705,1.703 -3.695,3.046 -5.975,4.028 C 5.027,-0.491 2.591,0 0,0 m 0,-38.672 c -2.742,0 -5.316,0.519 -7.725,1.556 -2.408,1.037 -4.51,2.455 -6.305,4.251 -1.798,1.796 -3.214,3.899 -4.251,6.307 -1.037,2.407 -1.557,4.979 -1.557,7.721 0,2.742 0.52,5.326 1.557,7.752 1.037,2.426 2.453,4.538 4.251,6.335 1.795,1.796 3.897,3.213 6.305,4.25 2.409,1.037 4.983,1.557 7.725,1.557 2.738,0 5.313,-0.52 7.722,-1.557 2.408,-1.037 4.51,-2.454 6.305,-4.25 1.798,-1.797 3.214,-3.909 4.251,-6.335 1.037,-2.426 1.557,-5.01 1.557,-7.752 0,-2.742 -0.52,-5.314 -1.557,-7.721 -1.037,-2.408 -2.453,-4.511 -4.251,-6.307 -1.795,-1.796 -3.897,-3.214 -6.305,-4.251 C 5.313,-38.153 2.738,-38.672 0,-38.672"
             style="fill:#ffffff;fill-opacity:1;fill-rule:nonzero;stroke:none"
             id="path158" />
        </g>
        <g
           id="g160"
           transform="translate(695.9453,122.9717)">
          <path
             d="m 0,0 c -2.594,0 -5.031,-0.491 -7.308,-1.472 -2.279,-0.982 -4.269,-2.325 -5.974,-4.028 -1.702,-1.705 -3.047,-3.705 -4.027,-6.001 -0.982,-2.299 -1.473,-4.741 -1.473,-7.336 0,-2.592 0.491,-5.027 1.473,-7.306 0.98,-2.277 2.325,-4.269 4.027,-5.972 1.705,-1.703 3.695,-3.047 5.974,-4.029 2.277,-0.982 4.714,-1.471 7.308,-1.471 2.591,0 5.027,0.489 7.304,1.471 2.28,0.982 4.27,2.326 5.975,4.029 1.701,1.703 3.047,3.695 4.026,5.972 0.982,2.279 1.474,4.714 1.474,7.306 0,2.595 -0.492,5.037 -1.474,7.336 -0.979,2.296 -2.325,4.296 -4.026,6.001 -1.705,1.703 -3.695,3.046 -5.975,4.028 C 5.027,-0.491 2.591,0 0,0 Z m 0,-38.672 c -2.742,0 -5.316,0.519 -7.725,1.556 -2.408,1.037 -4.51,2.455 -6.305,4.251 -1.798,1.796 -3.214,3.899 -4.251,6.307 -1.037,2.407 -1.557,4.979 -1.557,7.721 0,2.742 0.52,5.326 1.557,7.752 1.037,2.426 2.453,4.538 4.251,6.335 1.795,1.796 3.897,3.213 6.305,4.25 2.409,1.037 4.983,1.557 7.725,1.557 2.738,0 5.313,-0.52 7.722,-1.557 2.408,-1.037 4.51,-2.454 6.305,-4.25 1.798,-1.797 3.214,-3.909 4.251,-6.335 1.037,-2.426 1.557,-5.01 1.557,-7.752 0,-2.742 -0.52,-5.314 -1.557,-7.721 -1.037,-2.408 -2.453,-4.511 -4.251,-6.307 -1.795,-1.796 -3.897,-3.214 -6.305,-4.251 C 5.313,-38.153 2.738,-38.672 0,-38.672 Z"
             style="fill:none;stroke:#ffffff;stroke-width:0.5;stroke-linecap:butt;stroke-linejoin:miter;stroke-miterlimit:10;stroke-dasharray:none;stroke-opacity:1"
             id="path162" />
        </g>
        <g
           id="g164"
           transform="translate(753.1162,124.0283)">
          <path
             d="M 0,0 V -39.729 H -1.11 L -30.726,-1.89 v -37.839 h -1.055 V 0 h 1.055 L -1.11,-37.896 V 0 Z"
             style="fill:#ffffff;fill-opacity:1;fill-rule:nonzero;stroke:none"
             id="path166" />
        </g>
        <g
           id="g168"
           transform="translate(753.1162,124.0283)">
          <path
             d="M 0,0 V -39.729 H -1.11 L -30.726,-1.89 v -37.839 h -1.055 V 0 h 1.055 L -1.11,-37.896 V 0 Z"
             style="fill:none;stroke:#ffffff;stroke-width:0.5;stroke-linecap:butt;stroke-linejoin:miter;stroke-miterlimit:10;stroke-dasharray:none;stroke-opacity:1"
             id="path170" />
        </g>
        <g
           id="g172"
           transform="translate(759.7305,122.9717)">
          <path
             d="m 0,0 v -18.279 h 17.504 v -1.057 H 0 v -18.279 h 23.948 v -1.057 H -1.057 V 1.057 H 23.948 V 0 Z"
             style="fill:#ffffff;fill-opacity:1;fill-rule:nonzero;stroke:none"
             id="path174" />
        </g>
        <g
           id="g176"
           transform="translate(759.7305,122.9717)">
          <path
             d="m 0,0 v -18.279 h 17.504 v -1.057 H 0 v -18.279 h 23.948 v -1.057 H -1.057 V 1.057 H 23.948 V 0 Z"
             style="fill:none;stroke:#ffffff;stroke-width:0.5;stroke-linecap:butt;stroke-linejoin:miter;stroke-miterlimit:10;stroke-dasharray:none;stroke-opacity:1"
             id="path178" />
        </g>
        <g
           id="g180"
           transform="translate(821.0146,124.0283)">
          <path
             d="M 0,0 V -39.729 H -1.111 L -30.726,-1.89 v -37.839 h -1.056 V 0 h 1.056 L -1.111,-37.896 V 0 Z"
             style="fill:#ffffff;fill-opacity:1;fill-rule:nonzero;stroke:none"
             id="path182" />
        </g>
        <g
           id="g184"
           transform="translate(821.0146,124.0283)">
          <path
             d="M 0,0 V -39.729 H -1.111 L -30.726,-1.89 v -37.839 h -1.056 V 0 h 1.056 L -1.111,-37.896 V 0 Z"
             style="fill:none;stroke:#ffffff;stroke-width:0.5;stroke-linecap:butt;stroke-linejoin:miter;stroke-miterlimit:10;stroke-dasharray:none;stroke-opacity:1"
             id="path186" />
        </g>
        <path
           d="M 52.742,74.106 H 63.511 V 84.591 H 52.742 Z"
           style="fill:#21427c;fill-opacity:1;fill-rule:nonzero;stroke:none"
           id="path188" />
        <path
           d="M 76.128,74.106 H 86.897 V 84.591 H 76.128 Z"
           style="fill:#70be44;fill-opacity:1;fill-rule:nonzero;stroke:none"
           id="path190" />
        <path
           d="M 87.825,74.106 H 98.589 V 84.591 H 87.825 Z"
           style="fill:#e33b8c;fill-opacity:1;fill-rule:nonzero;stroke:none"
           id="path192" />
        <path
           d="M 98.589,96 H 87.825 V 85.517 h 10.764 z"
           style="fill:#f8e519;fill-opacity:1;fill-rule:nonzero;stroke:none"
           id="path194" />
        <path
           d="M 98.589,107.411 H 87.825 V 96.926 h 10.764 z"
           style="fill:#754122;fill-opacity:1;fill-rule:nonzero;stroke:none"
           id="path196" />
        <path
           d="M 87.825,131.156 H 98.589 V 141.64 H 87.825 Z"
           style="fill:#754122;fill-opacity:1;fill-rule:nonzero;stroke:none"
           id="path198" />
        <path
           d="M 86.897,107.411 H 76.128 V 96.926 h 10.769 z"
           style="fill:#21427c;fill-opacity:1;fill-rule:nonzero;stroke:none"
           id="path200" />
        <path
           d="M 75.202,96 H 64.436 V 85.517 h 10.766 z"
           style="fill:#754122;fill-opacity:1;fill-rule:nonzero;stroke:none"
           id="path202" />
        <path
           d="m 64.436,119.748 h 10.766 v 10.483 H 64.436 Z"
           style="fill:#754122;fill-opacity:1;fill-rule:nonzero;stroke:none"
           id="path204" />
        <path
           d="M 87.825,142.567 H 98.589 V 153.05 H 87.825 Z"
           style="fill:#f8e519;fill-opacity:1;fill-rule:nonzero;stroke:none"
           id="path206" />
        <path
           d="m 99.516,142.567 h 10.77 v 10.483 h -10.77 z"
           style="fill:#e33b8c;fill-opacity:1;fill-rule:nonzero;stroke:none"
           id="path208" />
        <path
           d="m 121.978,164.46 h -10.766 v -10.483 h 10.766 z"
           style="fill:#70be44;fill-opacity:1;fill-rule:nonzero;stroke:none"
           id="path210" />
        <path
           d="M 63.51,118.821 H 52.741 V 108.336 H 63.51 Z"
           style="fill:#21427c;fill-opacity:1;fill-rule:nonzero;stroke:none"
           id="path212" />
        <path
           d="M 75.202,118.821 H 64.436 v -10.485 h 10.766 z"
           style="fill:#70be44;fill-opacity:1;fill-rule:nonzero;stroke:none"
           id="path214" />
        <path
           d="M 41.049,74.106 H 51.816 V 84.591 H 41.049 Z"
           style="fill:#754122;fill-opacity:1;fill-rule:nonzero;stroke:none"
           id="path216" />
        <path
           d="m 41.049,96.926 h 10.767 v 10.485 H 41.049 Z"
           style="fill:#f8e519;fill-opacity:1;fill-rule:nonzero;stroke:none"
           id="path218" />
        <path
           d="M 52.742,131.156 H 63.511 V 141.64 H 52.742 Z"
           style="fill:#f8e519;fill-opacity:1;fill-rule:nonzero;stroke:none"
           id="path220" />
        <path
           d="M 75.202,153.05 H 64.436 v -10.483 h 10.766 z"
           style="fill:#21427c;fill-opacity:1;fill-rule:nonzero;stroke:none"
           id="path222" />
        <path
           d="m 29.355,119.748 h 10.768 v 10.483 H 29.355 Z"
           style="fill:#e33b8c;fill-opacity:1;fill-rule:nonzero;stroke:none"
           id="path224" />
        <path
           d="m 87.825,165.386 h 10.764 v 10.485 H 87.825 Z"
           style="fill:#754122;fill-opacity:1;fill-rule:nonzero;stroke:none"
           id="path226" />
        <path
           d="m 134.597,165.386 h 10.768 v 10.485 h -10.768 z"
           style="fill:#e33b8c;fill-opacity:1;fill-rule:nonzero;stroke:none"
           id="path228" />
        <path
           d="M 64.436,62.697 H 75.202 V 73.179 H 64.436 Z"
           style="fill:#f8e519;fill-opacity:1;fill-rule:nonzero;stroke:none"
           id="path230" />
        <path
           d="M 29.355,62.697 H 40.123 V 73.179 H 29.355 Z"
           style="fill:#70be44;fill-opacity:1;fill-rule:nonzero;stroke:none"
           id="path232" />
        <path
           d="M 76.128,51.284 H 86.897 V 61.77 H 76.128 Z"
           style="fill:#21427c;fill-opacity:1;fill-rule:nonzero;stroke:none"
           id="path234" />
        <path
           d="M 75.202,107.411 H 64.436 V 96.926 h 10.766 z"
           style="fill:#e33b8c;fill-opacity:1;fill-rule:nonzero;stroke:none"
           id="path236" />
        <path
           d="m 87.825,108.336 h 10.766 v 10.485 H 87.825 Z"
           style="fill:#e33b8c;fill-opacity:1;fill-rule:nonzero;stroke:none"
           id="path238" />
        <path
           d="M 63.51,96 H 52.741 V 85.517 H 63.51 Z"
           style="fill:#70be44;fill-opacity:1;fill-rule:nonzero;stroke:none"
           id="path240" />
        <path
           d="m 99.516,62.697 h 10.77 v 10.482 h -10.77 z"
           style="fill:#754122;fill-opacity:1;fill-rule:nonzero;stroke:none"
           id="path242" />
        <g
           id="g244"
           transform="translate(543.5635,50.6465)">
          <path
             d="m 0,0 v -0.438 h -10.425 v 16.454 h 0.437 L -9.988,0 Z"
             style="fill:#ffffff;fill-opacity:1;fill-rule:nonzero;stroke:none"
             id="path246" />
        </g>
        <g
           id="g248"
           transform="translate(543.5635,50.6465)">
          <path
             d="m 0,0 v -0.438 h -10.425 v 16.454 h 0.437 L -9.988,0 Z"
             style="fill:none;stroke:#ffffff;stroke-width:0.5;stroke-linecap:butt;stroke-linejoin:miter;stroke-miterlimit:10;stroke-dasharray:none;stroke-opacity:1"
             id="path250" />
        </g>
        <g
           id="g252"
           transform="translate(549.3613,66.2256)">
          <path
             d="m 0,0 v -15.579 h 3.062 v -0.439 h -6.56 v 0.439 h 3.061 V 0 h -3.061 v 0.437 h 6.56 V 0 Z"
             style="fill:#ffffff;fill-opacity:1;fill-rule:nonzero;stroke:none"
             id="path254" />
        </g>
        <g
           id="g256"
           transform="translate(549.3613,66.2256)">
          <path
             d="m 0,0 v -15.579 h 3.062 v -0.439 h -6.56 v 0.439 h 3.061 V 0 h -3.061 v 0.437 h 6.56 V 0 Z"
             style="fill:none;stroke:#ffffff;stroke-width:0.5;stroke-linecap:butt;stroke-linejoin:miter;stroke-miterlimit:10;stroke-dasharray:none;stroke-opacity:1"
             id="path258" />
        </g>
        <g
           id="g260"
           transform="translate(567.8887,66.6621)">
          <path
             d="m 0,0 v -16.454 h -0.461 l -12.266,15.673 v -15.673 h -0.438 V 0 h 0.438 L -0.461,-15.694 V 0 Z"
             style="fill:#ffffff;fill-opacity:1;fill-rule:nonzero;stroke:none"
             id="path262" />
        </g>
        <g
           id="g264"
           transform="translate(567.8887,66.6621)">
          <path
             d="m 0,0 v -16.454 h -0.461 l -12.266,15.673 v -15.673 h -0.438 V 0 h 0.438 L -0.461,-15.694 V 0 Z"
             style="fill:none;stroke:#ffffff;stroke-width:0.5;stroke-linecap:butt;stroke-linejoin:miter;stroke-miterlimit:10;stroke-dasharray:none;stroke-opacity:1"
             id="path266" />
        </g>
        <g
           id="g268"
           transform="translate(572.168,58.9521)">
          <path
             d="M 0,0 -1.542,-1.541 V -8.744 H -1.979 V 7.71 h 0.437 v -8.63 l 8.63,8.63 H 7.733 L 0.323,0.3 9.367,-8.744 H 8.746 Z"
             style="fill:#ffffff;fill-opacity:1;fill-rule:nonzero;stroke:none"
             id="path270" />
        </g>
        <g
           id="g272"
           transform="translate(572.168,58.9521)">
          <path
             d="M 0,0 -1.542,-1.541 V -8.744 H -1.979 V 7.71 h 0.437 v -8.63 l 8.63,8.63 H 7.733 L 0.323,0.3 9.367,-8.744 H 8.746 Z"
             style="fill:none;stroke:#ffffff;stroke-width:0.5;stroke-linecap:butt;stroke-linejoin:miter;stroke-miterlimit:10;stroke-dasharray:none;stroke-opacity:1"
             id="path274" />
        </g>
        <g
           id="g276"
           transform="translate(593.248,68.8604)">
          <path
             d="m 0,0 c -0.122,-0.116 -0.184,-0.257 -0.184,-0.426 0,-0.168 0.062,-0.314 0.184,-0.438 0.123,-0.121 0.27,-0.183 0.437,-0.183 0.169,0 0.315,0.062 0.437,0.183 0.124,0.124 0.185,0.27 0.185,0.438 0,0.169 -0.061,0.31 -0.185,0.426 C 0.752,0.115 0.606,0.173 0.437,0.173 0.27,0.173 0.123,0.115 0,0 m -3.383,0 c -0.124,-0.116 -0.184,-0.257 -0.184,-0.426 0,-0.168 0.06,-0.314 0.184,-0.438 0.122,-0.121 0.268,-0.183 0.437,-0.183 0.169,0 0.314,0.062 0.438,0.183 0.122,0.124 0.183,0.27 0.183,0.438 0,0.169 -0.061,0.31 -0.183,0.426 -0.124,0.115 -0.269,0.173 -0.438,0.173 -0.169,0 -0.315,-0.058 -0.437,-0.173 m -0.84,-3.244 c -0.943,-0.406 -1.768,-0.964 -2.473,-1.668 -0.706,-0.707 -1.264,-1.535 -1.669,-2.485 -0.406,-0.954 -0.611,-1.965 -0.611,-3.04 0,-1.073 0.205,-2.082 0.611,-3.025 0.405,-0.944 0.963,-1.769 1.669,-2.476 0.705,-0.705 1.53,-1.261 2.473,-1.666 0.945,-0.408 1.952,-0.61 3.027,-0.61 1.074,0 2.082,0.202 3.026,0.61 0.943,0.405 1.769,0.961 2.474,1.666 0.706,0.707 1.261,1.532 1.669,2.476 0.406,0.943 0.61,1.952 0.61,3.025 0,1.075 -0.204,2.086 -0.61,3.04 -0.408,0.95 -0.963,1.778 -1.669,2.485 -0.705,0.704 -1.531,1.262 -2.474,1.668 -0.944,0.406 -1.952,0.609 -3.026,0.609 -1.075,0 -2.082,-0.203 -3.027,-0.609 m -0.173,-14.765 c -0.997,0.431 -1.867,1.019 -2.612,1.762 -0.745,0.743 -1.331,1.614 -1.761,2.611 -0.428,0.999 -0.643,2.065 -0.643,3.199 0,1.135 0.215,2.205 0.643,3.211 0.43,1.003 1.016,1.88 1.761,2.623 0.745,0.744 1.615,1.332 2.612,1.761 0.998,0.431 2.065,0.644 3.2,0.644 1.134,0 2.201,-0.213 3.199,-0.644 C 3,-3.271 3.87,-3.859 4.615,-4.603 c 0.743,-0.743 1.33,-1.62 1.759,-2.623 0.431,-1.006 0.646,-2.076 0.646,-3.211 0,-1.134 -0.215,-2.2 -0.646,-3.199 C 5.945,-14.633 5.358,-15.504 4.615,-16.247 3.87,-16.99 3,-17.578 2.003,-18.009 c -0.998,-0.429 -2.065,-0.643 -3.199,-0.643 -1.135,0 -2.202,0.214 -3.2,0.643"
             style="fill:#ffffff;fill-opacity:1;fill-rule:nonzero;stroke:none"
             id="path278" />
        </g>
        <g
           id="g280"
           transform="translate(593.248,68.8604)">
          <path
             d="m 0,0 c -0.122,-0.116 -0.184,-0.257 -0.184,-0.426 0,-0.168 0.062,-0.314 0.184,-0.438 0.123,-0.121 0.27,-0.183 0.437,-0.183 0.169,0 0.315,0.062 0.437,0.183 0.124,0.124 0.185,0.27 0.185,0.438 0,0.169 -0.061,0.31 -0.185,0.426 C 0.752,0.115 0.606,0.173 0.437,0.173 0.27,0.173 0.123,0.115 0,0 Z m -3.383,0 c -0.124,-0.116 -0.184,-0.257 -0.184,-0.426 0,-0.168 0.06,-0.314 0.184,-0.438 0.122,-0.121 0.268,-0.183 0.437,-0.183 0.169,0 0.314,0.062 0.438,0.183 0.122,0.124 0.183,0.27 0.183,0.438 0,0.169 -0.061,0.31 -0.183,0.426 -0.124,0.115 -0.269,0.173 -0.438,0.173 -0.169,0 -0.315,-0.058 -0.437,-0.173 z m -0.84,-3.244 c -0.943,-0.406 -1.768,-0.964 -2.473,-1.668 -0.706,-0.707 -1.264,-1.535 -1.669,-2.485 -0.406,-0.954 -0.611,-1.965 -0.611,-3.04 0,-1.073 0.205,-2.082 0.611,-3.025 0.405,-0.944 0.963,-1.769 1.669,-2.476 0.705,-0.705 1.53,-1.261 2.473,-1.666 0.945,-0.408 1.952,-0.61 3.027,-0.61 1.074,0 2.082,0.202 3.026,0.61 0.943,0.405 1.769,0.961 2.474,1.666 0.706,0.707 1.261,1.532 1.669,2.476 0.406,0.943 0.61,1.952 0.61,3.025 0,1.075 -0.204,2.086 -0.61,3.04 -0.408,0.95 -0.963,1.778 -1.669,2.485 -0.705,0.704 -1.531,1.262 -2.474,1.668 -0.944,0.406 -1.952,0.609 -3.026,0.609 -1.075,0 -2.082,-0.203 -3.027,-0.609 z m -0.173,-14.765 c -0.997,0.431 -1.867,1.019 -2.612,1.762 -0.745,0.743 -1.331,1.614 -1.761,2.611 -0.428,0.999 -0.643,2.065 -0.643,3.199 0,1.135 0.215,2.205 0.643,3.211 0.43,1.003 1.016,1.88 1.761,2.623 0.745,0.744 1.615,1.332 2.612,1.761 0.998,0.431 2.065,0.644 3.2,0.644 1.134,0 2.201,-0.213 3.199,-0.644 C 3,-3.271 3.87,-3.859 4.615,-4.603 c 0.743,-0.743 1.33,-1.62 1.759,-2.623 0.431,-1.006 0.646,-2.076 0.646,-3.211 0,-1.134 -0.215,-2.2 -0.646,-3.199 C 5.945,-14.633 5.358,-15.504 4.615,-16.247 3.87,-16.99 3,-17.578 2.003,-18.009 c -0.998,-0.429 -2.065,-0.643 -3.199,-0.643 -1.135,0 -2.202,0.214 -3.2,0.643 z"
             style="fill:none;stroke:#ffffff;stroke-width:0.5;stroke-linecap:butt;stroke-linejoin:miter;stroke-miterlimit:10;stroke-dasharray:none;stroke-opacity:1"
             id="path282" />
        </g>
        <g
           id="g284"
           transform="translate(603.0059,58.6533)">
          <path
             d="M 0,0 H 6.192 C 6.714,0 7.2,0.1 7.652,0.299 8.105,0.5 8.5,0.771 8.838,1.117 c 0.338,0.344 0.606,0.744 0.806,1.196 0.199,0.454 0.299,0.94 0.299,1.463 0,0.52 -0.1,1.011 -0.299,1.472 C 9.444,5.709 9.176,6.11 8.838,6.457 8.5,6.801 8.105,7.073 7.652,7.272 7.2,7.472 6.714,7.572 6.192,7.572 H 0 Z M -0.437,-8.445 V 8.009 h 6.629 c 0.582,0 1.13,-0.111 1.646,-0.332 C 8.352,7.452 8.796,7.15 9.172,6.767 9.547,6.383 9.848,5.934 10.068,5.42 10.292,4.906 10.402,4.357 10.402,3.776 10.402,3.191 10.292,2.643 10.068,2.129 9.848,1.615 9.547,1.171 9.172,0.795 8.796,0.418 8.352,0.119 7.838,-0.103 7.322,-0.325 6.774,-0.437 6.192,-0.437 H 0 v -8.008 z"
             style="fill:#ffffff;fill-opacity:1;fill-rule:nonzero;stroke:none"
             id="path286" />
        </g>
        <g
           id="g288"
           transform="translate(603.0059,58.6533)">
          <path
             d="M 0,0 H 6.192 C 6.714,0 7.2,0.1 7.652,0.299 8.105,0.5 8.5,0.771 8.838,1.117 c 0.338,0.344 0.606,0.744 0.806,1.196 0.199,0.454 0.299,0.94 0.299,1.463 0,0.52 -0.1,1.011 -0.299,1.472 C 9.444,5.709 9.176,6.11 8.838,6.457 8.5,6.801 8.105,7.073 7.652,7.272 7.2,7.472 6.714,7.572 6.192,7.572 H 0 Z M -0.437,-8.445 V 8.009 h 6.629 c 0.582,0 1.13,-0.111 1.646,-0.332 C 8.352,7.452 8.796,7.15 9.172,6.767 9.547,6.383 9.848,5.934 10.068,5.42 10.292,4.906 10.402,4.357 10.402,3.776 10.402,3.191 10.292,2.643 10.068,2.129 9.848,1.615 9.547,1.171 9.172,0.795 8.796,0.418 8.352,0.119 7.838,-0.103 7.322,-0.325 6.774,-0.437 6.192,-0.437 H 0 v -8.008 z"
             style="fill:none;stroke:#ffffff;stroke-width:0.5;stroke-linecap:butt;stroke-linejoin:miter;stroke-miterlimit:10;stroke-dasharray:none;stroke-opacity:1"
             id="path290" />
        </g>
        <g
           id="g292"
           transform="translate(618.127,66.2256)">
          <path
             d="m 0,0 v -15.579 h 3.061 v -0.439 h -6.559 v 0.439 h 3.061 V 0 H -3.498 V 0.437 H 3.061 V 0 Z"
             style="fill:#ffffff;fill-opacity:1;fill-rule:nonzero;stroke:none"
             id="path294" />
        </g>
        <g
           id="g296"
           transform="translate(618.127,66.2256)">
          <path
             d="m 0,0 v -15.579 h 3.061 v -0.439 h -6.559 v 0.439 h 3.061 V 0 H -3.498 V 0.437 H 3.061 V 0 Z"
             style="fill:none;stroke:#ffffff;stroke-width:0.5;stroke-linecap:butt;stroke-linejoin:miter;stroke-miterlimit:10;stroke-dasharray:none;stroke-opacity:1"
             id="path298" />
        </g>
        <g
           id="g300"
           transform="translate(636.6514,66.6621)">
          <path
             d="m 0,0 v -16.454 h -0.46 l -12.267,15.673 v -15.673 h -0.436 V 0 h 0.436 L -0.46,-15.694 V 0 Z"
             style="fill:#ffffff;fill-opacity:1;fill-rule:nonzero;stroke:none"
             id="path302" />
        </g>
        <g
           id="g304"
           transform="translate(636.6514,66.6621)">
          <path
             d="m 0,0 v -16.454 h -0.46 l -12.267,15.673 v -15.673 h -0.436 V 0 h 0.436 L -0.46,-15.694 V 0 Z"
             style="fill:none;stroke:#ffffff;stroke-width:0.5;stroke-linecap:butt;stroke-linejoin:miter;stroke-miterlimit:10;stroke-dasharray:none;stroke-opacity:1"
             id="path306" />
        </g>
        <g
           id="g308"
           transform="translate(655.248,56.9521)">
          <path
             d="m 0,0 c -0.169,-0.967 -0.5,-1.862 -0.991,-2.681 -0.491,-0.822 -1.093,-1.532 -1.806,-2.131 -0.713,-0.598 -1.518,-1.07 -2.416,-1.414 -0.897,-0.346 -1.852,-0.518 -2.865,-0.518 -1.135,0 -2.203,0.214 -3.199,0.643 -0.997,0.431 -1.868,1.019 -2.613,1.762 -0.745,0.743 -1.331,1.614 -1.76,2.611 -0.429,0.999 -0.644,2.065 -0.644,3.2 0,1.134 0.215,2.204 0.644,3.211 0.429,1.003 1.015,1.879 1.76,2.623 0.745,0.743 1.616,1.331 2.613,1.76 0.996,0.431 2.064,0.644 3.199,0.644 1.013,0 1.968,-0.171 2.865,-0.519 C -4.315,8.849 -3.51,8.373 -2.797,7.767 -2.084,7.159 -1.482,6.447 -0.991,5.625 -0.5,4.805 -0.169,3.92 0,2.968 h -0.437 c -0.17,0.889 -0.488,1.722 -0.956,2.496 -0.468,0.774 -1.04,1.442 -1.713,2.004 -0.676,0.558 -1.439,1 -2.291,1.323 -0.851,0.32 -1.746,0.482 -2.681,0.482 -1.074,0 -2.082,-0.203 -3.026,-0.609 -0.944,-0.406 -1.769,-0.964 -2.474,-1.668 -0.706,-0.707 -1.264,-1.535 -1.67,-2.485 -0.405,-0.953 -0.609,-1.965 -0.609,-3.039 0,-1.074 0.204,-2.082 0.609,-3.026 0.406,-0.944 0.964,-1.769 1.67,-2.475 0.705,-0.705 1.53,-1.262 2.474,-1.666 0.944,-0.409 1.952,-0.611 3.026,-0.611 0.905,0 1.767,0.145 2.589,0.437 0.82,0.291 1.56,0.696 2.22,1.22 0.66,0.52 1.228,1.143 1.704,1.864 0.474,0.721 0.82,1.504 1.035,2.347 H -7.617 V 0 Z"
             style="fill:#ffffff;fill-opacity:1;fill-rule:nonzero;stroke:none"
             id="path310" />
        </g>
        <g
           id="g312"
           transform="translate(655.248,56.9521)">
          <path
             d="m 0,0 c -0.169,-0.967 -0.5,-1.862 -0.991,-2.681 -0.491,-0.822 -1.093,-1.532 -1.806,-2.131 -0.713,-0.598 -1.518,-1.07 -2.416,-1.414 -0.897,-0.346 -1.852,-0.518 -2.865,-0.518 -1.135,0 -2.203,0.214 -3.199,0.643 -0.997,0.431 -1.868,1.019 -2.613,1.762 -0.745,0.743 -1.331,1.614 -1.76,2.611 -0.429,0.999 -0.644,2.065 -0.644,3.2 0,1.134 0.215,2.204 0.644,3.211 0.429,1.003 1.015,1.879 1.76,2.623 0.745,0.743 1.616,1.331 2.613,1.76 0.996,0.431 2.064,0.644 3.199,0.644 1.013,0 1.968,-0.171 2.865,-0.519 C -4.315,8.849 -3.51,8.373 -2.797,7.767 -2.084,7.159 -1.482,6.447 -0.991,5.625 -0.5,4.805 -0.169,3.92 0,2.968 h -0.437 c -0.17,0.889 -0.488,1.722 -0.956,2.496 -0.468,0.774 -1.04,1.442 -1.713,2.004 -0.676,0.558 -1.439,1 -2.291,1.323 -0.851,0.32 -1.746,0.482 -2.681,0.482 -1.074,0 -2.082,-0.203 -3.026,-0.609 -0.944,-0.406 -1.769,-0.964 -2.474,-1.668 -0.706,-0.707 -1.264,-1.535 -1.67,-2.485 -0.405,-0.953 -0.609,-1.965 -0.609,-3.039 0,-1.074 0.204,-2.082 0.609,-3.026 0.406,-0.944 0.964,-1.769 1.67,-2.475 0.705,-0.705 1.53,-1.262 2.474,-1.666 0.944,-0.409 1.952,-0.611 3.026,-0.611 0.905,0 1.767,0.145 2.589,0.437 0.82,0.291 1.56,0.696 2.22,1.22 0.66,0.52 1.228,1.143 1.704,1.864 0.474,0.721 0.82,1.504 1.035,2.347 H -7.617 V 0 Z"
             style="fill:none;stroke:#ffffff;stroke-width:0.5;stroke-linecap:butt;stroke-linejoin:miter;stroke-miterlimit:10;stroke-dasharray:none;stroke-opacity:1"
             id="path314" />
        </g>
        <g
           id="g316"
           transform="translate(665.1055,58.5859)">
          <path
             d="M 0,0 C 0.581,-0.093 1.121,-0.263 1.618,-0.507 2.116,-0.753 2.545,-1.06 2.904,-1.429 3.264,-1.796 3.548,-2.215 3.755,-2.683 3.961,-3.149 4.064,-3.644 4.064,-4.167 4.064,-4.75 3.935,-5.297 3.673,-5.811 3.413,-6.326 3.054,-6.771 2.595,-7.146 2.136,-7.522 1.6,-7.82 0.986,-8.044 0.374,-8.267 -0.284,-8.378 -0.988,-8.378 h -1.516 c -0.69,0 -1.341,0.111 -1.952,0.334 -0.613,0.224 -1.149,0.522 -1.608,0.898 -0.459,0.375 -0.824,0.82 -1.092,1.335 -0.268,0.514 -0.402,1.061 -0.402,1.644 v 0.093 h 0.531 v -0.093 c 0,-0.52 0.118,-1.008 0.354,-1.461 0.237,-0.453 0.564,-0.851 0.976,-1.197 0.414,-0.344 0.892,-0.616 1.435,-0.816 0.544,-0.199 1.13,-0.298 1.758,-0.298 h 1.516 c 0.627,0 1.217,0.099 1.767,0.298 0.552,0.2 1.031,0.472 1.435,0.816 0.406,0.346 0.727,0.744 0.965,1.197 0.237,0.453 0.356,0.941 0.356,1.461 0,0.523 -0.119,1.015 -0.356,1.474 -0.238,0.459 -0.559,0.863 -0.965,1.207 -0.404,0.346 -0.883,0.618 -1.435,0.818 -0.55,0.199 -1.14,0.299 -1.767,0.299 -0.644,-0.032 -1.184,-0.019 -1.62,0.035 -0.437,0.054 -0.791,0.119 -1.068,0.196 -0.321,0.076 -0.589,0.167 -0.803,0.277 -0.795,0.474 -1.42,1.01 -1.872,1.609 -0.452,0.6 -0.676,1.296 -0.676,2.096 0,0.581 0.132,1.13 0.401,1.643 0.268,0.514 0.631,0.963 1.091,1.347 0.46,0.384 0.994,0.686 1.607,0.91 0.612,0.222 1.264,0.332 1.952,0.332 h 0.459 c 0.673,0 1.309,-0.103 1.906,-0.309 C 0.986,7.558 1.511,7.275 1.962,6.916 2.413,6.553 2.78,6.129 3.064,5.638 3.348,5.146 3.505,4.625 3.535,4.073 H 3.006 C 2.975,4.562 2.834,5.028 2.58,5.465 2.326,5.901 2.001,6.282 1.603,6.604 1.203,6.926 0.735,7.18 0.198,7.364 -0.338,7.549 -0.906,7.64 -1.506,7.64 H -1.965 C -2.594,7.64 -3.182,7.539 -3.726,7.34 -4.27,7.141 -4.75,6.868 -5.164,6.524 -5.578,6.178 -5.904,5.776 -6.142,5.315 -6.381,4.854 -6.5,4.363 -6.5,3.844 -6.5,3.32 -6.381,2.834 -6.144,2.381 -5.905,1.929 -5.58,1.528 -5.167,1.185 -4.753,0.838 -4.276,0.567 -3.732,0.366 -3.188,0.167 -2.604,0.067 -1.975,0.067 h 0.735 c 0.215,0 0.431,-0.003 0.654,-0.01 C -0.364,0.049 -0.168,0.029 0,0"
             style="fill:#ffffff;fill-opacity:1;fill-rule:nonzero;stroke:none"
             id="path318" />
        </g>
        <g
           id="g320"
           transform="translate(665.1055,58.5859)">
          <path
             d="M 0,0 C 0.581,-0.093 1.121,-0.263 1.618,-0.507 2.116,-0.753 2.545,-1.06 2.904,-1.429 3.264,-1.796 3.548,-2.215 3.755,-2.683 3.961,-3.149 4.064,-3.644 4.064,-4.167 4.064,-4.75 3.935,-5.297 3.673,-5.811 3.413,-6.326 3.054,-6.771 2.595,-7.146 2.136,-7.522 1.6,-7.82 0.986,-8.044 0.374,-8.267 -0.284,-8.378 -0.988,-8.378 h -1.516 c -0.69,0 -1.341,0.111 -1.952,0.334 -0.613,0.224 -1.149,0.522 -1.608,0.898 -0.459,0.375 -0.824,0.82 -1.092,1.335 -0.268,0.514 -0.402,1.061 -0.402,1.644 v 0.093 h 0.531 v -0.093 c 0,-0.52 0.118,-1.008 0.354,-1.461 0.237,-0.453 0.564,-0.851 0.976,-1.197 0.414,-0.344 0.892,-0.616 1.435,-0.816 0.544,-0.199 1.13,-0.298 1.758,-0.298 h 1.516 c 0.627,0 1.217,0.099 1.767,0.298 0.552,0.2 1.031,0.472 1.435,0.816 0.406,0.346 0.727,0.744 0.965,1.197 0.237,0.453 0.356,0.941 0.356,1.461 0,0.523 -0.119,1.015 -0.356,1.474 -0.238,0.459 -0.559,0.863 -0.965,1.207 -0.404,0.346 -0.883,0.618 -1.435,0.818 -0.55,0.199 -1.14,0.299 -1.767,0.299 -0.644,-0.032 -1.184,-0.019 -1.62,0.035 -0.437,0.054 -0.791,0.119 -1.068,0.196 -0.321,0.076 -0.589,0.167 -0.803,0.277 -0.795,0.474 -1.42,1.01 -1.872,1.609 -0.452,0.6 -0.676,1.296 -0.676,2.096 0,0.581 0.132,1.13 0.401,1.643 0.268,0.514 0.631,0.963 1.091,1.347 0.46,0.384 0.994,0.686 1.607,0.91 0.612,0.222 1.264,0.332 1.952,0.332 h 0.459 c 0.673,0 1.309,-0.103 1.906,-0.309 C 0.986,7.558 1.511,7.275 1.962,6.916 2.413,6.553 2.78,6.129 3.064,5.638 3.348,5.146 3.505,4.625 3.535,4.073 H 3.006 C 2.975,4.562 2.834,5.028 2.58,5.465 2.326,5.901 2.001,6.282 1.603,6.604 1.203,6.926 0.735,7.18 0.198,7.364 -0.338,7.549 -0.906,7.64 -1.506,7.64 H -1.965 C -2.594,7.64 -3.182,7.539 -3.726,7.34 -4.27,7.141 -4.75,6.868 -5.164,6.524 -5.578,6.178 -5.904,5.776 -6.142,5.315 -6.381,4.854 -6.5,4.363 -6.5,3.844 -6.5,3.32 -6.381,2.834 -6.144,2.381 -5.905,1.929 -5.58,1.528 -5.167,1.185 -4.753,0.838 -4.276,0.567 -3.732,0.366 -3.188,0.167 -2.604,0.067 -1.975,0.067 h 0.735 c 0.215,0 0.431,-0.003 0.654,-0.01 C -0.364,0.049 -0.168,0.029 0,0 Z"
             style="fill:none;stroke:#ffffff;stroke-width:0.5;stroke-linecap:butt;stroke-linejoin:miter;stroke-miterlimit:10;stroke-dasharray:none;stroke-opacity:1"
             id="path322" />
        </g>
        <g
           id="g324"
           transform="translate(691.999,66.6621)">
          <path
             d="m 0,0 v -10.124 c 0,-0.877 -0.165,-1.697 -0.494,-2.463 -0.331,-0.767 -0.783,-1.438 -1.359,-2.015 -0.576,-0.576 -1.247,-1.029 -2.014,-1.358 -0.767,-0.329 -1.587,-0.494 -2.462,-0.494 -0.873,0 -1.695,0.165 -2.463,0.494 -0.768,0.329 -1.438,0.782 -2.013,1.358 -0.575,0.577 -1.027,1.248 -1.358,2.015 -0.329,0.766 -0.494,1.586 -0.494,2.463 V 0 h 0.436 v -10.124 c 0,-0.815 0.155,-1.576 0.461,-2.291 0.307,-0.714 0.729,-1.339 1.267,-1.877 0.536,-0.536 1.162,-0.958 1.875,-1.265 0.713,-0.306 1.476,-0.459 2.289,-0.459 0.813,0 1.576,0.153 2.291,0.459 0.712,0.307 1.339,0.729 1.875,1.265 0.537,0.538 0.958,1.163 1.267,1.877 0.305,0.715 0.459,1.476 0.459,2.291 H -0.46 L -0.46,0 Z"
             style="fill:#ffffff;fill-opacity:1;fill-rule:nonzero;stroke:none"
             id="path326" />
        </g>
        <g
           id="g328"
           transform="translate(691.999,66.6621)">
          <path
             d="m 0,0 v -10.124 c 0,-0.877 -0.165,-1.697 -0.494,-2.463 -0.331,-0.767 -0.783,-1.438 -1.359,-2.015 -0.576,-0.576 -1.247,-1.029 -2.014,-1.358 -0.767,-0.329 -1.587,-0.494 -2.462,-0.494 -0.873,0 -1.695,0.165 -2.463,0.494 -0.768,0.329 -1.438,0.782 -2.013,1.358 -0.575,0.577 -1.027,1.248 -1.358,2.015 -0.329,0.766 -0.494,1.586 -0.494,2.463 V 0 h 0.436 v -10.124 c 0,-0.815 0.155,-1.576 0.461,-2.291 0.307,-0.714 0.729,-1.339 1.267,-1.877 0.536,-0.536 1.162,-0.958 1.875,-1.265 0.713,-0.306 1.476,-0.459 2.289,-0.459 0.813,0 1.576,0.153 2.291,0.459 0.712,0.307 1.339,0.729 1.875,1.265 0.537,0.538 0.958,1.163 1.267,1.877 0.305,0.715 0.459,1.476 0.459,2.291 H -0.46 L -0.46,0 Z"
             style="fill:none;stroke:#ffffff;stroke-width:0.5;stroke-linecap:butt;stroke-linejoin:miter;stroke-miterlimit:10;stroke-dasharray:none;stroke-opacity:1"
             id="path330" />
        </g>
        <g
           id="g332"
           transform="translate(707.4648,66.6621)">
          <path
             d="m 0,0 v -16.454 h -0.461 l -12.266,15.673 v -15.673 h -0.436 V 0 h 0.436 L -0.461,-15.694 V 0 Z"
             style="fill:#ffffff;fill-opacity:1;fill-rule:nonzero;stroke:none"
             id="path334" />
        </g>
        <g
           id="g336"
           transform="translate(707.4648,66.6621)">
          <path
             d="m 0,0 v -16.454 h -0.461 l -12.266,15.673 v -15.673 h -0.436 V 0 h 0.436 L -0.461,-15.694 V 0 Z"
             style="fill:none;stroke:#ffffff;stroke-width:0.5;stroke-linecap:butt;stroke-linejoin:miter;stroke-miterlimit:10;stroke-dasharray:none;stroke-opacity:1"
             id="path338" />
        </g>
        <g
           id="g340"
           transform="translate(713.2637,66.2256)">
          <path
             d="m 0,0 v -15.579 h 3.061 v -0.439 h -6.559 v 0.439 h 3.061 V 0 H -3.498 V 0.437 H 3.061 V 0 Z"
             style="fill:#ffffff;fill-opacity:1;fill-rule:nonzero;stroke:none"
             id="path342" />
        </g>
        <g
           id="g344"
           transform="translate(713.2637,66.2256)">
          <path
             d="m 0,0 v -15.579 h 3.061 v -0.439 h -6.559 v 0.439 h 3.061 V 0 H -3.498 V 0.437 H 3.061 V 0 Z"
             style="fill:none;stroke:#ffffff;stroke-width:0.5;stroke-linecap:butt;stroke-linejoin:miter;stroke-miterlimit:10;stroke-dasharray:none;stroke-opacity:1"
             id="path346" />
        </g>
        <g
           id="g348"
           transform="translate(719.0635,66.6621)">
          <path
             d="M 0,0 6.513,-15.878 12.911,0 h 0.437 L 6.72,-16.454 H 6.283 L -0.437,0 Z"
             style="fill:#ffffff;fill-opacity:1;fill-rule:nonzero;stroke:none"
             id="path350" />
        </g>
        <g
           id="g352"
           transform="translate(719.0635,66.6621)">
          <path
             d="M 0,0 6.513,-15.878 12.911,0 h 0.437 L 6.72,-16.454 H 6.283 L -0.437,0 Z"
             style="fill:none;stroke:#ffffff;stroke-width:0.5;stroke-linecap:butt;stroke-linejoin:miter;stroke-miterlimit:10;stroke-dasharray:none;stroke-opacity:1"
             id="path354" />
        </g>
        <g
           id="g356"
           transform="translate(735.1484,66.2256)">
          <path
             d="M 0,0 V -7.572 H 7.25 V -8.009 H 0 v -7.57 h 9.919 v -0.439 H -0.437 V 0.437 H 9.919 V 0 Z"
             style="fill:#ffffff;fill-opacity:1;fill-rule:nonzero;stroke:none"
             id="path358" />
        </g>
        <g
           id="g360"
           transform="translate(735.1484,66.2256)">
          <path
             d="M 0,0 V -7.572 H 7.25 V -8.009 H 0 v -7.57 h 9.919 v -0.439 H -0.437 V 0.437 H 9.919 V 0 Z"
             style="fill:none;stroke:#ffffff;stroke-width:0.5;stroke-linecap:butt;stroke-linejoin:miter;stroke-miterlimit:10;stroke-dasharray:none;stroke-opacity:1"
             id="path362" />
        </g>
        <g
           id="g364"
           transform="translate(747.8066,58.6533)">
          <path
             d="M 0,0 H 5.915 C 6.437,0 6.924,0.1 7.376,0.299 7.829,0.5 8.229,0.771 8.573,1.117 8.919,1.461 9.19,1.861 9.389,2.313 c 0.201,0.454 0.3,0.94 0.3,1.463 0,0.52 -0.099,1.011 -0.3,1.472 C 9.19,5.709 8.919,6.11 8.573,6.457 8.229,6.801 7.829,7.073 7.376,7.272 c -0.452,0.2 -0.939,0.3 -1.461,0.3 H 0 Z m 1.128,-0.437 8.998,-8.008 H 9.505 L 0.507,-0.437 H 0 V -8.445 H -0.437 V 8.009 h 6.352 c 0.583,0 1.13,-0.111 1.646,-0.332 C 8.074,7.452 8.519,7.15 8.895,6.767 9.271,6.383 9.57,5.934 9.792,5.42 10.016,4.906 10.126,4.357 10.126,3.776 10.126,3.191 10.016,2.643 9.792,2.129 9.57,1.615 9.271,1.171 8.895,0.795 8.519,0.418 8.074,0.119 7.561,-0.103 7.045,-0.325 6.498,-0.437 5.915,-0.437 Z"
             style="fill:#ffffff;fill-opacity:1;fill-rule:nonzero;stroke:none"
             id="path366" />
        </g>
        <g
           id="g368"
           transform="translate(747.8066,58.6533)">
          <path
             d="M 0,0 H 5.915 C 6.437,0 6.924,0.1 7.376,0.299 7.829,0.5 8.229,0.771 8.573,1.117 8.919,1.461 9.19,1.861 9.389,2.313 c 0.201,0.454 0.3,0.94 0.3,1.463 0,0.52 -0.099,1.011 -0.3,1.472 C 9.19,5.709 8.919,6.11 8.573,6.457 8.229,6.801 7.829,7.073 7.376,7.272 c -0.452,0.2 -0.939,0.3 -1.461,0.3 H 0 Z m 1.128,-0.437 8.998,-8.008 H 9.505 L 0.507,-0.437 H 0 V -8.445 H -0.437 V 8.009 h 6.352 c 0.583,0 1.13,-0.111 1.646,-0.332 C 8.074,7.452 8.519,7.15 8.895,6.767 9.271,6.383 9.57,5.934 9.792,5.42 10.016,4.906 10.126,4.357 10.126,3.776 10.126,3.191 10.016,2.643 9.792,2.129 9.57,1.615 9.271,1.171 8.895,0.795 8.519,0.418 8.074,0.119 7.561,-0.103 7.045,-0.325 6.498,-0.437 5.915,-0.437 Z"
             style="fill:none;stroke:#ffffff;stroke-width:0.5;stroke-linecap:butt;stroke-linejoin:miter;stroke-miterlimit:10;stroke-dasharray:none;stroke-opacity:1"
             id="path370" />
        </g>
        <g
           id="g372"
           transform="translate(767.792,58.5859)">
          <path
             d="m 0,0 c 0.581,-0.093 1.121,-0.263 1.618,-0.507 0.498,-0.246 0.927,-0.553 1.286,-0.922 0.36,-0.367 0.644,-0.786 0.851,-1.254 0.206,-0.466 0.31,-0.961 0.31,-1.484 0,-0.583 -0.13,-1.13 -0.392,-1.644 C 3.413,-6.326 3.054,-6.771 2.595,-7.146 2.136,-7.522 1.6,-7.82 0.986,-8.044 0.374,-8.267 -0.284,-8.378 -0.988,-8.378 h -1.516 c -0.69,0 -1.341,0.111 -1.952,0.334 -0.613,0.224 -1.149,0.522 -1.608,0.898 -0.459,0.375 -0.824,0.82 -1.092,1.335 -0.268,0.514 -0.402,1.061 -0.402,1.644 v 0.093 h 0.531 v -0.093 c 0,-0.52 0.118,-1.008 0.354,-1.461 0.237,-0.453 0.564,-0.851 0.976,-1.197 0.415,-0.344 0.892,-0.616 1.435,-0.816 0.544,-0.199 1.13,-0.298 1.758,-0.298 h 1.516 c 0.627,0 1.217,0.099 1.767,0.298 0.552,0.2 1.031,0.472 1.435,0.816 0.406,0.346 0.727,0.744 0.965,1.197 0.237,0.453 0.356,0.941 0.356,1.461 0,0.523 -0.119,1.015 -0.356,1.474 -0.238,0.459 -0.559,0.863 -0.965,1.207 -0.404,0.346 -0.883,0.618 -1.435,0.818 -0.55,0.199 -1.14,0.299 -1.767,0.299 -0.644,-0.032 -1.184,-0.019 -1.62,0.035 -0.437,0.054 -0.791,0.119 -1.068,0.196 -0.321,0.076 -0.589,0.167 -0.803,0.277 -0.795,0.474 -1.42,1.01 -1.872,1.609 -0.452,0.6 -0.676,1.296 -0.676,2.096 0,0.581 0.132,1.13 0.401,1.643 0.268,0.514 0.631,0.963 1.091,1.347 0.46,0.384 0.994,0.686 1.607,0.91 0.612,0.222 1.264,0.332 1.952,0.332 h 0.459 c 0.673,0 1.309,-0.103 1.906,-0.309 C 0.986,7.558 1.511,7.275 1.962,6.916 2.413,6.553 2.78,6.129 3.064,5.638 3.348,5.146 3.505,4.625 3.535,4.073 H 3.006 C 2.975,4.562 2.834,5.028 2.58,5.465 2.326,5.901 2.001,6.282 1.603,6.604 1.203,6.926 0.735,7.18 0.198,7.364 -0.339,7.549 -0.906,7.64 -1.506,7.64 H -1.965 C -2.594,7.64 -3.182,7.539 -3.726,7.34 -4.27,7.141 -4.75,6.868 -5.164,6.524 -5.578,6.178 -5.904,5.776 -6.142,5.315 -6.381,4.854 -6.5,4.363 -6.5,3.844 -6.5,3.32 -6.381,2.834 -6.144,2.381 -5.905,1.929 -5.58,1.528 -5.167,1.185 -4.753,0.838 -4.276,0.567 -3.732,0.366 -3.188,0.167 -2.604,0.067 -1.975,0.067 h 0.735 c 0.215,0 0.431,-0.003 0.654,-0.01 C -0.364,0.049 -0.168,0.029 0,0"
             style="fill:#ffffff;fill-opacity:1;fill-rule:nonzero;stroke:none"
             id="path374" />
        </g>
        <g
           id="g376"
           transform="translate(767.792,58.5859)">
          <path
             d="m 0,0 c 0.581,-0.093 1.121,-0.263 1.618,-0.507 0.498,-0.246 0.927,-0.553 1.286,-0.922 0.36,-0.367 0.644,-0.786 0.851,-1.254 0.206,-0.466 0.31,-0.961 0.31,-1.484 0,-0.583 -0.13,-1.13 -0.392,-1.644 C 3.413,-6.326 3.054,-6.771 2.595,-7.146 2.136,-7.522 1.6,-7.82 0.986,-8.044 0.374,-8.267 -0.284,-8.378 -0.988,-8.378 h -1.516 c -0.69,0 -1.341,0.111 -1.952,0.334 -0.613,0.224 -1.149,0.522 -1.608,0.898 -0.459,0.375 -0.824,0.82 -1.092,1.335 -0.268,0.514 -0.402,1.061 -0.402,1.644 v 0.093 h 0.531 v -0.093 c 0,-0.52 0.118,-1.008 0.354,-1.461 0.237,-0.453 0.564,-0.851 0.976,-1.197 0.415,-0.344 0.892,-0.616 1.435,-0.816 0.544,-0.199 1.13,-0.298 1.758,-0.298 h 1.516 c 0.627,0 1.217,0.099 1.767,0.298 0.552,0.2 1.031,0.472 1.435,0.816 0.406,0.346 0.727,0.744 0.965,1.197 0.237,0.453 0.356,0.941 0.356,1.461 0,0.523 -0.119,1.015 -0.356,1.474 -0.238,0.459 -0.559,0.863 -0.965,1.207 -0.404,0.346 -0.883,0.618 -1.435,0.818 -0.55,0.199 -1.14,0.299 -1.767,0.299 -0.644,-0.032 -1.184,-0.019 -1.62,0.035 -0.437,0.054 -0.791,0.119 -1.068,0.196 -0.321,0.076 -0.589,0.167 -0.803,0.277 -0.795,0.474 -1.42,1.01 -1.872,1.609 -0.452,0.6 -0.676,1.296 -0.676,2.096 0,0.581 0.132,1.13 0.401,1.643 0.268,0.514 0.631,0.963 1.091,1.347 0.46,0.384 0.994,0.686 1.607,0.91 0.612,0.222 1.264,0.332 1.952,0.332 h 0.459 c 0.673,0 1.309,-0.103 1.906,-0.309 C 0.986,7.558 1.511,7.275 1.962,6.916 2.413,6.553 2.78,6.129 3.064,5.638 3.348,5.146 3.505,4.625 3.535,4.073 H 3.006 C 2.975,4.562 2.834,5.028 2.58,5.465 2.326,5.901 2.001,6.282 1.603,6.604 1.203,6.926 0.735,7.18 0.198,7.364 -0.339,7.549 -0.906,7.64 -1.506,7.64 H -1.965 C -2.594,7.64 -3.182,7.539 -3.726,7.34 -4.27,7.141 -4.75,6.868 -5.164,6.524 -5.578,6.178 -5.904,5.776 -6.142,5.315 -6.381,4.854 -6.5,4.363 -6.5,3.844 -6.5,3.32 -6.381,2.834 -6.144,2.381 -5.905,1.929 -5.58,1.528 -5.167,1.185 -4.753,0.838 -4.276,0.567 -3.732,0.366 -3.188,0.167 -2.604,0.067 -1.975,0.067 h 0.735 c 0.215,0 0.431,-0.003 0.654,-0.01 C -0.364,0.049 -0.168,0.029 0,0 Z"
             style="fill:none;stroke:#ffffff;stroke-width:0.5;stroke-linecap:butt;stroke-linejoin:miter;stroke-miterlimit:10;stroke-dasharray:none;stroke-opacity:1"
             id="path378" />
        </g>
        <g
           id="g380"
           transform="translate(776.9648,66.2256)">
          <path
             d="m 0,0 v -15.579 h 3.062 v -0.439 h -6.56 v 0.439 h 3.061 V 0 h -3.061 v 0.437 h 6.56 V 0 Z"
             style="fill:#ffffff;fill-opacity:1;fill-rule:nonzero;stroke:none"
             id="path382" />
        </g>
        <g
           id="g384"
           transform="translate(776.9648,66.2256)">
          <path
             d="m 0,0 v -15.579 h 3.062 v -0.439 h -6.56 v 0.439 h 3.061 V 0 h -3.061 v 0.437 h 6.56 V 0 Z"
             style="fill:none;stroke:#ffffff;stroke-width:0.5;stroke-linecap:butt;stroke-linejoin:miter;stroke-miterlimit:10;stroke-dasharray:none;stroke-opacity:1"
             id="path386" />
        </g>
        <g
           id="g388"
           transform="translate(794.248,66.2256)">
          <path
             d="M 0,0 H -5.754 V -16.018 H -6.19 V 0 h -5.731 V 0.437 H 0 Z"
             style="fill:#ffffff;fill-opacity:1;fill-rule:nonzero;stroke:none"
             id="path390" />
        </g>
        <g
           id="g392"
           transform="translate(794.248,66.2256)">
          <path
             d="M 0,0 H -5.754 V -16.018 H -6.19 V 0 h -5.731 V 0.437 H 0 Z"
             style="fill:none;stroke:#ffffff;stroke-width:0.5;stroke-linecap:butt;stroke-linejoin:miter;stroke-miterlimit:10;stroke-dasharray:none;stroke-opacity:1"
             id="path394" />
        </g>
        <g
           id="g396"
           transform="translate(796.9863,66.2256)">
          <path
             d="M 0,0 V -7.572 H 7.25 V -8.009 H 0 v -7.57 h 9.919 v -0.439 H -0.437 V 0.437 H 9.919 V 0 Z"
             style="fill:#ffffff;fill-opacity:1;fill-rule:nonzero;stroke:none"
             id="path398" />
        </g>
        <g
           id="g400"
           transform="translate(796.9863,66.2256)">
          <path
             d="M 0,0 V -7.572 H 7.25 V -8.009 H 0 v -7.57 h 9.919 v -0.439 H -0.437 V 0.437 H 9.919 V 0 Z"
             style="fill:none;stroke:#ffffff;stroke-width:0.5;stroke-linecap:butt;stroke-linejoin:miter;stroke-miterlimit:10;stroke-dasharray:none;stroke-opacity:1"
             id="path402" />
        </g>
        <g
           id="g404"
           transform="translate(821.127,66.2256)">
          <path
             d="M 0,0 H -5.754 V -16.018 H -6.19 V 0 h -5.731 V 0.437 H 0 Z"
             style="fill:#ffffff;fill-opacity:1;fill-rule:nonzero;stroke:none"
             id="path406" />
        </g>
        <g
           id="g408"
           transform="translate(821.127,66.2256)">
          <path
             d="M 0,0 H -5.754 V -16.018 H -6.19 V 0 h -5.731 V 0.437 H 0 Z"
             style="fill:none;stroke:#ffffff;stroke-width:0.5;stroke-linecap:butt;stroke-linejoin:miter;stroke-miterlimit:10;stroke-dasharray:none;stroke-opacity:1"
             id="path410" />
        </g>
      </g>
    </g>
  </g>
</svg>
