<svg xmlns="http://www.w3.org/2000/svg" viewBox="0 0 1056.029 167.885">
  <defs>
    <clipPath id="a">
      <path d="M0 226.77h850.39V0H0z"/>
    </clipPath>
  </defs>
  <g clip-path="url(#a)" transform="matrix(1.33333 0 0 -1.33333 -39.14 234.495)">
    <g stroke-width="0">
      <path d="M52.742 74.106h10.769v10.485H52.742z" fill="#20427c"/>
      <path d="M76.128 74.106h10.769v10.485H76.128z" fill="#71be44"/>
      <path d="M87.825 74.106h10.764v10.485H87.825z" fill="#e43c8e"/>
      <path d="M98.589 96H87.825V85.517h10.764z" fill="#f8e519"/>
      <path d="M98.589 107.411H87.825V96.926h10.764zM87.825 131.156h10.764v10.484H87.825z" fill="#754122"/>
      <path d="M86.897 107.411H76.128V96.926h10.769z" fill="#20427c"/>
      <path d="M75.202 96H64.436V85.517h10.766zM64.436 119.748h10.766v10.483H64.436z" fill="#754122"/>
      <path d="M87.825 142.567h10.764v10.483H87.825z" fill="#f8e519"/>
      <path d="M99.516 142.567h10.77v10.483h-10.77z" fill="#e43c8e"/>
      <path d="M121.978 164.46h-10.766v-10.483h10.766z" fill="#71be44"/>
      <path d="M63.51 118.821H52.741v-10.485H63.51z" fill="#20427c"/>
      <path d="M75.202 118.821H64.436v-10.485h10.766z" fill="#71be44"/>
      <path d="M41.049 74.106h10.767v10.485H41.049z" fill="#754122"/>
      <path d="M41.049 96.926h10.767v10.485H41.049zM52.742 131.156h10.769v10.484H52.742z" fill="#f8e519"/>
      <path d="M75.202 153.05H64.436v-10.483h10.766z" fill="#20427c"/>
      <path d="M29.355 119.748h10.768v10.483H29.355z" fill="#e43c8e"/>
      <path d="M87.825 165.386h10.764v10.485H87.825z" fill="#754122"/>
      <path d="M134.597 165.386h10.768v10.485h-10.768z" fill="#e43c8e"/>
      <path d="M64.436 62.697h10.766v10.482H64.436z" fill="#f8e519"/>
      <path d="M29.355 62.697h10.768v10.482H29.355z" fill="#71be44"/>
      <path d="M76.128 51.284h10.769V61.77H76.128z" fill="#20427c"/>
      <path d="M75.202 107.411H64.436V96.926h10.766zM87.825 108.336h10.766v10.485H87.825z" fill="#e43c8e"/>
      <path d="M63.51 96H52.741V85.517H63.51z" fill="#71be44"/>
      <path d="M99.516 62.697h10.77v10.482h-10.77z" fill="#754122"/>
    </g>
    <g class="logo-text" stroke-miterlimit="10" fill="none" stroke-width=".5">
      <path d="M130.09 86.828c2.296.981 4.297 2.325 6 4.028 1.704 1.703 3.047 3.696 4.03 5.973.98 2.278 1.472 4.714 1.472 7.306 0 2.594-.491 5.037-1.472 7.336-.983 2.296-2.326 4.296-4.03 6-1.703 1.703-3.704 3.047-6 4.028-2.297.981-4.741 1.473-7.334 1.473h-11.002V85.356h11.002c2.593 0 5.037.49 7.334 1.472m.389 35.644c2.407-1.038 4.509-2.454 6.306-4.25 1.797-1.797 3.213-3.909 4.25-6.335s1.557-5.01 1.557-7.752c0-2.743-.52-5.315-1.556-7.72-1.038-2.409-2.454-4.513-4.251-6.309-1.797-1.796-3.9-3.214-6.306-4.25-2.408-1.038-4.982-1.556-7.723-1.556h-12.058v39.728h12.058c2.74 0 5.315-.519 7.723-1.556"/>
      <path d="M130.09 86.828c2.296.981 4.297 2.325 6 4.028 1.704 1.703 3.047 3.696 4.03 5.973.98 2.278 1.472 4.714 1.472 7.306 0 2.594-.491 5.037-1.472 7.336-.983 2.296-2.326 4.296-4.03 6-1.703 1.703-3.704 3.047-6 4.028-2.297.981-4.741 1.473-7.334 1.473h-11.002V85.356h11.002c2.593 0 5.037.49 7.334 1.472zm.389 35.644c2.407-1.038 4.509-2.454 6.306-4.25 1.797-1.797 3.213-3.909 4.25-6.335s1.557-5.01 1.557-7.752c0-2.743-.52-5.315-1.556-7.72-1.038-2.409-2.454-4.513-4.251-6.309-1.797-1.796-3.9-3.214-6.306-4.25-2.408-1.038-4.982-1.556-7.723-1.556h-12.058v39.728h12.058c2.74 0 5.315-.519 7.723-1.556z" />
      <path d="M176.763 98.69l-10.557 24.003-10.557-24.003zm.445-1.11h-22.003l-5.89-13.28h-1.167l17.447 39.728h1.167L184.264 84.3h-1.167z"/>
      <path d="M176.763 98.69l-10.557 24.003-10.557-24.003zm.445-1.11h-22.003l-5.89-13.28h-1.167l17.447 39.728h1.167L184.264 84.3h-1.167z" />
      <path d="M208.435 122.972h-13.891V84.3h-1.055v38.672h-13.836v1.057h28.782z"/>
      <path d="M208.435 122.972h-13.891V84.3h-1.055v38.672h-13.836v1.057h28.782z" />
      <path d="M232.438 98.69l-10.558 24.003-10.556-24.003zm.444-1.11h-22.004L204.99 84.3h-1.167l17.447 39.728h1.166L239.938 84.3h-1.167z"/>
      <path d="M232.438 98.69l-10.558 24.003-10.556-24.003zm.444-1.11h-22.004L204.99 84.3h-1.167l17.447 39.728h1.166L239.938 84.3h-1.167z" />
      <path d="M264.108 122.972h-13.89V84.3h-1.056v38.672h-13.835v1.057h28.781z"/>
      <path d="M264.108 122.972h-13.89V84.3h-1.056v38.672h-13.835v1.057h28.781z" />
      <path d="M270.72 122.972v-18.28h17.504v-1.056H270.72v-18.28h23.948V84.3h-25.004v39.729h25.004v-1.057z"/>
      <path d="M270.72 122.972v-18.28h17.504v-1.056H270.72v-18.28h23.948V84.3h-25.004v39.729h25.004v-1.057z" />
      <path d="M305.002 105.413l-3.723-3.722v-17.39h-1.055v39.727h1.055v-20.837l20.837 20.837h1.556l-17.892-17.893L327.617 84.3h-1.501z"/>
      <path d="M305.002 105.413l-3.723-3.722v-17.39h-1.055v39.727h1.055v-20.837l20.837 20.837h1.556l-17.892-17.893L327.617 84.3h-1.501z" />
      <path d="M364.955 124.028V84.3h-1.11l-29.617 37.84v-37.84h-1.055v39.73h1.055l29.616-37.897v37.896z"/>
      <path d="M364.955 124.028V84.3h-1.11l-29.617 37.84v-37.84h-1.055v39.73h1.055l29.616-37.897v37.896z" />
      <path d="M390.348 122.972c-2.594 0-5.03-.491-7.307-1.472-2.278-.982-4.27-2.325-5.972-4.028-1.705-1.705-3.048-3.705-4.03-6.001-.981-2.3-1.472-4.741-1.472-7.336 0-2.592.49-5.027 1.473-7.306.98-2.277 2.324-4.27 4.029-5.972a18.99 18.99 0 0 1 5.972-4.03c2.278-.981 4.713-1.47 7.307-1.47 2.592 0 5.028.489 7.307 1.47a19 19 0 0 1 5.972 4.03c1.703 1.703 3.046 3.695 4.029 5.972.98 2.279 1.472 4.714 1.472 7.306 0 2.595-.491 5.037-1.472 7.336-.983 2.296-2.326 4.296-4.03 6a18.998 18.998 0 0 1-5.971 4.029c-2.28.98-4.715 1.472-7.307 1.472m0-38.672c-2.742 0-5.316.519-7.724 1.556-2.408 1.037-4.51 2.455-6.306 4.25-1.797 1.797-3.214 3.9-4.251 6.308-1.036 2.407-1.555 4.979-1.555 7.72 0 2.743.519 5.327 1.555 7.753 1.037 2.426 2.454 4.538 4.25 6.335 1.798 1.796 3.899 3.213 6.307 4.25 2.408 1.037 4.982 1.557 7.724 1.557 2.74 0 5.314-.52 7.724-1.557 2.407-1.037 4.508-2.454 6.306-4.25 1.795-1.797 3.213-3.91 4.25-6.335 1.037-2.426 1.556-5.01 1.556-7.752s-.52-5.314-1.556-7.721c-1.037-2.408-2.455-4.511-4.25-6.307-1.798-1.796-3.9-3.214-6.306-4.251-2.41-1.037-4.984-1.556-7.724-1.556"/>
      <path d="M390.348 122.972c-2.594 0-5.03-.491-7.307-1.472-2.278-.982-4.27-2.325-5.972-4.028-1.705-1.705-3.048-3.705-4.03-6.001-.981-2.3-1.472-4.741-1.472-7.336 0-2.592.49-5.027 1.473-7.306.98-2.277 2.324-4.27 4.029-5.972a18.99 18.99 0 0 1 5.972-4.03c2.278-.981 4.713-1.47 7.307-1.47 2.592 0 5.028.489 7.307 1.47a19 19 0 0 1 5.972 4.03c1.703 1.703 3.046 3.695 4.029 5.972.98 2.279 1.472 4.714 1.472 7.306 0 2.595-.491 5.037-1.472 7.336-.983 2.296-2.326 4.296-4.03 6a18.998 18.998 0 0 1-5.971 4.029c-2.28.98-4.715 1.472-7.307 1.472zm0-38.672c-2.742 0-5.316.519-7.724 1.556-2.408 1.037-4.51 2.455-6.306 4.25-1.797 1.797-3.214 3.9-4.251 6.308-1.036 2.407-1.555 4.979-1.555 7.72 0 2.743.519 5.327 1.555 7.753 1.037 2.426 2.454 4.538 4.25 6.335 1.798 1.796 3.899 3.213 6.307 4.25 2.408 1.037 4.982 1.557 7.724 1.557 2.74 0 5.314-.52 7.724-1.557 2.407-1.037 4.508-2.454 6.306-4.25 1.795-1.797 3.213-3.91 4.25-6.335 1.037-2.426 1.556-5.01 1.556-7.752s-.52-5.314-1.556-7.721c-1.037-2.408-2.455-4.511-4.25-6.307-1.798-1.796-3.9-3.214-6.306-4.251-2.41-1.037-4.984-1.556-7.724-1.556z" />
      <path d="M440.91 85.356V84.3h-25.17v39.73h1.055V85.355z"/>
      <path d="M440.91 85.356V84.3h-25.17v39.73h1.055V85.355z" />
      <path d="M457.3 122.972c-2.593 0-5.026-.491-7.307-1.472a19.028 19.028 0 0 1-5.971-4.028c-1.705-1.705-3.047-3.705-4.03-6.001-.982-2.3-1.47-4.741-1.47-7.336 0-2.592.488-5.027 1.47-7.306.983-2.277 2.325-4.27 4.03-5.972a19.03 19.03 0 0 1 5.97-4.03c2.282-.981 4.715-1.47 7.309-1.47 2.594 0 5.027.489 7.308 1.47a18.962 18.962 0 0 1 5.97 4.03c1.706 1.703 3.048 3.695 4.03 5.972.983 2.279 1.474 4.714 1.474 7.306 0 2.595-.491 5.037-1.473 7.336-.983 2.296-2.325 4.296-4.03 6-1.702 1.704-3.692 3.047-5.971 4.029-2.281.98-4.714 1.472-7.308 1.472m0-38.672c-2.742 0-5.316.519-7.722 1.556-2.408 1.037-4.51 2.455-6.308 4.25-1.795 1.797-3.214 3.9-4.251 6.308-1.037 2.407-1.554 4.979-1.554 7.72 0 2.743.517 5.327 1.554 7.753s2.456 4.538 4.25 6.335c1.799 1.796 3.9 3.213 6.309 4.25 2.406 1.037 4.98 1.557 7.722 1.557s5.316-.52 7.725-1.557c2.408-1.037 4.507-2.454 6.305-4.25 1.795-1.797 3.214-3.91 4.25-6.335 1.038-2.426 1.558-5.01 1.558-7.752s-.52-5.314-1.557-7.721c-1.037-2.408-2.456-4.511-4.251-6.307a20.045 20.045 0 0 0-6.305-4.251c-2.41-1.037-4.983-1.556-7.725-1.556"/>
      <path d="M457.3 122.972c-2.593 0-5.026-.491-7.307-1.472a19.028 19.028 0 0 1-5.971-4.028c-1.705-1.705-3.047-3.705-4.03-6.001-.982-2.3-1.47-4.741-1.47-7.336 0-2.592.488-5.027 1.47-7.306.983-2.277 2.325-4.27 4.03-5.972a19.03 19.03 0 0 1 5.97-4.03c2.282-.981 4.715-1.47 7.309-1.47 2.594 0 5.027.489 7.308 1.47a18.962 18.962 0 0 1 5.97 4.03c1.706 1.703 3.048 3.695 4.03 5.972.983 2.279 1.474 4.714 1.474 7.306 0 2.595-.491 5.037-1.473 7.336-.983 2.296-2.325 4.296-4.03 6-1.702 1.704-3.692 3.047-5.971 4.029-2.281.98-4.714 1.472-7.308 1.472zm0-38.672c-2.741 0-5.315.519-7.721 1.556-2.408 1.037-4.51 2.455-6.308 4.25-1.795 1.797-3.214 3.9-4.251 6.308-1.037 2.407-1.554 4.979-1.554 7.72 0 2.743.517 5.327 1.554 7.753s2.456 4.538 4.25 6.335c1.799 1.796 3.9 3.213 6.309 4.25 2.406 1.037 4.98 1.557 7.722 1.557s5.316-.52 7.725-1.557c2.408-1.037 4.507-2.454 6.305-4.25 1.795-1.797 3.214-3.91 4.25-6.335 1.038-2.426 1.558-5.01 1.558-7.752s-.52-5.314-1.557-7.721c-1.037-2.408-2.456-4.511-4.251-6.307a20.045 20.045 0 0 0-6.305-4.251c-2.41-1.037-4.983-1.556-7.725-1.556z" />
      <path d="M522.033 100.581a18.82 18.82 0 0 0-2.389-6.475 20.217 20.217 0 0 0-4.363-5.139 20.436 20.436 0 0 0-5.834-3.416c-2.167-.833-4.473-1.25-6.919-1.25-2.74 0-5.316.517-7.722 1.554-2.407 1.038-4.51 2.455-6.308 4.251-1.795 1.796-3.214 3.9-4.25 6.308-1.038 2.406-1.555 4.98-1.555 7.721 0 2.742.517 5.326 1.554 7.752s2.456 4.538 4.251 6.335c1.798 1.796 3.901 3.213 6.308 4.25 2.406 1.037 4.981 1.556 7.722 1.556 2.446 0 4.752-.417 6.92-1.25a20.064 20.064 0 0 0 5.833-3.446 20.682 20.682 0 0 0 4.363-5.167 18.795 18.795 0 0 0 2.39-6.418h-1.058a18.144 18.144 0 0 1-2.304 6.03 18.963 18.963 0 0 1-4.142 4.833 19.222 19.222 0 0 1-5.529 3.196 18.147 18.147 0 0 1-6.473 1.166c-2.594 0-5.027-.492-7.307-1.473a19 19 0 0 1-5.97-4.028c-1.706-1.704-3.048-3.704-4.03-6-.984-2.299-1.47-4.742-1.47-7.336 0-2.592.486-5.028 1.47-7.306.982-2.277 2.324-4.269 4.03-5.973a19.016 19.016 0 0 1 5.97-4.028c2.28-.982 4.713-1.472 7.307-1.472 2.187 0 4.271.352 6.251 1.055a18.604 18.604 0 0 1 5.362 2.945 19.09 19.09 0 0 1 4.113 4.502 18.574 18.574 0 0 1 2.501 5.667H503.64v1.056z"/>
      <path d="M522.033 100.581a18.82 18.82 0 0 0-2.389-6.475 20.217 20.217 0 0 0-4.363-5.139 20.436 20.436 0 0 0-5.834-3.416c-2.167-.833-4.473-1.25-6.919-1.25-2.74 0-5.316.517-7.722 1.554-2.407 1.038-4.51 2.455-6.308 4.251-1.795 1.796-3.214 3.9-4.25 6.308-1.038 2.406-1.555 4.98-1.555 7.721 0 2.742.517 5.326 1.554 7.752s2.456 4.538 4.251 6.335c1.798 1.796 3.901 3.213 6.308 4.25 2.406 1.037 4.981 1.556 7.722 1.556 2.446 0 4.752-.417 6.92-1.25a20.064 20.064 0 0 0 5.833-3.446 20.682 20.682 0 0 0 4.363-5.167 18.795 18.795 0 0 0 2.39-6.418h-1.058a18.144 18.144 0 0 1-2.304 6.03 18.963 18.963 0 0 1-4.142 4.833 19.222 19.222 0 0 1-5.529 3.196 18.147 18.147 0 0 1-6.473 1.166c-2.594 0-5.027-.492-7.307-1.473a19 19 0 0 1-5.97-4.028c-1.706-1.704-3.048-3.704-4.03-6-.984-2.299-1.47-4.742-1.47-7.336 0-2.592.486-5.028 1.47-7.306.982-2.277 2.324-4.269 4.03-5.973a19.016 19.016 0 0 1 5.97-4.028c2.28-.982 4.713-1.472 7.307-1.472 2.187 0 4.271.352 6.251 1.055a18.604 18.604 0 0 1 5.362 2.945 19.09 19.09 0 0 1 4.113 4.502 18.574 18.574 0 0 1 2.501 5.667H503.64v1.056z" />
      <path d="M545.837 104.525a13.688 13.688 0 0 0 3.907-1.222 11.372 11.372 0 0 0 3.105-2.223 10.215 10.215 0 0 0 2.05-3.03 8.784 8.784 0 0 0 .75-3.583 8.65 8.65 0 0 0-.945-3.972 9.89 9.89 0 0 0-2.603-3.222c-1.112-.909-2.406-1.632-3.882-2.168-1.481-.537-3.07-.806-4.771-.806h-3.66c-1.663 0-3.233.27-4.714.806-1.48.536-2.773 1.26-3.881 2.168a10.206 10.206 0 0 0-2.632 3.222 8.445 8.445 0 0 0-.973 3.972v.222h1.277v-.222c0-1.259.289-2.434.86-3.528a9.531 9.531 0 0 1 2.357-2.89 11.51 11.51 0 0 1 3.465-1.97c1.312-.484 2.726-.723 4.24-.723h3.66c1.516 0 2.939.24 4.27.723 1.33.48 2.486 1.137 3.466 1.97a9.673 9.673 0 0 1 2.327 2.89 7.466 7.466 0 0 1 .86 3.528 7.637 7.637 0 0 1-.86 3.558 9.526 9.526 0 0 1-2.327 2.915c-.98.835-2.136 1.491-3.465 1.974-1.332.48-2.755.721-4.27.721-1.554-.075-2.854-.046-3.907.083-1.057.131-1.914.288-2.578.473-.777.185-1.423.408-1.943.666-1.92 1.15-3.426 2.447-4.517 3.892-1.092 1.444-1.638 3.128-1.638 5.054a8.49 8.49 0 0 0 .97 3.973 10.542 10.542 0 0 0 2.636 3.251c1.107.926 2.4 1.657 3.882 2.195 1.476.536 3.047.806 4.71.806h1.11c1.625 0 3.159-.25 4.6-.75 1.443-.5 2.708-1.186 3.799-2.056a10.853 10.853 0 0 0 2.66-3.084 8.374 8.374 0 0 0 1.138-3.778h-1.277a7.597 7.597 0 0 1-1.027 3.361 9.915 9.915 0 0 1-2.364 2.75c-.963.78-2.094 1.39-3.387 1.834a12.585 12.585 0 0 1-4.113.666h-1.111c-1.52 0-2.938-.24-4.25-.72-1.317-.484-2.473-1.14-3.475-1.974a9.35 9.35 0 0 1-2.36-2.917 7.631 7.631 0 0 1-.863-3.557c0-1.258.289-2.436.86-3.526a9.419 9.419 0 0 1 2.357-2.89c.998-.835 2.15-1.493 3.464-1.974 1.314-.482 2.726-.72 4.242-.72h1.775c.517 0 1.044-.01 1.58-.028.536-.02 1.008-.066 1.416-.14"/>
      <path d="M545.837 104.525a13.688 13.688 0 0 0 3.907-1.222 11.372 11.372 0 0 0 3.105-2.223 10.215 10.215 0 0 0 2.05-3.03 8.784 8.784 0 0 0 .75-3.583 8.65 8.65 0 0 0-.945-3.972 9.89 9.89 0 0 0-2.603-3.222c-1.112-.909-2.406-1.632-3.882-2.168-1.481-.537-3.07-.806-4.771-.806h-3.66c-1.663 0-3.233.27-4.714.806-1.48.536-2.773 1.26-3.881 2.168a10.206 10.206 0 0 0-2.632 3.222 8.445 8.445 0 0 0-.973 3.972v.222h1.277v-.222c0-1.259.289-2.434.86-3.528a9.531 9.531 0 0 1 2.357-2.89 11.51 11.51 0 0 1 3.465-1.97c1.312-.484 2.726-.723 4.24-.723h3.66c1.516 0 2.939.24 4.27.723 1.33.48 2.486 1.137 3.466 1.97a9.673 9.673 0 0 1 2.327 2.89 7.466 7.466 0 0 1 .86 3.528 7.637 7.637 0 0 1-.86 3.558 9.526 9.526 0 0 1-2.327 2.915c-.98.835-2.136 1.491-3.465 1.974-1.332.48-2.755.721-4.27.721-1.554-.075-2.854-.046-3.907.083-1.057.131-1.914.288-2.578.473-.777.185-1.423.408-1.943.666-1.92 1.15-3.426 2.447-4.517 3.892-1.092 1.444-1.638 3.128-1.638 5.054a8.49 8.49 0 0 0 .97 3.973 10.542 10.542 0 0 0 2.636 3.251c1.107.926 2.4 1.657 3.882 2.195 1.476.536 3.047.806 4.71.806h1.11c1.625 0 3.159-.25 4.6-.75 1.443-.5 2.708-1.186 3.799-2.056a10.853 10.853 0 0 0 2.66-3.084 8.374 8.374 0 0 0 1.138-3.778h-1.277a7.597 7.597 0 0 1-1.027 3.361 9.915 9.915 0 0 1-2.364 2.75c-.963.78-2.094 1.39-3.387 1.834a12.585 12.585 0 0 1-4.113.666h-1.111c-1.52 0-2.938-.24-4.25-.72-1.317-.484-2.473-1.14-3.475-1.974a9.35 9.35 0 0 1-2.36-2.917 7.631 7.631 0 0 1-.863-3.557c0-1.258.289-2.436.86-3.526a9.419 9.419 0 0 1 2.357-2.89c.998-.835 2.15-1.493 3.464-1.974 1.314-.482 2.726-.72 4.242-.72h1.775c.517 0 1.044-.01 1.58-.028.536-.02 1.008-.066 1.416-.14z" />
      <path d="M562.316 122.972v-18.28h17.501v-1.056h-17.5v-18.28h23.947V84.3H561.26v39.729h25.005v-1.057z"/>
      <path d="M562.316 122.972v-18.28h17.501v-1.056h-17.5v-18.28h23.947V84.3H561.26v39.729h25.005v-1.057z" />
      <path d="M596.597 105.413l-3.722-3.722v-17.39h-1.056v39.727h1.056v-20.837l20.834 20.837h1.557l-17.893-17.893L619.212 84.3h-1.503z"/>
      <path d="M596.597 105.413l-3.722-3.722v-17.39h-1.056v39.727h1.056v-20.837l20.834 20.837h1.557l-17.893-17.893L619.212 84.3h-1.503z" />
      <path d="M653.549 122.972h-13.892V84.3H638.6v38.672h-13.835v1.057h28.783z"/>
      <path d="M653.549 122.972h-13.892V84.3H638.6v38.672h-13.835v1.057h28.783z" />
      <path d="M667.55 122.972V85.357h7.392V84.3h-15.838v1.057h7.39v37.615h-7.39v1.057h15.838v-1.057z"/>
      <path d="M667.55 122.972V85.357h7.392V84.3h-15.838v1.057h7.39v37.615h-7.39v1.057h15.838v-1.057z" />
      <path d="M695.945 122.972c-2.594 0-5.03-.491-7.308-1.472a19.007 19.007 0 0 1-5.974-4.028c-1.702-1.705-3.047-3.705-4.027-6.001-.982-2.3-1.473-4.741-1.473-7.336 0-2.592.491-5.027 1.473-7.306a18.979 18.979 0 0 1 4.027-5.972 19.01 19.01 0 0 1 5.974-4.03c2.277-.981 4.714-1.47 7.308-1.47 2.591 0 5.027.489 7.304 1.47 2.28.983 4.27 2.327 5.975 4.03a18.976 18.976 0 0 1 4.026 5.972c.982 2.279 1.474 4.714 1.474 7.306 0 2.595-.492 5.037-1.474 7.336a18.913 18.913 0 0 1-4.026 6 19 19 0 0 1-5.975 4.029c-2.277.98-4.713 1.472-7.304 1.472m0-38.672c-2.742 0-5.316.519-7.725 1.556-2.408 1.037-4.51 2.455-6.305 4.25-1.798 1.797-3.214 3.9-4.25 6.308-1.038 2.407-1.558 4.979-1.558 7.72 0 2.743.52 5.327 1.557 7.753s2.453 4.538 4.251 6.335c1.795 1.796 3.897 3.213 6.305 4.25 2.41 1.037 4.983 1.557 7.725 1.557 2.738 0 5.313-.52 7.722-1.557 2.408-1.037 4.51-2.454 6.305-4.25 1.798-1.797 3.214-3.91 4.251-6.335 1.037-2.426 1.557-5.01 1.557-7.752s-.52-5.314-1.557-7.721c-1.037-2.408-2.453-4.511-4.25-6.307-1.796-1.796-3.898-3.214-6.306-4.251-2.409-1.037-4.984-1.556-7.722-1.556"/>
      <path d="M695.945 122.972c-2.594 0-5.03-.491-7.308-1.472a19.007 19.007 0 0 1-5.974-4.028c-1.702-1.705-3.047-3.705-4.027-6.001-.982-2.3-1.473-4.741-1.473-7.336 0-2.592.491-5.027 1.473-7.306a18.979 18.979 0 0 1 4.027-5.972 19.01 19.01 0 0 1 5.974-4.03c2.277-.981 4.714-1.47 7.308-1.47 2.591 0 5.027.489 7.304 1.47 2.28.983 4.27 2.327 5.975 4.03a18.976 18.976 0 0 1 4.026 5.972c.982 2.279 1.474 4.714 1.474 7.306 0 2.595-.492 5.037-1.474 7.336a18.913 18.913 0 0 1-4.026 6 19 19 0 0 1-5.975 4.029c-2.277.98-4.713 1.472-7.304 1.472zm0-38.672c-2.742 0-5.316.519-7.725 1.556-2.408 1.037-4.51 2.455-6.305 4.25-1.798 1.797-3.214 3.9-4.25 6.308-1.038 2.407-1.558 4.979-1.558 7.72 0 2.743.52 5.327 1.557 7.753s2.453 4.538 4.251 6.335c1.795 1.796 3.897 3.213 6.305 4.25 2.41 1.037 4.983 1.557 7.725 1.557 2.738 0 5.313-.52 7.722-1.557 2.408-1.037 4.51-2.454 6.305-4.25 1.798-1.797 3.214-3.91 4.251-6.335 1.037-2.426 1.557-5.01 1.557-7.752s-.52-5.314-1.557-7.721c-1.037-2.408-2.453-4.511-4.25-6.307-1.796-1.796-3.898-3.214-6.306-4.251-2.409-1.037-4.984-1.556-7.722-1.556z" />
      <path d="M753.116 124.028V84.3h-1.11l-29.616 37.84v-37.84h-1.055v39.73h1.055l29.616-37.897v37.896z"/>
      <path d="M753.116 124.028V84.3h-1.11l-29.616 37.84v-37.84h-1.055v39.73h1.055l29.616-37.897v37.896z" />
      <path d="M759.73 122.972v-18.28h17.504v-1.056H759.73v-18.28h23.948V84.3h-25.005v39.729h25.005v-1.057z"/>
      <path d="M759.73 122.972v-18.28h17.504v-1.056H759.73v-18.28h23.948V84.3h-25.005v39.729h25.005v-1.057z" />
      <path d="M821.015 124.028V84.3h-1.111l-29.615 37.84v-37.84h-1.056v39.73h1.056l29.615-37.897v37.896z"/>
      <path d="M821.015 124.028V84.3h-1.111l-29.615 37.84v-37.84h-1.056v39.73h1.056l29.615-37.897v37.896z" />
      <path d="M543.563 50.647v-.438h-10.425v16.453h.437V50.646z"/>
      <path d="M543.563 50.647v-.438h-10.425v16.453h.437V50.646z" />
      <path d="M549.361 66.226v-15.58h3.062v-.438h-6.56v.439h3.061v15.579h-3.06v.437h6.56v-.437z"/>
      <path d="M549.361 66.226v-15.58h3.062v-.438h-6.56v.439h3.061v15.579h-3.06v.437h6.56v-.437z" />
      <path d="M567.889 66.662V50.208h-.461l-12.266 15.673V50.208h-.438v16.454h.438l12.266-15.694v15.694z"/>
      <path d="M567.889 66.662V50.208h-.461l-12.266 15.673V50.208h-.438v16.454h.438l12.266-15.694v15.694z" />
      <path d="M572.168 58.952l-1.542-1.54v-7.204h-.437v16.454h.437v-8.63l8.63 8.63h.645l-7.41-7.41 9.044-9.044h-.621z"/>
      <path d="M572.168 58.952l-1.542-1.54v-7.204h-.437v16.454h.437v-8.63l8.63 8.63h.645l-7.41-7.41 9.044-9.044h-.621z" />
      <path d="M593.248 68.86a.565.565 0 0 1-.184-.426c0-.168.062-.314.184-.438a.606.606 0 0 1 .437-.183.6.6 0 0 1 .437.183c.124.124.185.27.185.438 0 .17-.061.31-.185.426a.616.616 0 0 1-.437.173.621.621 0 0 1-.437-.173m-3.383 0a.558.558 0 0 1-.184-.426c0-.168.06-.314.184-.438a.6.6 0 0 1 .437-.183c.169 0 .314.062.438.183.122.124.183.27.183.438 0 .17-.061.31-.183.426a.622.622 0 0 1-.438.173.616.616 0 0 1-.437-.173m-.84-3.244a7.873 7.873 0 0 1-2.473-1.668 7.823 7.823 0 0 1-1.669-2.485 7.675 7.675 0 0 1-.611-3.04c0-1.073.205-2.082.611-3.025a7.85 7.85 0 0 1 1.669-2.476 7.834 7.834 0 0 1 2.473-1.666 7.546 7.546 0 0 1 3.027-.61c1.074 0 2.082.202 3.026.61a7.839 7.839 0 0 1 2.474 1.666 7.9 7.9 0 0 1 1.669 2.476 7.57 7.57 0 0 1 .61 3.025 7.675 7.675 0 0 1-.61 3.04 7.873 7.873 0 0 1-1.669 2.485 7.878 7.878 0 0 1-2.474 1.668 7.575 7.575 0 0 1-3.026.61 7.58 7.58 0 0 1-3.027-.61m-.173-14.765a8.356 8.356 0 0 0-2.612 1.762 8.275 8.275 0 0 0-1.761 2.611 8.036 8.036 0 0 0-.643 3.2c0 1.134.215 2.204.643 3.21a8.261 8.261 0 0 0 1.761 2.623 8.302 8.302 0 0 0 2.612 1.761 7.983 7.983 0 0 0 3.2.644 7.982 7.982 0 0 0 3.199-.644 8.302 8.302 0 0 0 2.612-1.76 8.272 8.272 0 0 0 1.759-2.624 8.066 8.066 0 0 0 .646-3.21c0-1.135-.215-2.2-.646-3.2a8.286 8.286 0 0 0-1.759-2.61 8.356 8.356 0 0 0-2.612-1.763 8.016 8.016 0 0 0-3.199-.643 8.017 8.017 0 0 0-3.2.643"/>
      <path d="M593.248 68.86a.565.565 0 0 1-.184-.426c0-.168.062-.314.184-.438a.606.606 0 0 1 .437-.183.6.6 0 0 1 .437.183c.124.124.185.27.185.438 0 .17-.061.31-.185.426a.616.616 0 0 1-.437.173.621.621 0 0 1-.437-.173zm-3.383 0a.558.558 0 0 1-.184-.426c0-.168.06-.314.184-.438a.6.6 0 0 1 .437-.183c.169 0 .314.062.438.183.122.124.183.27.183.438 0 .17-.061.31-.183.426a.622.622 0 0 1-.438.173.616.616 0 0 1-.437-.173zm-.84-3.244a7.873 7.873 0 0 1-2.473-1.668 7.823 7.823 0 0 1-1.669-2.485 7.675 7.675 0 0 1-.611-3.04c0-1.073.205-2.082.611-3.025a7.85 7.85 0 0 1 1.669-2.476 7.834 7.834 0 0 1 2.473-1.666 7.546 7.546 0 0 1 3.027-.61c1.074 0 2.082.202 3.026.61a7.839 7.839 0 0 1 2.474 1.666 7.9 7.9 0 0 1 1.669 2.476 7.57 7.57 0 0 1 .61 3.025 7.675 7.675 0 0 1-.61 3.04 7.873 7.873 0 0 1-1.669 2.485 7.878 7.878 0 0 1-2.474 1.668 7.575 7.575 0 0 1-3.026.61 7.58 7.58 0 0 1-3.027-.61zm-.173-14.765a8.356 8.356 0 0 0-2.612 1.762 8.275 8.275 0 0 0-1.761 2.611 8.036 8.036 0 0 0-.643 3.2c0 1.134.215 2.204.643 3.21a8.261 8.261 0 0 0 1.761 2.623 8.302 8.302 0 0 0 2.612 1.761 7.983 7.983 0 0 0 3.2.644 7.982 7.982 0 0 0 3.199-.644 8.302 8.302 0 0 0 2.612-1.76 8.272 8.272 0 0 0 1.759-2.624 8.066 8.066 0 0 0 .646-3.21c0-1.135-.215-2.2-.646-3.2a8.286 8.286 0 0 0-1.759-2.61 8.356 8.356 0 0 0-2.612-1.763 8.016 8.016 0 0 0-3.199-.643 8.017 8.017 0 0 0-3.2.643z" />
      <path d="M603.006 58.653h6.192c.522 0 1.008.1 1.46.3.453.2.848.471 1.186.817a4 4 0 0 1 .806 1.196c.199.454.299.94.299 1.463 0 .52-.1 1.011-.3 1.472-.2.461-.467.862-.805 1.21a3.773 3.773 0 0 1-1.186.814c-.452.2-.938.3-1.46.3h-6.192zm-.437-8.445v16.454h6.629a4.135 4.135 0 0 0 2.98-1.242c.375-.384.676-.833.896-1.347a4.072 4.072 0 0 0 .334-1.644c0-.585-.11-1.133-.334-1.647a4.224 4.224 0 0 0-.896-1.334 4.23 4.23 0 0 0-2.98-1.232h-6.192v-8.008z"/>
      <path d="M603.006 58.653h6.192c.522 0 1.008.1 1.46.3.453.2.848.471 1.186.817a4 4 0 0 1 .806 1.196c.199.454.299.94.299 1.463 0 .52-.1 1.011-.3 1.472-.2.461-.467.862-.805 1.21a3.773 3.773 0 0 1-1.186.814c-.452.2-.938.3-1.46.3h-6.192zm-.437-8.445v16.454h6.629a4.135 4.135 0 0 0 2.98-1.242c.375-.384.676-.833.896-1.347a4.072 4.072 0 0 0 .334-1.644c0-.585-.11-1.133-.334-1.647a4.224 4.224 0 0 0-.896-1.334 4.23 4.23 0 0 0-2.98-1.232h-6.192v-8.008z" />
      <path d="M618.127 66.226v-15.58h3.061v-.438h-6.559v.439h3.061v15.579h-3.061v.437h6.559v-.437z"/>
      <path d="M618.127 66.226v-15.58h3.061v-.438h-6.559v.439h3.061v15.579h-3.061v.437h6.559v-.437z" />
      <path d="M636.651 66.662V50.208h-.46l-12.267 15.673V50.208h-.436v16.454h.436l12.267-15.694v15.694z"/>
      <path d="M636.651 66.662V50.208h-.46l-12.267 15.673V50.208h-.436v16.454h.436l12.267-15.694v15.694z" />
      <path d="M655.248 56.952a7.773 7.773 0 0 0-.991-2.68 8.354 8.354 0 0 0-1.806-2.132 8.413 8.413 0 0 0-2.416-1.414 7.89 7.89 0 0 0-2.865-.518 8.005 8.005 0 0 0-3.199.643 8.36 8.36 0 0 0-2.613 1.762 8.256 8.256 0 0 0-1.76 2.611 8.021 8.021 0 0 0-.644 3.2 8.253 8.253 0 0 0 2.404 5.834 8.32 8.32 0 0 0 2.613 1.76 7.972 7.972 0 0 0 3.199.644 7.85 7.85 0 0 0 2.865-.519 8.217 8.217 0 0 0 2.416-1.424 8.562 8.562 0 0 0 1.806-2.142c.491-.82.822-1.705.991-2.657h-.437a7.515 7.515 0 0 1-.956 2.496 7.946 7.946 0 0 1-1.713 2.004c-.676.558-1.439 1-2.291 1.323a7.56 7.56 0 0 1-2.681.482 7.575 7.575 0 0 1-3.026-.609 7.866 7.866 0 0 1-2.474-1.668 7.842 7.842 0 0 1-1.67-2.485 7.686 7.686 0 0 1-.609-3.039c0-1.074.204-2.082.609-3.026a7.81 7.81 0 0 1 4.144-4.141 7.525 7.525 0 0 1 3.026-.61c.905 0 1.767.144 2.589.436.82.291 1.56.696 2.22 1.22a7.883 7.883 0 0 1 2.739 4.211h-7.087v.438z"/>
      <path d="M655.248 56.952a7.773 7.773 0 0 0-.991-2.68 8.354 8.354 0 0 0-1.806-2.132 8.413 8.413 0 0 0-2.416-1.414 7.89 7.89 0 0 0-2.865-.518 8.005 8.005 0 0 0-3.199.643 8.36 8.36 0 0 0-2.613 1.762 8.256 8.256 0 0 0-1.76 2.611 8.021 8.021 0 0 0-.644 3.2 8.253 8.253 0 0 0 2.404 5.834 8.32 8.32 0 0 0 2.613 1.76 7.972 7.972 0 0 0 3.199.644 7.85 7.85 0 0 0 2.865-.519 8.217 8.217 0 0 0 2.416-1.424 8.562 8.562 0 0 0 1.806-2.142c.491-.82.822-1.705.991-2.657h-.437a7.515 7.515 0 0 1-.956 2.496 7.946 7.946 0 0 1-1.713 2.004c-.676.558-1.439 1-2.291 1.323a7.56 7.56 0 0 1-2.681.482 7.575 7.575 0 0 1-3.026-.609 7.866 7.866 0 0 1-2.474-1.668 7.842 7.842 0 0 1-1.67-2.485 7.686 7.686 0 0 1-.609-3.039c0-1.074.204-2.082.609-3.026a7.81 7.81 0 0 1 4.144-4.141 7.525 7.525 0 0 1 3.026-.61c.905 0 1.767.144 2.589.436.82.291 1.56.696 2.22 1.22a7.883 7.883 0 0 1 2.739 4.211h-7.087v.438z" />
      <path d="M665.106 58.586a5.694 5.694 0 0 0 1.618-.507 4.645 4.645 0 0 0 1.286-.922 4.21 4.21 0 0 0 .85-1.254 3.63 3.63 0 0 0 .31-1.484c0-.583-.13-1.13-.391-1.644a4.088 4.088 0 0 0-1.078-1.335 5.47 5.47 0 0 0-1.61-.898 5.722 5.722 0 0 0-1.974-.334h-1.516a5.65 5.65 0 0 0-1.952.334 5.477 5.477 0 0 0-1.608.898c-.459.375-.824.82-1.092 1.335a3.502 3.502 0 0 0-.401 1.644v.093h.53v-.093c0-.52.118-1.008.354-1.461a3.95 3.95 0 0 1 .976-1.197 4.841 4.841 0 0 1 1.435-.816 5.078 5.078 0 0 1 1.758-.298h1.516c.627 0 1.217.099 1.767.298.552.2 1.031.472 1.435.816.406.346.727.744.965 1.197.237.453.356.94.356 1.46a3.17 3.17 0 0 1-.356 1.475 3.959 3.959 0 0 1-.965 1.207 4.579 4.579 0 0 1-1.435.818c-.55.199-1.14.299-1.767.299a9.603 9.603 0 0 0-1.62.035 7.555 7.555 0 0 0-1.068.196 3.578 3.578 0 0 0-.803.277c-.795.474-1.42 1.01-1.872 1.609-.452.6-.676 1.296-.676 2.096 0 .58.132 1.13.401 1.643.268.514.631.963 1.091 1.347.46.384.994.686 1.607.91a5.685 5.685 0 0 0 1.952.332h.46c.672 0 1.308-.103 1.905-.31a5.329 5.329 0 0 0 1.573-.85 4.558 4.558 0 0 0 1.102-1.278 3.466 3.466 0 0 0 .471-1.565h-.529a3.135 3.135 0 0 1-.426 1.392 4.124 4.124 0 0 1-.977 1.139c-.4.322-.868.576-1.405.76a5.185 5.185 0 0 1-1.704.276h-.459a5.092 5.092 0 0 1-1.76-.3 4.823 4.823 0 0 1-1.439-.816 3.893 3.893 0 0 1-.978-1.21 3.153 3.153 0 0 1-.358-1.47c0-.524.12-1.01.356-1.463a3.94 3.94 0 0 1 .977-1.196 4.793 4.793 0 0 1 1.435-.82 5.069 5.069 0 0 1 1.757-.298h.735c.215 0 .431-.003.654-.01.222-.008.418-.028.586-.057"/>
      <path d="M665.106 58.586a5.694 5.694 0 0 0 1.618-.507 4.645 4.645 0 0 0 1.286-.922 4.21 4.21 0 0 0 .85-1.254 3.63 3.63 0 0 0 .31-1.484c0-.583-.13-1.13-.391-1.644a4.088 4.088 0 0 0-1.078-1.335 5.47 5.47 0 0 0-1.61-.898 5.722 5.722 0 0 0-1.974-.334h-1.516a5.65 5.65 0 0 0-1.952.334 5.477 5.477 0 0 0-1.608.898c-.459.375-.824.82-1.092 1.335a3.502 3.502 0 0 0-.401 1.644v.093h.53v-.093c0-.52.118-1.008.354-1.461a3.95 3.95 0 0 1 .976-1.197 4.841 4.841 0 0 1 1.435-.816 5.078 5.078 0 0 1 1.758-.298h1.516c.627 0 1.217.099 1.767.298.552.2 1.031.472 1.435.816.406.346.727.744.965 1.197.237.453.356.94.356 1.46a3.17 3.17 0 0 1-.356 1.475 3.959 3.959 0 0 1-.965 1.207 4.579 4.579 0 0 1-1.435.818c-.55.199-1.14.299-1.767.299a9.603 9.603 0 0 0-1.62.035 7.555 7.555 0 0 0-1.068.196 3.578 3.578 0 0 0-.803.277c-.795.474-1.42 1.01-1.872 1.609-.452.6-.676 1.296-.676 2.096 0 .58.132 1.13.401 1.643.268.514.631.963 1.091 1.347.46.384.994.686 1.607.91a5.685 5.685 0 0 0 1.952.332h.46c.672 0 1.308-.103 1.905-.31a5.329 5.329 0 0 0 1.573-.85 4.558 4.558 0 0 0 1.102-1.278 3.466 3.466 0 0 0 .471-1.565h-.529a3.135 3.135 0 0 1-.426 1.392 4.124 4.124 0 0 1-.977 1.139c-.4.322-.868.576-1.405.76a5.185 5.185 0 0 1-1.704.276h-.459a5.092 5.092 0 0 1-1.76-.3 4.823 4.823 0 0 1-1.439-.816 3.893 3.893 0 0 1-.978-1.21 3.153 3.153 0 0 1-.358-1.47c0-.524.12-1.01.356-1.463a3.94 3.94 0 0 1 .977-1.196 4.793 4.793 0 0 1 1.435-.82 5.069 5.069 0 0 1 1.757-.298h.735c.215 0 .431-.003.654-.01.222-.008.418-.028.586-.057z" />
      <path d="M691.999 66.662V56.538c0-.877-.165-1.697-.494-2.463a6.37 6.37 0 0 0-3.373-3.373 6.177 6.177 0 0 0-2.462-.494c-.873 0-1.695.165-2.463.494a6.344 6.344 0 0 0-3.371 3.373 6.171 6.171 0 0 0-.494 2.463v10.124h.436V56.538c0-.815.155-1.576.461-2.29a5.95 5.95 0 0 1 3.142-3.143 5.742 5.742 0 0 1 2.289-.459c.813 0 1.576.153 2.291.46a5.97 5.97 0 0 1 1.875 1.264 6 6 0 0 1 1.267 1.877c.305.715.459 1.476.459 2.291h-.023v10.124z"/>
      <path d="M691.999 66.662V56.538c0-.877-.165-1.697-.494-2.463a6.37 6.37 0 0 0-3.373-3.373 6.177 6.177 0 0 0-2.462-.494c-.873 0-1.695.165-2.463.494a6.344 6.344 0 0 0-3.371 3.373 6.171 6.171 0 0 0-.494 2.463v10.124h.436V56.538c0-.815.155-1.576.461-2.29a5.95 5.95 0 0 1 3.142-3.143 5.742 5.742 0 0 1 2.289-.459c.813 0 1.576.153 2.291.46a5.97 5.97 0 0 1 1.875 1.264 6 6 0 0 1 1.267 1.877c.305.715.459 1.476.459 2.291h-.023v10.124z" />
      <path d="M707.465 66.662V50.208h-.461l-12.266 15.673V50.208h-.436v16.454h.436l12.266-15.694v15.694z"/>
      <path d="M707.465 66.662V50.208h-.461l-12.266 15.673V50.208h-.436v16.454h.436l12.266-15.694v15.694z" />
      <path d="M713.264 66.226v-15.58h3.06v-.438h-6.558v.439h3.06v15.579h-3.06v.437h6.559v-.437z"/>
      <path d="M713.264 66.226v-15.58h3.06v-.438h-6.558v.439h3.06v15.579h-3.06v.437h6.559v-.437z" />
      <path d="M719.063 66.662l6.513-15.878 6.398 15.878h.437l-6.627-16.454h-.437l-6.72 16.454z"/>
      <path d="M719.063 66.662l6.513-15.878 6.398 15.878h.437l-6.627-16.454h-.437l-6.72 16.454z" />
      <path d="M735.148 66.226v-7.572h7.25v-.437h-7.25v-7.57h9.92v-.44H734.71v16.456h10.356v-.437z"/>
      <path d="M735.148 66.226v-7.572h7.25v-.437h-7.25v-7.57h9.92v-.44H734.71v16.456h10.356v-.437z" />
      <path d="M747.807 58.653h5.915c.522 0 1.009.1 1.46.3a3.9 3.9 0 0 1 2.014 2.013c.2.454.3.94.3 1.463 0 .52-.1 1.011-.3 1.472a3.855 3.855 0 0 1-2.013 2.024c-.452.2-.94.3-1.461.3h-5.915zm1.128-.437l8.998-8.008h-.621l-8.998 8.008h-.507v-8.008h-.437v16.454h6.352c.583 0 1.13-.11 1.646-.332a4.223 4.223 0 0 0 1.334-.91c.376-.384.675-.833.897-1.347a4.072 4.072 0 0 0 .334-1.644c0-.585-.11-1.133-.334-1.647a4.244 4.244 0 0 0-.897-1.334 4.24 4.24 0 0 0-1.334-.898 4.115 4.115 0 0 0-1.646-.334z"/>
      <path d="M747.807 58.653h5.915c.522 0 1.009.1 1.46.3a3.9 3.9 0 0 1 2.014 2.013c.2.454.3.94.3 1.463 0 .52-.1 1.011-.3 1.472a3.855 3.855 0 0 1-2.013 2.024c-.452.2-.94.3-1.461.3h-5.915zm1.128-.437l8.998-8.008h-.621l-8.998 8.008h-.507v-8.008h-.437v16.454h6.352c.583 0 1.13-.11 1.646-.332a4.223 4.223 0 0 0 1.334-.91c.376-.384.675-.833.897-1.347a4.072 4.072 0 0 0 .334-1.644c0-.585-.11-1.133-.334-1.647a4.244 4.244 0 0 0-.897-1.334 4.24 4.24 0 0 0-1.334-.898 4.115 4.115 0 0 0-1.646-.334z" />
      <path d="M767.792 58.586a5.694 5.694 0 0 0 1.618-.507 4.645 4.645 0 0 0 1.286-.922 4.21 4.21 0 0 0 .851-1.254c.206-.466.31-.961.31-1.484 0-.583-.13-1.13-.392-1.644a4.088 4.088 0 0 0-1.078-1.335 5.47 5.47 0 0 0-1.609-.898 5.722 5.722 0 0 0-1.974-.334h-1.516a5.65 5.65 0 0 0-1.952.334 5.477 5.477 0 0 0-1.608.898c-.459.375-.824.82-1.092 1.335a3.502 3.502 0 0 0-.402 1.644v.093h.531v-.093c0-.52.118-1.008.354-1.461a3.95 3.95 0 0 1 .976-1.197 4.854 4.854 0 0 1 1.435-.816 5.078 5.078 0 0 1 1.758-.298h1.516c.627 0 1.217.099 1.767.298.552.2 1.031.472 1.435.816.406.346.727.744.965 1.197.237.453.356.94.356 1.46a3.17 3.17 0 0 1-.356 1.475 3.959 3.959 0 0 1-.965 1.207 4.579 4.579 0 0 1-1.435.818c-.55.199-1.14.299-1.767.299a9.603 9.603 0 0 0-1.62.035 7.555 7.555 0 0 0-1.068.196 3.578 3.578 0 0 0-.803.277c-.795.474-1.42 1.01-1.872 1.609-.452.6-.676 1.296-.676 2.096 0 .58.132 1.13.401 1.643.268.514.631.963 1.091 1.347.46.384.994.686 1.607.91a5.685 5.685 0 0 0 1.952.332h.459c.673 0 1.309-.103 1.906-.31a5.329 5.329 0 0 0 1.573-.85 4.558 4.558 0 0 0 1.102-1.278 3.466 3.466 0 0 0 .471-1.565h-.529a3.135 3.135 0 0 1-.426 1.392 4.124 4.124 0 0 1-.977 1.139c-.4.322-.868.576-1.405.76a5.19 5.19 0 0 1-1.704.276h-.459a5.092 5.092 0 0 1-1.761-.3 4.823 4.823 0 0 1-1.438-.816 3.893 3.893 0 0 1-.978-1.21 3.153 3.153 0 0 1-.358-1.47c0-.524.119-1.01.356-1.463a3.94 3.94 0 0 1 .977-1.196 4.793 4.793 0 0 1 1.435-.82 5.069 5.069 0 0 1 1.757-.298h.735c.215 0 .431-.003.654-.01.222-.008.418-.028.586-.057"/>
      <path d="M767.792 58.586a5.694 5.694 0 0 0 1.618-.507 4.645 4.645 0 0 0 1.286-.922 4.21 4.21 0 0 0 .851-1.254c.206-.466.31-.961.31-1.484 0-.583-.13-1.13-.392-1.644a4.088 4.088 0 0 0-1.078-1.335 5.47 5.47 0 0 0-1.609-.898 5.722 5.722 0 0 0-1.974-.334h-1.516a5.65 5.65 0 0 0-1.952.334 5.477 5.477 0 0 0-1.608.898c-.459.375-.824.82-1.092 1.335a3.502 3.502 0 0 0-.402 1.644v.093h.531v-.093c0-.52.118-1.008.354-1.461a3.95 3.95 0 0 1 .976-1.197 4.854 4.854 0 0 1 1.435-.816 5.078 5.078 0 0 1 1.758-.298h1.516c.627 0 1.217.099 1.767.298.552.2 1.031.472 1.435.816.406.346.727.744.965 1.197.237.453.356.94.356 1.46a3.17 3.17 0 0 1-.356 1.475 3.959 3.959 0 0 1-.965 1.207 4.579 4.579 0 0 1-1.435.818c-.55.199-1.14.299-1.767.299a9.603 9.603 0 0 0-1.62.035 7.555 7.555 0 0 0-1.068.196 3.578 3.578 0 0 0-.803.277c-.795.474-1.42 1.01-1.872 1.609-.452.6-.676 1.296-.676 2.096 0 .58.132 1.13.401 1.643.268.514.631.963 1.091 1.347.46.384.994.686 1.607.91a5.685 5.685 0 0 0 1.952.332h.459c.673 0 1.309-.103 1.906-.31a5.329 5.329 0 0 0 1.573-.85 4.558 4.558 0 0 0 1.102-1.278 3.466 3.466 0 0 0 .471-1.565h-.529a3.135 3.135 0 0 1-.426 1.392 4.124 4.124 0 0 1-.977 1.139c-.4.322-.868.576-1.405.76a5.19 5.19 0 0 1-1.704.276h-.459a5.092 5.092 0 0 1-1.761-.3 4.823 4.823 0 0 1-1.438-.816 3.893 3.893 0 0 1-.978-1.21 3.153 3.153 0 0 1-.358-1.47c0-.524.119-1.01.356-1.463a3.94 3.94 0 0 1 .977-1.196 4.793 4.793 0 0 1 1.435-.82 5.069 5.069 0 0 1 1.757-.298h.735c.215 0 .431-.003.654-.01.222-.008.418-.028.586-.057z" />
      <path d="M776.965 66.226v-15.58h3.062v-.438h-6.56v.439h3.06v15.579h-3.06v.437h6.56v-.437z"/>
      <path d="M776.965 66.226v-15.58h3.062v-.438h-6.56v.439h3.06v15.579h-3.06v.437h6.56v-.437z" />
      <path d="M794.248 66.226h-5.754V50.208h-.436v16.018h-5.731v.437h11.921z"/>
      <path d="M794.248 66.226h-5.754V50.208h-.436v16.018h-5.731v.437h11.921z" />
      <path d="M796.986 66.226v-7.572h7.25v-.437h-7.25v-7.57h9.92v-.44h-10.357v16.456h10.356v-.437z"/>
      <path d="M796.986 66.226v-7.572h7.25v-.437h-7.25v-7.57h9.92v-.44h-10.357v16.456h10.356v-.437z" />
      <path d="M821.127 66.226h-5.754V50.208h-.436v16.018h-5.731v.437h11.921z"/>
      <path d="M821.127 66.226h-5.754V50.208h-.436v16.018h-5.731v.437h11.921z" />
    </g>
  </g>
</svg>